G04*
G04 #@! TF.GenerationSoftware,Altium Limited,Altium Designer,21.1.1 (26)*
G04*
G04 Layer_Color=16711935*
%FSLAX25Y25*%
%MOIN*%
G70*
G04*
G04 #@! TF.SameCoordinates,592B810C-F54D-4935-B22E-3467A51DD14B*
G04*
G04*
G04 #@! TF.FilePolarity,Negative*
G04*
G01*
G75*
%ADD18C,0.06000*%
%ADD19R,0.06737X0.06737*%
%ADD20C,0.06737*%
%ADD21C,0.04300*%
%ADD22C,0.05918*%
%ADD23C,0.06706*%
%ADD24R,0.06706X0.06706*%
%ADD25C,0.06312*%
%ADD26C,0.06698*%
%ADD27R,0.06698X0.06698*%
%ADD28C,0.05524*%
%ADD29C,0.12800*%
%ADD30R,0.08674X0.08674*%
%ADD31C,0.08674*%
%ADD32R,0.08477X0.08477*%
%ADD33C,0.08477*%
%ADD34R,0.06706X0.06706*%
%ADD35O,0.12611X0.06706*%
%ADD36C,0.05800*%
D18*
X237500Y44000D02*
D03*
X247500D02*
D03*
D19*
X262500Y194000D02*
D03*
D20*
Y184000D02*
D03*
D21*
Y121700D02*
D03*
Y116600D02*
D03*
Y111500D02*
D03*
Y106400D02*
D03*
D22*
X245000Y234000D02*
D03*
X270000D02*
D03*
X240000Y61500D02*
D03*
Y71500D02*
D03*
D23*
X230000Y99000D02*
D03*
Y109000D02*
D03*
Y119000D02*
D03*
Y129000D02*
D03*
Y139000D02*
D03*
Y149000D02*
D03*
Y159000D02*
D03*
Y169000D02*
D03*
Y179000D02*
D03*
Y189000D02*
D03*
X45000Y255500D02*
D03*
X195000Y15500D02*
D03*
X185000D02*
D03*
X130000D02*
D03*
X120000D02*
D03*
X190000Y220500D02*
D03*
X20000Y55500D02*
D03*
Y65500D02*
D03*
Y75500D02*
D03*
Y85500D02*
D03*
Y95500D02*
D03*
Y105500D02*
D03*
Y115500D02*
D03*
Y125500D02*
D03*
Y135500D02*
D03*
Y145500D02*
D03*
Y155500D02*
D03*
Y165500D02*
D03*
Y175500D02*
D03*
Y185500D02*
D03*
Y195500D02*
D03*
Y205500D02*
D03*
Y215500D02*
D03*
Y225500D02*
D03*
Y235500D02*
D03*
Y245500D02*
D03*
X10000Y215500D02*
D03*
Y155500D02*
D03*
Y145500D02*
D03*
Y165500D02*
D03*
Y175500D02*
D03*
Y185500D02*
D03*
Y195500D02*
D03*
Y205500D02*
D03*
Y225500D02*
D03*
Y235500D02*
D03*
Y55500D02*
D03*
Y95500D02*
D03*
Y85500D02*
D03*
Y65500D02*
D03*
Y75500D02*
D03*
Y105500D02*
D03*
Y115500D02*
D03*
Y125500D02*
D03*
Y135500D02*
D03*
X190000Y160500D02*
D03*
X185000Y255500D02*
D03*
X175000D02*
D03*
X165000D02*
D03*
X155000D02*
D03*
X145000D02*
D03*
X135000D02*
D03*
X125000D02*
D03*
X115000D02*
D03*
X105000D02*
D03*
X95000D02*
D03*
X198500Y40500D02*
D03*
X41500D02*
D03*
X55000Y15500D02*
D03*
X65000D02*
D03*
D24*
X230000Y89000D02*
D03*
X190000Y200500D02*
D03*
X10000Y245500D02*
D03*
X190000Y140500D02*
D03*
D25*
X222500Y49000D02*
D03*
Y79000D02*
D03*
X278000Y169500D02*
D03*
X248000D02*
D03*
X247500Y104000D02*
D03*
Y134000D02*
D03*
X277500Y94000D02*
D03*
X247500D02*
D03*
X277500Y84000D02*
D03*
X247500D02*
D03*
X45000Y125500D02*
D03*
Y155500D02*
D03*
Y185500D02*
D03*
Y215500D02*
D03*
D26*
X327795Y72858D02*
D03*
Y55142D02*
D03*
X302205D02*
D03*
X327795Y122858D02*
D03*
Y105142D02*
D03*
X302205D02*
D03*
Y205142D02*
D03*
X327795D02*
D03*
Y222858D02*
D03*
Y172858D02*
D03*
Y155142D02*
D03*
X302205D02*
D03*
D27*
Y72858D02*
D03*
Y122858D02*
D03*
Y222858D02*
D03*
Y172858D02*
D03*
D28*
X260000Y54000D02*
D03*
Y74000D02*
D03*
D29*
X225000Y26500D02*
D03*
X325000D02*
D03*
Y251500D02*
D03*
X225000D02*
D03*
D30*
X90000Y171091D02*
D03*
Y231091D02*
D03*
D31*
Y129909D02*
D03*
Y189909D02*
D03*
D32*
X105000Y135539D02*
D03*
Y195539D02*
D03*
D33*
X155000Y135539D02*
D03*
X165000Y165461D02*
D03*
X105000D02*
D03*
X155000Y195539D02*
D03*
X165000Y225461D02*
D03*
X105000D02*
D03*
D34*
X65000Y255500D02*
D03*
X175000Y15500D02*
D03*
X110000D02*
D03*
X195000Y255500D02*
D03*
X41500Y110500D02*
D03*
X198500D02*
D03*
X45000Y15500D02*
D03*
D35*
X65000Y150343D02*
D03*
Y130657D02*
D03*
Y140500D02*
D03*
Y210343D02*
D03*
Y190657D02*
D03*
Y200500D02*
D03*
D36*
X76200Y216600D02*
D03*
X74800Y173400D02*
D03*
X136800Y216000D02*
D03*
X45500Y140961D02*
D03*
X82000Y47500D02*
D03*
X27415Y149035D02*
D03*
X126000Y223500D02*
D03*
X45000Y246500D02*
D03*
M02*
