G04*
G04 #@! TF.GenerationSoftware,Altium Limited,Altium Designer,21.1.1 (26)*
G04*
G04 Layer_Color=32896*
%FSLAX25Y25*%
%MOIN*%
G70*
G04*
G04 #@! TF.SameCoordinates,592B810C-F54D-4935-B22E-3467A51DD14B*
G04*
G04*
G04 #@! TF.FilePolarity,Positive*
G04*
G01*
G75*
%ADD11C,0.01000*%
%ADD14C,0.00787*%
%ADD15C,0.00800*%
%ADD16C,0.00900*%
%ADD59C,0.01400*%
%ADD60C,0.01800*%
D11*
X232999Y213998D02*
X227001D01*
Y210999D01*
X228001Y209999D01*
X230000D01*
X231000Y210999D01*
Y213998D01*
X232999Y207999D02*
Y206000D01*
Y207000D01*
X227001D01*
X228001Y207999D01*
Y203001D02*
X227001Y202001D01*
Y200002D01*
X228001Y199002D01*
X231999D01*
X232999Y200002D01*
Y202001D01*
X231999Y203001D01*
X228001D01*
X238001Y164496D02*
X237001Y165496D01*
Y167495D01*
X238001Y168495D01*
X239000D01*
X240000Y167495D01*
Y165496D01*
X241000Y164496D01*
X241999D01*
X242999Y165496D01*
Y167495D01*
X241999Y168495D01*
X237001Y162497D02*
X242999D01*
X240000D01*
X239000Y161497D01*
Y159498D01*
X240000Y158498D01*
X242999D01*
Y156499D02*
Y154499D01*
Y155499D01*
X239000D01*
Y156499D01*
X242999Y148501D02*
Y150501D01*
X241999Y151500D01*
X240000D01*
X239000Y150501D01*
Y148501D01*
X240000Y147502D01*
X241000D01*
Y151500D01*
X242999Y145502D02*
Y143503D01*
Y144503D01*
X237001D01*
Y145502D01*
Y136505D02*
X242999D01*
Y139504D01*
X241999Y140504D01*
X240000D01*
X239000Y139504D01*
Y136505D01*
X225499Y68998D02*
X219501D01*
Y65999D01*
X220501Y65000D01*
X222500D01*
X223500Y65999D01*
Y68998D01*
Y66999D02*
X225499Y65000D01*
X220501Y63000D02*
X219501Y62001D01*
Y60001D01*
X220501Y59002D01*
X221500D01*
X222500Y60001D01*
Y61001D01*
Y60001D01*
X223500Y59002D01*
X224499D01*
X225499Y60001D01*
Y62001D01*
X224499Y63000D01*
X258002Y172499D02*
Y166501D01*
X261001D01*
X262000Y167501D01*
Y169500D01*
X261001Y170500D01*
X258002D01*
X260001D02*
X262000Y172499D01*
X266999D02*
Y166501D01*
X264000Y169500D01*
X267998D01*
X250499Y123998D02*
X244501D01*
Y120999D01*
X245501Y120000D01*
X247500D01*
X248500Y120999D01*
Y123998D01*
Y121999D02*
X250499Y120000D01*
X244501Y114002D02*
Y118000D01*
X247500D01*
X246500Y116001D01*
Y115001D01*
X247500Y114002D01*
X249499D01*
X250499Y115001D01*
Y117001D01*
X249499Y118000D01*
X257502Y96999D02*
Y91001D01*
X260501D01*
X261500Y92001D01*
Y94000D01*
X260501Y95000D01*
X257502D01*
X259501D02*
X261500Y96999D01*
X267498Y91001D02*
X265499Y92001D01*
X263500Y94000D01*
Y95999D01*
X264499Y96999D01*
X266499D01*
X267498Y95999D01*
Y95000D01*
X266499Y94000D01*
X263500D01*
X257502Y86999D02*
Y81001D01*
X260501D01*
X261500Y82001D01*
Y84000D01*
X260501Y85000D01*
X257502D01*
X259501D02*
X261500Y86999D01*
X263500Y81001D02*
X267498D01*
Y82001D01*
X263500Y85999D01*
Y86999D01*
X245501Y66500D02*
X244501Y67500D01*
Y69499D01*
X245501Y70499D01*
X249499D01*
X250499Y69499D01*
Y67500D01*
X249499Y66500D01*
X250499Y64501D02*
Y62501D01*
Y63501D01*
X244501D01*
X245501Y64501D01*
X261999Y63000D02*
X262999Y62001D01*
Y60001D01*
X261999Y59002D01*
X258001D01*
X257001Y60001D01*
Y62001D01*
X258001Y63000D01*
X257001Y68998D02*
Y65000D01*
X261000Y68998D01*
X261999D01*
X262999Y67999D01*
Y65999D01*
X261999Y65000D01*
X15600Y259300D02*
Y265298D01*
X12601D01*
X11601Y264298D01*
Y262299D01*
X12601Y261299D01*
X15600D01*
X9602Y265298D02*
X5603D01*
Y264298D01*
X9602Y260300D01*
Y259300D01*
D14*
X250236Y66500D02*
X250187Y67503D01*
X250040Y68497D01*
X249795Y69471D01*
X249457Y70417D01*
X249027Y71325D01*
X248511Y72187D01*
X247913Y72994D01*
X247238Y73738D01*
X246494Y74413D01*
X245687Y75011D01*
X244825Y75528D01*
X243917Y75957D01*
X242971Y76295D01*
X241997Y76539D01*
X241003Y76687D01*
X240000Y76736D01*
X238997Y76687D01*
X238003Y76539D01*
X237029Y76295D01*
X236083Y75957D01*
X235175Y75528D01*
X234313Y75011D01*
X233506Y74413D01*
X232762Y73738D01*
X232087Y72994D01*
X231489Y72187D01*
X230973Y71325D01*
X230543Y70417D01*
X230205Y69471D01*
X229960Y68497D01*
X229813Y67503D01*
X229764Y66500D01*
X229813Y65497D01*
X229960Y64503D01*
X230205Y63529D01*
X230543Y62583D01*
X230973Y61675D01*
X231489Y60813D01*
X232087Y60006D01*
X232762Y59262D01*
X233506Y58587D01*
X234313Y57989D01*
X235175Y57472D01*
X236083Y57043D01*
X237029Y56704D01*
X238003Y56460D01*
X238997Y56313D01*
X240000Y56264D01*
X241003Y56313D01*
X241997Y56460D01*
X242971Y56704D01*
X243917Y57043D01*
X244825Y57472D01*
X245687Y57989D01*
X246494Y58587D01*
X247238Y59262D01*
X247913Y60006D01*
X248511Y60813D01*
X249027Y61675D01*
X249457Y62583D01*
X249795Y63529D01*
X250040Y64503D01*
X250187Y65497D01*
X250236Y66500D01*
X219000Y84000D02*
Y194000D01*
Y84000D02*
X242000D01*
X219000Y194000D02*
X242000D01*
Y84000D02*
Y194000D01*
X219500Y54000D02*
X222500D01*
X219500D02*
Y74000D01*
X225500D01*
Y54000D02*
Y74000D01*
X222500Y54000D02*
X225500D01*
X222500Y74000D02*
Y74900D01*
Y53100D02*
Y54000D01*
X273000Y166500D02*
Y169500D01*
X253000Y166500D02*
X273000D01*
X253000D02*
Y172500D01*
X273000D01*
Y169500D02*
Y172500D01*
X252100Y169500D02*
X253000D01*
X273000D02*
X273900D01*
X247500Y129000D02*
Y129900D01*
Y108100D02*
Y109000D01*
X244500Y129000D02*
X247500D01*
X244500Y109000D02*
Y129000D01*
Y109000D02*
X250500D01*
Y129000D01*
X247500D02*
X250500D01*
X272500Y91000D02*
Y94000D01*
X252500Y91000D02*
X272500D01*
X252500D02*
Y97000D01*
X272500D01*
Y94000D02*
Y97000D01*
X251600Y94000D02*
X252500D01*
X272500D02*
X273400D01*
X272500Y81000D02*
Y84000D01*
X252500Y81000D02*
X272500D01*
X252500D02*
Y87000D01*
X272500D01*
Y84000D02*
Y87000D01*
X251600Y84000D02*
X252500D01*
X272500D02*
X273400D01*
X266300Y51795D02*
Y76205D01*
X253700Y51795D02*
X266300D01*
X253700Y76205D02*
X266300D01*
X253700Y51795D02*
Y76205D01*
X25000Y50500D02*
Y250500D01*
X5000Y50500D02*
Y250500D01*
X25000D01*
X5000Y50500D02*
X25000D01*
D15*
X234534Y73200D02*
Y69868D01*
X232868Y71534D02*
X236200D01*
X23000Y252168D02*
Y255500D01*
X19668Y252168D01*
X18835D01*
X18002Y253001D01*
Y254667D01*
X18835Y255500D01*
X23000Y46001D02*
X18002D01*
X20501Y48500D01*
Y45168D01*
X18835Y43502D02*
X18002Y42669D01*
Y41002D01*
X18835Y40169D01*
X22167D01*
X23000Y41002D01*
Y42669D01*
X22167Y43502D01*
X18835D01*
X8335Y48000D02*
X7502Y47167D01*
Y45501D01*
X8335Y44668D01*
X9168D01*
X10001Y45501D01*
Y46334D01*
Y45501D01*
X10834Y44668D01*
X11667D01*
X12500Y45501D01*
Y47167D01*
X11667Y48000D01*
Y43002D02*
X12500Y42169D01*
Y40502D01*
X11667Y39669D01*
X8335D01*
X7502Y40502D01*
Y42169D01*
X8335Y43002D01*
X9168D01*
X10001Y42169D01*
Y39669D01*
X12500Y254500D02*
Y252834D01*
Y253667D01*
X7502D01*
X8335Y254500D01*
D16*
X168100Y65065D02*
Y60066D01*
X164768D01*
X162269Y63398D02*
X160602D01*
X159769Y62565D01*
Y60066D01*
X162269D01*
X163102Y60899D01*
X162269Y61732D01*
X159769D01*
X158103Y60066D02*
Y63398D01*
X155604D01*
X154771Y62565D01*
Y60066D01*
X149773Y65065D02*
Y60066D01*
X152272D01*
X153105Y60899D01*
Y62565D01*
X152272Y63398D01*
X149773D01*
X148107D02*
Y60066D01*
Y61732D01*
X147273Y62565D01*
X146440Y63398D01*
X145607D01*
X143108D02*
Y60899D01*
X142275Y60066D01*
X139776D01*
Y59233D01*
X140609Y58400D01*
X141442D01*
X139776Y60066D02*
Y63398D01*
X133111Y65065D02*
X129779D01*
X131445D01*
Y60066D01*
X127280Y63398D02*
X125614D01*
X124781Y62565D01*
Y60066D01*
X127280D01*
X128113Y60899D01*
X127280Y61732D01*
X124781D01*
X123115Y63398D02*
Y60899D01*
X122282Y60066D01*
X119782D01*
Y59233D01*
X120615Y58400D01*
X121449D01*
X119782Y60066D02*
Y63398D01*
X118116Y60066D02*
Y63398D01*
X117283D01*
X116450Y62565D01*
Y60066D01*
Y62565D01*
X115617Y63398D01*
X114784Y62565D01*
Y60066D01*
X112285Y63398D02*
X110619D01*
X109786Y62565D01*
Y60066D01*
X112285D01*
X113118Y60899D01*
X112285Y61732D01*
X109786D01*
X108119Y60066D02*
Y63398D01*
X105620D01*
X104787Y62565D01*
Y60066D01*
X103121D02*
X100622D01*
X99789Y60899D01*
X100622Y61732D01*
X102288D01*
X103121Y62565D01*
X102288Y63398D01*
X99789D01*
X289102Y252600D02*
X293601D01*
Y249601D01*
X290601Y247352D02*
Y245852D01*
X291351Y245102D01*
X293601D01*
Y247352D01*
X292851Y248101D01*
X292101Y247352D01*
Y245102D01*
X293601Y243603D02*
X290601D01*
Y241354D01*
X291351Y240604D01*
X293601D01*
X289102Y236105D02*
X293601D01*
Y238355D01*
X292851Y239104D01*
X291351D01*
X290601Y238355D01*
Y236105D01*
Y234606D02*
X293601D01*
X292101D01*
X291351Y233856D01*
X290601Y233106D01*
Y232357D01*
Y230107D02*
X292851D01*
X293601Y229358D01*
Y227108D01*
X294350D01*
X295100Y227858D01*
Y228608D01*
X293601Y227108D02*
X290601D01*
X289102Y221110D02*
Y218111D01*
Y219611D01*
X293601D01*
X290601Y215862D02*
Y214362D01*
X291351Y213613D01*
X293601D01*
Y215862D01*
X292851Y216612D01*
X292101Y215862D01*
Y213613D01*
X290601Y212113D02*
X292851D01*
X293601Y211363D01*
Y209114D01*
X294350D01*
X295100Y209864D01*
Y210613D01*
X293601Y209114D02*
X290601D01*
X293601Y207614D02*
X290601D01*
Y206865D01*
X291351Y206115D01*
X293601D01*
X291351D01*
X290601Y205365D01*
X291351Y204615D01*
X293601D01*
X290601Y202366D02*
Y200867D01*
X291351Y200117D01*
X293601D01*
Y202366D01*
X292851Y203116D01*
X292101Y202366D01*
Y200117D01*
X293601Y198617D02*
X290601D01*
Y196368D01*
X291351Y195618D01*
X293601D01*
Y194119D02*
Y191870D01*
X292851Y191120D01*
X292101Y191870D01*
Y193369D01*
X291351Y194119D01*
X290601Y193369D01*
Y191120D01*
D59*
X276603Y252100D02*
X284600D01*
X281934D01*
X276603Y246768D01*
X280601Y250767D01*
X284600Y246768D01*
Y242770D02*
Y240104D01*
X283267Y238771D01*
X280601D01*
X279268Y240104D01*
Y242770D01*
X280601Y244103D01*
X283267D01*
X284600Y242770D01*
X279268Y236105D02*
X284600D01*
X281934D01*
X280601Y234772D01*
X279268Y233439D01*
Y232106D01*
Y228108D02*
X284600D01*
X281934D01*
X280601Y226775D01*
X279268Y225442D01*
Y224109D01*
X284600Y216112D02*
Y218777D01*
X283267Y220110D01*
X280601D01*
X279268Y218777D01*
Y216112D01*
X280601Y214779D01*
X281934D01*
Y220110D01*
X276603Y212113D02*
X284600D01*
X281934D01*
X276603Y206781D01*
X280601Y210780D01*
X284600Y206781D01*
X277936Y202783D02*
X279268D01*
Y204116D01*
Y201450D01*
Y202783D01*
X283267D01*
X284600Y201450D01*
X276603Y197451D02*
X284600D01*
X280601D01*
X279268Y196118D01*
Y193452D01*
X280601Y192119D01*
X284600D01*
Y188121D02*
Y185455D01*
X283267Y184122D01*
X280601D01*
X279268Y185455D01*
Y188121D01*
X280601Y189454D01*
X283267D01*
X284600Y188121D01*
X279268Y181456D02*
X284600D01*
X281934D01*
X280601Y180123D01*
X279268Y178790D01*
Y177457D01*
D60*
X168200Y83297D02*
Y73300D01*
Y76632D01*
X161536Y83297D01*
X166534Y78298D01*
X161536Y73300D01*
X156537D02*
X153205D01*
X151539Y74966D01*
Y78298D01*
X153205Y79965D01*
X156537D01*
X158203Y78298D01*
Y74966D01*
X156537Y73300D01*
X148206Y79965D02*
Y73300D01*
Y76632D01*
X146540Y78298D01*
X144874Y79965D01*
X143208D01*
X138210D02*
Y73300D01*
Y76632D01*
X136544Y78298D01*
X134877Y79965D01*
X133211D01*
X123214Y73300D02*
X126547D01*
X128213Y74966D01*
Y78298D01*
X126547Y79965D01*
X123214D01*
X121548Y78298D01*
Y76632D01*
X128213D01*
X118216Y83297D02*
Y73300D01*
Y76632D01*
X111552Y83297D01*
X116550Y78298D01*
X111552Y73300D01*
X106553Y81631D02*
Y79965D01*
X108219D01*
X104887D01*
X106553D01*
Y74966D01*
X104887Y73300D01*
X99889Y83297D02*
Y73300D01*
Y78298D01*
X98223Y79965D01*
X94890D01*
X93224Y78298D01*
Y73300D01*
X88226D02*
X84894D01*
X83227Y74966D01*
Y78298D01*
X84894Y79965D01*
X88226D01*
X89892Y78298D01*
Y74966D01*
X88226Y73300D01*
X79895Y79965D02*
Y73300D01*
Y76632D01*
X78229Y78298D01*
X76563Y79965D01*
X74897D01*
M02*
