%FSTAX23Y23*%
%MOIN*%
%SFA1B1*%

%IPPOS*%
%ADD37C,0.015000*%
%ADD38C,0.025000*%
%ADD39C,0.052000*%
%ADD40R,0.059370X0.059370*%
%ADD41C,0.059370*%
%ADD42C,0.035000*%
%ADD43C,0.051180*%
%ADD44C,0.059060*%
%ADD45R,0.059060X0.059060*%
%ADD46C,0.055120*%
%ADD47C,0.058980*%
%ADD48R,0.058980X0.058980*%
%ADD49C,0.047240*%
%ADD50C,0.120000*%
%ADD51R,0.078740X0.078740*%
%ADD52C,0.078740*%
%ADD53R,0.076770X0.076770*%
%ADD54C,0.076770*%
%ADD55R,0.059060X0.059060*%
%ADD56O,0.118110X0.059060*%
%ADD57C,0.050000*%
%ADD58C,0.012000*%
%LNmergepcb-1*%
%LPD*%
G54D37*
X02625Y0099D02*
Y01064D01*
Y0099D02*
X02775Y0084D01*
X02625Y01115D02*
X02715D01*
X02775Y01055*
Y0094D02*
Y01055D01*
X02475Y0134D02*
X02481Y01333D01*
X02508*
X02625Y01217*
Y0184D02*
X0263D01*
X02775Y01695*
X0278*
X02225Y0049D02*
X02325D01*
X02375Y0044*
X023Y0179D02*
X02385D01*
X0248Y01695*
X03022Y02051D02*
X03277D01*
X029Y01929D02*
X03022Y02051D01*
X029Y01695D02*
Y01929D01*
X0281Y01605D02*
X029Y01695D01*
X02385Y01605D02*
X0281D01*
X023Y0169D02*
X02385Y01605D01*
X03277Y01552D02*
X03277Y01551D01*
X0312Y01552D02*
X03277D01*
X03119Y01551D02*
X0312Y01552D01*
X03022Y01551D02*
X03119D01*
X023Y0159D02*
X02338Y01551D01*
X03022*
X023Y0149D02*
X02583D01*
X03022Y01051*
X03277*
X023Y0139D02*
X0237Y0132D01*
Y01255D02*
Y0132D01*
X02353Y01238D02*
X0237Y01255D01*
X02345Y0054D02*
X0248D01*
X0255Y0047*
X0294*
X03022Y00551*
X03277*
X02227Y02117D02*
X0245Y0234D01*
X02227Y01362D02*
Y02117D01*
Y01362D02*
X023Y0129D01*
Y0119D02*
X02485D01*
X0257Y01105*
Y00935D02*
Y01105D01*
X02475Y0084D02*
X0257Y00935D01*
X023Y0109D02*
X0231D01*
X0233Y0111*
X0251*
X02535Y01085*
Y01D02*
Y01085D01*
X02475Y0094D02*
X02535Y01D01*
X02425Y0099D02*
X02475Y0104D01*
X023Y0099D02*
X02425D01*
X03327Y00778D02*
Y01179D01*
X03277Y01228D02*
X03327Y01179D01*
X03277Y00728D02*
X03327Y00778D01*
X03277Y01728D02*
X03327Y01679D01*
Y01278D02*
Y01679D01*
X03277Y01228D02*
X03327Y01278D01*
Y01778D02*
Y02179D01*
X03277Y01728D02*
X03327Y01778D01*
X03277Y02228D02*
X03327Y02179D01*
X02208Y01238D02*
X02353D01*
X02179Y00706D02*
X02345Y0054D01*
X02179Y01209D02*
X02208Y01238D01*
X02179Y00706D02*
Y01209D01*
X003Y01705D02*
X0045Y01555D01*
X0015Y01705D02*
X003D01*
X001Y01755D02*
X0015Y01705D01*
X002Y01755D02*
X00611Y02166D01*
X00762*
X00556Y02005D02*
X0065D01*
X00152Y01403D02*
X002Y01355D01*
X0158Y02625D02*
X0165Y02555D01*
X0013Y02625D02*
X0158D01*
X0045Y01899D02*
X00556Y02005D01*
X0045Y01855D02*
Y01899D01*
X0106Y01185D02*
X01368Y01493D01*
Y0216*
X0035Y01185D02*
X0106D01*
X003Y01135D02*
X0035Y01185D01*
X0026Y00955D02*
X003Y00995D01*
Y01135*
X002Y00955D02*
X0026D01*
X00487Y01473D02*
X00748Y01734D01*
X002Y01455D02*
X0021D01*
X0025Y01415*
X0123Y02435D02*
X0135Y02555D01*
X0025Y01415D02*
X00449D01*
X00455Y01409*
X0045Y01305D02*
X0055Y01405D01*
X0045Y01255D02*
Y01305D01*
X0055Y01405D02*
X0065D01*
X00382Y01473D02*
X00487D01*
X002Y01655D02*
X00382Y01473D01*
X00148Y01535D02*
Y01607D01*
X001Y01655D02*
X00148Y01607D01*
X0003Y02525D02*
X0013Y02625D01*
X0003Y02025D02*
Y02525D01*
Y02025D02*
X0005Y02005D01*
X00783Y02228D02*
X00827Y02185D01*
X0121D02*
X0126Y02235D01*
X00827Y02185D02*
X0121D01*
X0045Y02065D02*
X00613Y02228D01*
X00783*
X002Y02155D02*
X0029Y02065D01*
X0045*
X001Y02155D02*
X0015Y02205D01*
X003Y02305D02*
X0045Y02155D01*
X0017Y02305D02*
X003D01*
X0015Y02205D02*
Y02285D01*
X0017Y02305*
X00148Y01535D02*
X00175Y01507D01*
X00237*
X00247Y01497D02*
X00267D01*
X00274Y0149*
X00237Y01507D02*
X00247Y01497D01*
X0015Y01105D02*
Y01205D01*
X001Y01255D02*
X0015Y01205D01*
Y01105D02*
X002Y01055D01*
X0015Y00905D02*
Y01005D01*
Y00905D02*
X002Y00855D01*
X0015Y01005D02*
X002Y01055D01*
X0025Y02005D02*
X0028Y01975D01*
Y01935D02*
Y01975D01*
X002Y01855D02*
X0028Y01935D01*
X001Y02055D02*
X00108Y02046D01*
X00128*
X0017Y02005*
X0025*
X0013D02*
X00148Y01987D01*
X0005Y02005D02*
X0013D01*
X00148Y01823D02*
Y01987D01*
X0013Y01805D02*
X00148Y01823D01*
X00062Y01403D02*
X00152D01*
X00058Y01805D02*
X0013D01*
X0005Y01415D02*
X00062Y01403D01*
X0005Y01415D02*
Y01796D01*
X00058Y01805*
X00486Y02435D02*
X0123D01*
X00456Y02465D02*
X00486Y02435D01*
X0045Y02465D02*
X00456D01*
G54D38*
X02282Y00847D02*
X02288Y00854D01*
X02293Y00862*
X02297Y00871*
X02299Y0088*
X023Y0089*
X03022Y01228D02*
X03277D01*
X03022Y01728D02*
X03277D01*
X03022Y02228D02*
X03277D01*
X02225Y0079D02*
X02282Y00847D01*
X024Y00715D02*
Y0079D01*
Y00715D02*
X02568D01*
X02593Y0074*
X026*
X02604Y00735*
X03014*
X03022Y00728*
X03277*
X023Y0089D02*
X024Y0079D01*
X009Y0231D02*
X00993D01*
X0105Y02254*
X00117Y02472D02*
Y02512D01*
X001Y02455D02*
X00117Y02472D01*
Y02512D02*
X0014Y02535D01*
X0155Y01955D02*
X0185D01*
X019Y02005*
X0185Y01355D02*
X019Y01405D01*
X0155Y01355D02*
X0185D01*
X00896Y01302D02*
X009Y01299D01*
X00653Y01302D02*
X00896D01*
X0065Y01306D02*
X00653Y01302D01*
X00993Y01299D02*
X0105Y01355D01*
X009Y01299D02*
X00993D01*
X009Y0171D02*
X00956Y01654D01*
X0105*
X0045Y02555D02*
X0052Y02485D01*
X0088D02*
X0095Y02555D01*
X0052Y02485D02*
X0088D01*
X00896Y01902D02*
X009Y01899D01*
X00653Y01902D02*
X00896D01*
X0065Y01906D02*
X00653Y01902D01*
X00993Y01899D02*
X0105Y01955D01*
X009Y01899D02*
X00993D01*
X00415Y01105D02*
X011D01*
X0165Y01654*
X00815Y0047D02*
X0082Y00475D01*
X0166Y00245D02*
X0175Y00155D01*
X011Y00205D02*
X0114Y00245D01*
X0166*
X011Y00155D02*
Y00205D01*
X0178Y02385D02*
X0195Y02555D01*
X0032Y02355D02*
X0036Y02315D01*
X002Y02355D02*
X0032D01*
X00895Y02315D02*
X009Y0231D01*
X0036Y02315D02*
X00895D01*
X0043Y02385D02*
X0178D01*
X0028Y02535D02*
X0043Y02385D01*
X0014Y02535D02*
X0028D01*
X00765Y0047D02*
X00815D01*
X0045Y00155D02*
X00765Y0047D01*
G54D39*
X02375Y0044D03*
X02475D03*
G54D40*
X02625Y0194D03*
G54D41*
X02625Y0184D03*
G54D42*
X02625Y01217D03*
Y01166D03*
Y01115D03*
Y01064D03*
G54D43*
X0245Y0234D03*
X027D03*
X024Y00615D03*
Y00715D03*
G54D44*
X023Y0099D03*
Y0109D03*
Y0119D03*
Y0129D03*
Y0139D03*
Y0149D03*
Y0159D03*
Y0169D03*
Y0179D03*
Y0189D03*
X0045Y02555D03*
X0195Y00155D03*
X0185D03*
X013D03*
X012D03*
X019Y02205D03*
X002Y00555D03*
Y00655D03*
Y00755D03*
Y00855D03*
Y00955D03*
Y01055D03*
Y01155D03*
Y01255D03*
Y01355D03*
Y01455D03*
Y01555D03*
Y01655D03*
Y01755D03*
Y01855D03*
Y01955D03*
Y02055D03*
Y02155D03*
Y02255D03*
Y02355D03*
Y02455D03*
X001Y02155D03*
Y01555D03*
Y01455D03*
Y01655D03*
Y01755D03*
Y01855D03*
Y01955D03*
Y02055D03*
Y02255D03*
Y02355D03*
Y00555D03*
Y00955D03*
Y00855D03*
Y00655D03*
Y00755D03*
Y01055D03*
Y01155D03*
Y01255D03*
Y01355D03*
X019Y01605D03*
X0185Y02555D03*
X0175D03*
X0165D03*
X0155D03*
X0145D03*
X0135D03*
X0125D03*
X0115D03*
X0105D03*
X0095D03*
X01985Y00405D03*
X00415D03*
X0055Y00155D03*
X0065D03*
G54D45*
X023Y0089D03*
X019Y02005D03*
X001Y02455D03*
X019Y01405D03*
G54D46*
X02225Y0049D03*
Y0079D03*
X0278Y01695D03*
X0248D03*
X02475Y0104D03*
Y0134D03*
X02775Y0094D03*
X02475D03*
X02775Y0084D03*
X02475D03*
X0045Y01255D03*
Y01555D03*
Y01855D03*
Y02155D03*
G54D47*
X03277Y00728D03*
Y00551D03*
X03022D03*
X03277Y01228D03*
Y01051D03*
X03022D03*
Y02051D03*
X03277D03*
Y02228D03*
Y01728D03*
Y01551D03*
X03022D03*
G54D48*
X03022Y00728D03*
Y01228D03*
Y02228D03*
Y01728D03*
G54D49*
X026Y0054D03*
Y0074D03*
G54D50*
X0225Y00265D03*
X0325D03*
Y02515D03*
X0225D03*
G54D51*
X009Y0171D03*
Y0231D03*
G54D52*
X009Y01299D03*
Y01899D03*
G54D53*
X0105Y01355D03*
Y01955D03*
G54D54*
X0155Y01355D03*
X0165Y01654D03*
X0105D03*
X0155Y01955D03*
X0165Y02254D03*
X0105D03*
G54D55*
X0065Y02555D03*
X0175Y00155D03*
X011D03*
X0195Y02555D03*
X00415Y01105D03*
X01985D03*
X0045Y00155D03*
G54D56*
X0065Y01503D03*
Y01306D03*
Y01405D03*
Y02103D03*
Y01906D03*
Y02005D03*
G54D57*
X00762Y02166D03*
X00748Y01734D03*
X01368Y0216D03*
X00455Y01409D03*
X0082Y00475D03*
X00274Y0149D03*
X0126Y02235D03*
X0045Y02465D03*
G54D58*
X0032Y00075D02*
X0177D01*
X0185Y00155*
X00021Y00374D02*
Y01876D01*
X001Y01955*
X00021Y00374D02*
X0032Y00075D01*
M02*