%FSTAX23Y23*%
%MOIN*%
%SFA1B1*%

%IPPOS*%
%ADD18C,0.060000*%
%ADD19R,0.067370X0.067370*%
%ADD20C,0.067370*%
%ADD21C,0.043000*%
%ADD22C,0.059180*%
%ADD23C,0.067060*%
%ADD24R,0.067060X0.067060*%
%ADD25C,0.063120*%
%ADD26C,0.066980*%
%ADD27R,0.066980X0.066980*%
%ADD28C,0.055240*%
%ADD29C,0.128000*%
%ADD30R,0.086740X0.086740*%
%ADD31C,0.086740*%
%ADD32R,0.084770X0.084770*%
%ADD33C,0.084770*%
%ADD34R,0.067060X0.067060*%
%ADD35O,0.126110X0.067060*%
%ADD36C,0.058000*%
%LNmergepcb-1*%
%LPD*%
G54D18*
X02375Y0044D03*
X02475D03*
G54D19*
X02625Y0194D03*
G54D20*
X02625Y0184D03*
G54D21*
X02625Y01217D03*
Y01166D03*
Y01115D03*
Y01064D03*
G54D22*
X0245Y0234D03*
X027D03*
X024Y00615D03*
Y00715D03*
G54D23*
X023Y0099D03*
Y0109D03*
Y0119D03*
Y0129D03*
Y0139D03*
Y0149D03*
Y0159D03*
Y0169D03*
Y0179D03*
Y0189D03*
X0045Y02555D03*
X0195Y00155D03*
X0185D03*
X013D03*
X012D03*
X019Y02205D03*
X002Y00555D03*
Y00655D03*
Y00755D03*
Y00855D03*
Y00955D03*
Y01055D03*
Y01155D03*
Y01255D03*
Y01355D03*
Y01455D03*
Y01555D03*
Y01655D03*
Y01755D03*
Y01855D03*
Y01955D03*
Y02055D03*
Y02155D03*
Y02255D03*
Y02355D03*
Y02455D03*
X001Y02155D03*
Y01555D03*
Y01455D03*
Y01655D03*
Y01755D03*
Y01855D03*
Y01955D03*
Y02055D03*
Y02255D03*
Y02355D03*
Y00555D03*
Y00955D03*
Y00855D03*
Y00655D03*
Y00755D03*
Y01055D03*
Y01155D03*
Y01255D03*
Y01355D03*
X019Y01605D03*
X0185Y02555D03*
X0175D03*
X0165D03*
X0155D03*
X0145D03*
X0135D03*
X0125D03*
X0115D03*
X0105D03*
X0095D03*
X01985Y00405D03*
X00415D03*
X0055Y00155D03*
X0065D03*
G54D24*
X023Y0089D03*
X019Y02005D03*
X001Y02455D03*
X019Y01405D03*
G54D25*
X02225Y0049D03*
Y0079D03*
X0278Y01695D03*
X0248D03*
X02475Y0104D03*
Y0134D03*
X02775Y0094D03*
X02475D03*
X02775Y0084D03*
X02475D03*
X0045Y01255D03*
Y01555D03*
Y01855D03*
Y02155D03*
G54D26*
X03277Y00728D03*
Y00551D03*
X03022D03*
X03277Y01228D03*
Y01051D03*
X03022D03*
Y02051D03*
X03277D03*
Y02228D03*
Y01728D03*
Y01551D03*
X03022D03*
G54D27*
X03022Y00728D03*
Y01228D03*
Y02228D03*
Y01728D03*
G54D28*
X026Y0054D03*
Y0074D03*
G54D29*
X0225Y00265D03*
X0325D03*
Y02515D03*
X0225D03*
G54D30*
X009Y0171D03*
Y0231D03*
G54D31*
X009Y01299D03*
Y01899D03*
G54D32*
X0105Y01355D03*
Y01955D03*
G54D33*
X0155Y01355D03*
X0165Y01654D03*
X0105D03*
X0155Y01955D03*
X0165Y02254D03*
X0105D03*
G54D34*
X0065Y02555D03*
X0175Y00155D03*
X011D03*
X0195Y02555D03*
X00415Y01105D03*
X01985D03*
X0045Y00155D03*
G54D35*
X0065Y01503D03*
Y01306D03*
Y01405D03*
Y02103D03*
Y01906D03*
Y02005D03*
G54D36*
X00762Y02166D03*
X00748Y01734D03*
X01368Y0216D03*
X00455Y01409D03*
X0082Y00475D03*
X00274Y0149D03*
X0126Y02235D03*
X0045Y02465D03*
M02*