%FSTAX23Y23*%
%MOIN*%
%SFA1B1*%

%IPPOS*%
%ADD11C,0.010000*%
%ADD14C,0.007870*%
%ADD15C,0.008000*%
%ADD16C,0.009000*%
%ADD59C,0.014000*%
%ADD60C,0.018000*%
%LNmergepcb-1*%
%LPD*%
G54D11*
X02329Y02139D02*
X0227D01*
Y02109*
X0228Y02099*
X023*
X0231Y02109*
Y02139*
X02329Y02079D02*
Y0206D01*
Y0207*
X0227*
X0228Y02079*
Y0203D02*
X0227Y0202D01*
Y02*
X0228Y0199*
X02319*
X02329Y02*
Y0202*
X02319Y0203*
X0228*
X0238Y01644D02*
X0237Y01654D01*
Y01674*
X0238Y01684*
X0239*
X024Y01674*
Y01654*
X0241Y01644*
X02419*
X02429Y01654*
Y01674*
X02419Y01684*
X0237Y01624D02*
X02429D01*
X024*
X0239Y01614*
Y01594*
X024Y01584*
X02429*
Y01564D02*
Y01544D01*
Y01554*
X0239*
Y01564*
X02429Y01485D02*
Y01505D01*
X02419Y01515*
X024*
X0239Y01505*
Y01485*
X024Y01475*
X0241*
Y01515*
X02429Y01455D02*
Y01435D01*
Y01445*
X0237*
Y01455*
Y01365D02*
X02429D01*
Y01395*
X02419Y01405*
X024*
X0239Y01395*
Y01365*
X02254Y00689D02*
X02195D01*
Y00659*
X02205Y0065*
X02225*
X02235Y00659*
Y00689*
Y00669D02*
X02254Y0065D01*
X02205Y0063D02*
X02195Y0062D01*
Y006*
X02205Y0059*
X02215*
X02225Y006*
Y0061*
Y006*
X02235Y0059*
X02244*
X02254Y006*
Y0062*
X02244Y0063*
X0258Y01724D02*
Y01665D01*
X0261*
X0262Y01675*
Y01695*
X0261Y01705*
X0258*
X026D02*
X0262Y01724D01*
X02669D02*
Y01665D01*
X0264Y01695*
X02679*
X02504Y01239D02*
X02445D01*
Y01209*
X02455Y012*
X02475*
X02485Y01209*
Y01239*
Y01219D02*
X02504Y012D01*
X02445Y0114D02*
Y0118D01*
X02475*
X02465Y0116*
Y0115*
X02475Y0114*
X02494*
X02504Y0115*
Y0117*
X02494Y0118*
X02575Y00969D02*
Y0091D01*
X02605*
X02615Y0092*
Y0094*
X02605Y0095*
X02575*
X02595D02*
X02615Y00969D01*
X02674Y0091D02*
X02654Y0092D01*
X02635Y0094*
Y00959*
X02644Y00969*
X02664*
X02674Y00959*
Y0095*
X02664Y0094*
X02635*
X02575Y00869D02*
Y0081D01*
X02605*
X02615Y0082*
Y0084*
X02605Y0085*
X02575*
X02595D02*
X02615Y00869D01*
X02635Y0081D02*
X02674D01*
Y0082*
X02635Y00859*
Y00869*
X02455Y00665D02*
X02445Y00675D01*
Y00694*
X02455Y00704*
X02494*
X02504Y00694*
Y00675*
X02494Y00665*
X02504Y00645D02*
Y00625D01*
Y00635*
X02445*
X02455Y00645*
X02619Y0063D02*
X02629Y0062D01*
Y006*
X02619Y0059*
X0258*
X0257Y006*
Y0062*
X0258Y0063*
X0257Y00689D02*
Y0065D01*
X0261Y00689*
X02619*
X02629Y00679*
Y00659*
X02619Y0065*
X00156Y02593D02*
Y02652D01*
X00126*
X00116Y02642*
Y02622*
X00126Y02612*
X00156*
X00096Y02652D02*
X00056D01*
Y02642*
X00096Y02603*
Y02593*
G54D14*
X02502Y00665D02*
X02501Y00675D01*
X025Y00684*
X02497Y00694*
X02494Y00704*
X0249Y00713*
X02485Y00721*
X02479Y00729*
X02472Y00737*
X02464Y00744*
X02456Y0075*
X02448Y00755*
X02439Y00759*
X02429Y00762*
X02419Y00765*
X0241Y00766*
X024Y00767*
X02389Y00766*
X0238Y00765*
X0237Y00762*
X0236Y00759*
X02351Y00755*
X02343Y0075*
X02335Y00744*
X02327Y00737*
X0232Y00729*
X02314Y00721*
X02309Y00713*
X02305Y00704*
X02302Y00694*
X02299Y00684*
X02298Y00675*
X02297Y00665*
X02298Y00654*
X02299Y00645*
X02302Y00635*
X02305Y00625*
X02309Y00616*
X02314Y00608*
X0232Y006*
X02327Y00592*
X02335Y00585*
X02343Y00579*
X02351Y00574*
X0236Y0057*
X0237Y00567*
X0238Y00564*
X02389Y00563*
X024Y00562*
X0241Y00563*
X02419Y00564*
X02429Y00567*
X02439Y0057*
X02448Y00574*
X02456Y00579*
X02464Y00585*
X02472Y00592*
X02479Y006*
X02485Y00608*
X0249Y00616*
X02494Y00625*
X02497Y00635*
X025Y00645*
X02501Y00654*
X02502Y00665*
X0219Y0084D02*
Y0194D01*
Y0084D02*
X0242D01*
X0219Y0194D02*
X0242D01*
Y0084D02*
Y0194D01*
X02195Y0054D02*
X02225D01*
X02195D02*
Y0074D01*
X02255*
Y0054D02*
Y0074D01*
X02225Y0054D02*
X02255D01*
X02225Y0074D02*
Y00749D01*
Y00531D02*
Y0054D01*
X0273Y01665D02*
Y01695D01*
X0253Y01665D02*
X0273D01*
X0253D02*
Y01725D01*
X0273*
Y01695D02*
Y01725D01*
X02521Y01695D02*
X0253D01*
X0273D02*
X02739D01*
X02475Y0129D02*
Y01299D01*
Y01081D02*
Y0109D01*
X02445Y0129D02*
X02475D01*
X02445Y0109D02*
Y0129D01*
Y0109D02*
X02505D01*
Y0129*
X02475D02*
X02505D01*
X02725Y0091D02*
Y0094D01*
X02525Y0091D02*
X02725D01*
X02525D02*
Y0097D01*
X02725*
Y0094D02*
Y0097D01*
X02516Y0094D02*
X02525D01*
X02725D02*
X02734D01*
X02725Y0081D02*
Y0084D01*
X02525Y0081D02*
X02725D01*
X02525D02*
Y0087D01*
X02725*
Y0084D02*
Y0087D01*
X02516Y0084D02*
X02525D01*
X02725D02*
X02734D01*
X02663Y00517D02*
Y00762D01*
X02537Y00517D02*
X02663D01*
X02537Y00762D02*
X02663D01*
X02537Y00517D02*
Y00762D01*
X0025Y00505D02*
Y02505D01*
X0005Y00505D02*
Y02505D01*
X0025*
X0005Y00505D02*
X0025D01*
G54D15*
X02345Y00732D02*
Y00698D01*
X02328Y00715D02*
X02362D01*
X0023Y02521D02*
Y02555D01*
X00196Y02521*
X00188*
X0018Y0253*
Y02546*
X00188Y02555*
X0023Y0046D02*
X0018D01*
X00205Y00485*
Y00451*
X00188Y00435D02*
X0018Y00426D01*
Y0041*
X00188Y00401*
X00221*
X0023Y0041*
Y00426*
X00221Y00435*
X00188*
X00083Y0048D02*
X00075Y00471D01*
Y00455*
X00083Y00446*
X00091*
X001Y00455*
Y00463*
Y00455*
X00108Y00446*
X00116*
X00125Y00455*
Y00471*
X00116Y0048*
Y0043D02*
X00125Y00421D01*
Y00405*
X00116Y00396*
X00083*
X00075Y00405*
Y00421*
X00083Y0043*
X00091*
X001Y00421*
Y00396*
X00125Y02545D02*
Y02528D01*
Y02536*
X00075*
X00083Y02545*
G54D16*
X01681Y0065D02*
Y006D01*
X01647*
X01622Y00633D02*
X01606D01*
X01597Y00625*
Y006*
X01622*
X01631Y00608*
X01622Y00617*
X01597*
X01581Y006D02*
Y00633D01*
X01556*
X01547Y00625*
Y006*
X01497Y0065D02*
Y006D01*
X01522*
X01531Y00608*
Y00625*
X01522Y00633*
X01497*
X01481D02*
Y006D01*
Y00617*
X01472Y00625*
X01464Y00633*
X01456*
X01431D02*
Y00608D01*
X01422Y006*
X01397*
Y00592*
X01406Y00584*
X01414*
X01397Y006D02*
Y00633D01*
X01331Y0065D02*
X01297D01*
X01314*
Y006*
X01272Y00633D02*
X01256D01*
X01247Y00625*
Y006*
X01272*
X01281Y00608*
X01272Y00617*
X01247*
X01231Y00633D02*
Y00608D01*
X01222Y006*
X01197*
Y00592*
X01206Y00584*
X01214*
X01197Y006D02*
Y00633D01*
X01181Y006D02*
Y00633D01*
X01172*
X01164Y00625*
Y006*
Y00625*
X01156Y00633*
X01147Y00625*
Y006*
X01122Y00633D02*
X01106D01*
X01097Y00625*
Y006*
X01122*
X01131Y00608*
X01122Y00617*
X01097*
X01081Y006D02*
Y00633D01*
X01056*
X01047Y00625*
Y006*
X01031D02*
X01006D01*
X00997Y00608*
X01006Y00617*
X01022*
X01031Y00625*
X01022Y00633*
X00997*
X02891Y02526D02*
X02936D01*
Y02496*
X02906Y02473D02*
Y02458D01*
X02913Y02451*
X02936*
Y02473*
X02928Y02481*
X02921Y02473*
Y02451*
X02936Y02436D02*
X02906D01*
Y02413*
X02913Y02406*
X02936*
X02891Y02361D02*
X02936D01*
Y02383*
X02928Y02391*
X02913*
X02906Y02383*
Y02361*
Y02346D02*
X02936D01*
X02921*
X02913Y02338*
X02906Y02331*
Y02323*
Y02301D02*
X02928D01*
X02936Y02293*
Y02271*
X02943*
X02951Y02278*
Y02286*
X02936Y02271D02*
X02906D01*
X02891Y02211D02*
Y02181D01*
Y02196*
X02936*
X02906Y02158D02*
Y02143D01*
X02913Y02136*
X02936*
Y02158*
X02928Y02166*
X02921Y02158*
Y02136*
X02906Y02121D02*
X02928D01*
X02936Y02113*
Y02091*
X02943*
X02951Y02098*
Y02106*
X02936Y02091D02*
X02906D01*
X02936Y02076D02*
X02906D01*
Y02068*
X02913Y02061*
X02936*
X02913*
X02906Y02053*
X02913Y02046*
X02936*
X02906Y02023D02*
Y02008D01*
X02913Y02001*
X02936*
Y02023*
X02928Y02031*
X02921Y02023*
Y02001*
X02936Y01986D02*
X02906D01*
Y01963*
X02913Y01956*
X02936*
Y01941D02*
Y01918D01*
X02928Y01911*
X02921Y01918*
Y01933*
X02913Y01941*
X02906Y01933*
Y01911*
G54D59*
X02766Y02521D02*
X02846D01*
X02819*
X02766Y02467*
X02806Y02507*
X02846Y02467*
Y02427D02*
Y02401D01*
X02832Y02387*
X02806*
X02792Y02401*
Y02427*
X02806Y02441*
X02832*
X02846Y02427*
X02792Y02361D02*
X02846D01*
X02819*
X02806Y02347*
X02792Y02334*
Y02321*
Y02281D02*
X02846D01*
X02819*
X02806Y02267*
X02792Y02254*
Y02241*
X02846Y02161D02*
Y02187D01*
X02832Y02201*
X02806*
X02792Y02187*
Y02161*
X02806Y02147*
X02819*
Y02201*
X02766Y02121D02*
X02846D01*
X02819*
X02766Y02067*
X02806Y02107*
X02846Y02067*
X02779Y02027D02*
X02792D01*
Y02041*
Y02014*
Y02027*
X02832*
X02846Y02014*
X02766Y01974D02*
X02846D01*
X02806*
X02792Y01961*
Y01934*
X02806Y01921*
X02846*
Y01881D02*
Y01854D01*
X02832Y01841*
X02806*
X02792Y01854*
Y01881*
X02806Y01894*
X02832*
X02846Y01881*
X02792Y01814D02*
X02846D01*
X02819*
X02806Y01801*
X02792Y01787*
Y01774*
G54D60*
X01682Y00832D02*
Y00733D01*
Y00766*
X01615Y00832*
X01665Y00782*
X01615Y00733*
X01565D02*
X01532D01*
X01515Y00749*
Y00782*
X01532Y00799*
X01565*
X01582Y00782*
Y00749*
X01565Y00733*
X01482Y00799D02*
Y00733D01*
Y00766*
X01465Y00782*
X01448Y00799*
X01432*
X01382D02*
Y00733D01*
Y00766*
X01365Y00782*
X01348Y00799*
X01332*
X01232Y00733D02*
X01265D01*
X01282Y00749*
Y00782*
X01265Y00799*
X01232*
X01215Y00782*
Y00766*
X01282*
X01182Y00832D02*
Y00733D01*
Y00766*
X01115Y00832*
X01165Y00782*
X01115Y00733*
X01065Y00816D02*
Y00799D01*
X01082*
X01048*
X01065*
Y00749*
X01048Y00733*
X00998Y00832D02*
Y00733D01*
Y00782*
X00982Y00799*
X00948*
X00932Y00782*
Y00733*
X00882D02*
X00848D01*
X00832Y00749*
Y00782*
X00848Y00799*
X00882*
X00898Y00782*
Y00749*
X00882Y00733*
X00798Y00799D02*
Y00733D01*
Y00766*
X00782Y00782*
X00765Y00799*
X00748*
M02*