%FSTAX23Y23*%
%MOIN*%
%SFA1B1*%

%IPPOS*%
%ADD37C,0.015000*%
%ADD38C,0.025000*%
%ADD39C,0.052000*%
%ADD40R,0.059370X0.059370*%
%ADD41C,0.059370*%
%ADD42C,0.035000*%
%ADD43C,0.051180*%
%ADD44C,0.059060*%
%ADD45R,0.059060X0.059060*%
%ADD46C,0.055120*%
%ADD47C,0.058980*%
%ADD48R,0.058980X0.058980*%
%ADD49C,0.047240*%
%ADD50C,0.120000*%
%ADD51R,0.078740X0.078740*%
%ADD52C,0.078740*%
%ADD53R,0.076770X0.076770*%
%ADD54C,0.076770*%
%ADD55R,0.059060X0.059060*%
%ADD56O,0.118110X0.059060*%
%ADD57C,0.050000*%
%LNmergepcb-1*%
%LPD*%
G36*
X0205Y00055D02*
X0005D01*
Y00427*
X00054Y00429*
X00413Y0007*
Y0007*
X00419Y00066*
X00426Y00065*
X01157*
X01164Y00066*
X0117Y0007*
X01205Y00105*
X01209Y00111*
X0121Y00116*
X01215Y00118*
X01224Y00123*
X01231Y0013*
X01236Y00139*
X01239Y00149*
Y0016*
X01236Y0017*
X01231Y00179*
X01224Y00186*
X01215Y00191*
X01205Y00194*
X01194*
X01184Y00191*
X01175Y00186*
X01168Y00179*
X01163Y0017*
X0116Y0016*
Y00149*
X01163Y00139*
X01168Y0013*
X01174Y00124*
X0115Y001*
X00433*
X00423Y0011*
X00425Y00115*
X00489*
Y00194*
X0041*
Y0013*
X00405Y00128*
X00057Y00476*
Y0054*
X00062Y0054*
X00063Y00539*
X00068Y0053*
X00075Y00523*
X00084Y00518*
X00094Y00515*
X00105*
X00115Y00518*
X00124Y00523*
X00131Y0053*
X00136Y00539*
X00139Y00549*
Y0056*
X00136Y0057*
X00131Y00579*
X00124Y00586*
X00115Y00591*
X00105Y00594*
X00094*
X00084Y00591*
X00075Y00586*
X00068Y00579*
X00063Y0057*
X00062Y00569*
X00057Y00569*
Y0064*
X00062Y0064*
X00063Y00639*
X00068Y0063*
X00075Y00623*
X00084Y00618*
X00094Y00615*
X00105*
X00115Y00618*
X00124Y00623*
X00131Y0063*
X00136Y00639*
X00139Y00649*
Y0066*
X00136Y0067*
X00131Y00679*
X00124Y00686*
X00115Y00691*
X00105Y00694*
X00094*
X00084Y00691*
X00075Y00686*
X00068Y00679*
X00063Y0067*
X00062Y00669*
X00057Y00669*
Y0074*
X00062Y0074*
X00063Y00739*
X00068Y0073*
X00075Y00723*
X00084Y00718*
X00094Y00715*
X00105*
X00115Y00718*
X00124Y00723*
X00131Y0073*
X00136Y00739*
X00139Y00749*
Y0076*
X00136Y0077*
X00131Y00779*
X00124Y00786*
X00115Y00791*
X00105Y00794*
X00094*
X00084Y00791*
X00075Y00786*
X00068Y00779*
X00063Y0077*
X00062Y00769*
X00057Y00769*
Y0084*
X00062Y0084*
X00063Y00839*
X00068Y0083*
X00075Y00823*
X00084Y00818*
X00094Y00815*
X00105*
X00115Y00818*
X00124Y00823*
X00131Y0083*
X00136Y00839*
X00139Y00849*
Y0086*
X00136Y0087*
X00131Y00879*
X00124Y00886*
X00115Y00891*
X00105Y00894*
X00094*
X00084Y00891*
X00075Y00886*
X00068Y00879*
X00063Y0087*
X00062Y00869*
X00057Y00869*
Y0094*
X00062Y0094*
X00063Y00939*
X00068Y0093*
X00075Y00923*
X00084Y00918*
X00094Y00915*
X00105*
X00115Y00918*
X00124Y00923*
X00131Y0093*
X00136Y00939*
X00139Y00949*
Y0096*
X00136Y0097*
X00131Y00979*
X00124Y00986*
X00115Y00991*
X00105Y00994*
X00094*
X00084Y00991*
X00075Y00986*
X00068Y00979*
X00063Y0097*
X00062Y00969*
X00057Y00969*
Y0104*
X00062Y0104*
X00063Y01039*
X00068Y0103*
X00075Y01023*
X00084Y01018*
X00094Y01015*
X00105*
X00115Y01018*
X00124Y01023*
X0013Y01029*
X00135Y01028*
X00139Y01022*
X00167Y00994*
X00173Y0099*
X00174Y00985*
X00168Y00979*
X00163Y0097*
X0016Y0096*
Y00949*
X00163Y00939*
X00168Y0093*
X00175Y00923*
X00184Y00918*
X00194Y00915*
X00205*
X00215Y00918*
X00224Y00923*
X00231Y0093*
X00236Y00939*
X00239Y00949*
Y0096*
X00236Y0097*
X00231Y00979*
X00226Y00984*
X00228Y00989*
X00472*
X00532Y00929*
Y0019*
X00525Y00186*
X00518Y00179*
X00513Y0017*
X0051Y0016*
Y00149*
X00513Y00139*
X00518Y0013*
X00525Y00123*
X00534Y00118*
X00544Y00115*
X00555*
X00565Y00118*
X00574Y00123*
X00581Y0013*
X00586Y00139*
X00589Y00149*
Y0016*
X00586Y0017*
X00581Y00179*
X00574Y00186*
X00567Y0019*
Y00937*
X00566Y00943*
X00562Y00949*
X00502Y01009*
X00504Y01014*
X00759*
X00765Y01015*
X00771Y01019*
X00981Y01229*
X00985Y01235*
X00986Y01242*
Y01666*
X01006Y01686*
X0101Y01683*
X01004Y01673*
X01001Y0166*
Y01648*
X01004Y01635*
X01011Y01624*
X0102Y01615*
X01031Y01609*
X01043Y01606*
X01056*
X01063Y01608*
X01197Y01475*
Y00884*
X00822Y0051*
X00815*
X00806Y00507*
X00798Y00503*
X00791Y00496*
X00787Y00488*
X00785Y00479*
Y0047*
X00787Y00461*
X00791Y00453*
X00798Y00446*
X00806Y00442*
X00815Y0044*
X00824*
X00833Y00442*
X00841Y00446*
X00848Y00453*
X00852Y00461*
X00855Y0047*
Y00477*
X01236Y00858*
X01241Y00866*
X01242Y00875*
Y01484*
X01241Y01493*
X01236Y015*
X01096Y0164*
X01098Y01648*
Y0166*
X01095Y01673*
X01088Y01684*
X01079Y01693*
X01068Y01699*
X01056Y01702*
X01043*
X01031Y01699*
X01021Y01693*
X01018Y01697*
X01606Y02286*
X0161Y02283*
X01604Y02273*
X01601Y0226*
Y02248*
X01604Y02235*
X01611Y02224*
X0162Y02215*
X01631Y02209*
X01643Y02206*
X01656*
X01663Y02208*
X01737Y02135*
Y01295*
X01738Y01286*
X01743Y01278*
X01916Y01105*
X01924Y011*
X01932Y01099*
X01939*
X01941Y01094*
X01733Y00886*
X01728Y00878*
X01727Y0087*
Y00194*
X0171*
Y00115*
X01789*
Y00194*
X01772*
Y0086*
X01977Y01065*
X02024*
Y01144*
X0197*
X01967Y01144*
X01942*
X01782Y01304*
Y02144*
X01781Y02153*
X01776Y0216*
X01696Y0224*
X01698Y02248*
Y0226*
X01695Y02273*
X01688Y02284*
X01679Y02293*
X01668Y02299*
X01656Y02302*
X01643*
X01631Y02299*
X01621Y02293*
X01618Y02297*
X01837Y02517*
X01844Y02515*
X01855*
X01865Y02518*
X01874Y02523*
X01881Y0253*
X01886Y02539*
X01889Y02549*
Y0256*
X01886Y0257*
X01881Y02579*
X01874Y02586*
X01865Y02591*
X01855Y02594*
X01844*
X01834Y02591*
X01825Y02586*
X01818Y02579*
X01813Y0257*
X0181Y0256*
Y02549*
X01812Y02542*
X00956Y01686*
X00954Y01683*
X00949Y01685*
Y0176*
X00883*
X00842Y018*
Y02221*
X00883Y02261*
X00949*
Y0236*
X0085*
Y02293*
X00803Y02247*
X00798Y02239*
X00797Y0223*
Y02185*
X00792Y02183*
X0079Y02187*
X00783Y02194*
X00779Y02196*
Y02336*
X00858Y02415*
X01128*
X01134Y02416*
X0114Y0242*
X01237Y02517*
X01244Y02515*
X01255*
X01265Y02518*
X01274Y02523*
X01281Y0253*
X01286Y02539*
X01289Y02549*
Y0256*
X01286Y0257*
X01281Y02579*
X01274Y02586*
X01265Y02591*
X01255Y02594*
X01244*
X01234Y02591*
X01225Y02586*
X01218Y02579*
X01213Y0257*
X0121Y0256*
Y02549*
X01212Y02542*
X0112Y0245*
X00851*
X00844Y02449*
X00838Y02445*
X00749Y02356*
X00745Y0235*
X00744Y02344*
Y02198*
X00741Y02197*
X00736Y022*
Y02439*
X00767Y0247*
X01083*
X01089Y02471*
X01095Y02475*
X01137Y02517*
X01144Y02515*
X01155*
X01165Y02518*
X01174Y02523*
X01181Y0253*
X01186Y02539*
X01189Y02549*
Y0256*
X01186Y0257*
X01181Y02579*
X01174Y02586*
X01165Y02591*
X01155Y02594*
X01144*
X01134Y02591*
X01125Y02586*
X01118Y02579*
X01113Y0257*
X0111Y0256*
Y02549*
X01112Y02542*
X01075Y02505*
X0076*
X00753Y02504*
X00747Y025*
X00706Y02459*
X00702Y02453*
X00701Y02447*
Y02144*
X00701Y02142*
X00697Y02138*
X00689Y02141*
X00679Y02143*
X0062*
X0061Y02141*
X006Y02137*
X00595Y02134*
X0059Y02136*
Y0236*
X008Y0257*
X00903*
X00908Y02571*
X00911Y02568*
X00912Y02567*
X0091Y0256*
Y02549*
X00913Y02539*
X00918Y0253*
X00925Y02523*
X00934Y02518*
X00944Y02515*
X00955*
X00965Y02518*
X00974Y02523*
X00981Y0253*
X00986Y02539*
X00989Y02549*
Y0256*
X00986Y0257*
X00981Y02579*
X00981Y02579*
X00983Y02584*
X00995*
X01012Y02567*
X0101Y0256*
Y02549*
X01013Y02539*
X01018Y0253*
X01025Y02523*
X01034Y02518*
X01044Y02515*
X01055*
X01065Y02518*
X01074Y02523*
X01081Y0253*
X01086Y02539*
X01089Y02549*
Y0256*
X01086Y0257*
X01081Y02579*
X01074Y02586*
X01065Y02591*
X01055Y02594*
X01044*
X01037Y02592*
X01025Y02604*
X01027Y02609*
X0167*
X01712Y02567*
X0171Y0256*
Y02549*
X01713Y02539*
X01718Y0253*
X01725Y02523*
X01734Y02518*
X01744Y02515*
X01755*
X01765Y02518*
X01774Y02523*
X01781Y0253*
X01786Y02539*
X01789Y02549*
Y0256*
X01786Y0257*
X01781Y02579*
X01774Y02586*
X01765Y02591*
X01755Y02594*
X01744*
X01737Y02592*
X0169Y02639*
X01684Y02643*
X01677Y02644*
X00566*
X00559Y02643*
X00553Y02639*
X00501Y02588*
X00498Y02582*
X00496Y02575*
Y02452*
X00307Y02262*
X00303Y02257*
X00302Y02253*
X00297Y02254*
Y02287*
X00441Y02431*
X00445Y0243*
X00454*
X00463Y02432*
X00471Y02436*
X00478Y02443*
X00482Y02451*
X00485Y0246*
Y02469*
X00482Y02478*
X00478Y02486*
X00471Y02493*
X00463Y02497*
X00454Y025*
X00445*
X00436Y02497*
X00428Y02493*
X00421Y02486*
X00417Y02478*
X00415Y02469*
Y0246*
X00416Y02456*
X00267Y02307*
X00263Y02301*
X00262Y02295*
Y02142*
X00212Y02092*
X00205Y02094*
X00194*
X00184Y02091*
X00175Y02086*
X00168Y02079*
X00163Y0207*
X0016Y0206*
Y02049*
X00163Y02039*
X00168Y0203*
X00173Y02025*
X00171Y0202*
X00128*
X00126Y02025*
X00131Y0203*
X00136Y02039*
X00139Y02049*
Y0206*
X00136Y0207*
X00131Y02079*
X00124Y02086*
X00115Y02091*
X00105Y02094*
X00094*
X00084Y02091*
X00075Y02086*
X00074Y02085*
X00069Y02087*
Y02122*
X00074Y02124*
X00075Y02123*
X00084Y02118*
X00094Y02115*
X00105*
X00115Y02118*
X00124Y02123*
X00131Y0213*
X00136Y02139*
X00139Y02149*
Y0216*
X00136Y0217*
X00131Y02179*
X00124Y02186*
X00115Y02191*
X00105Y02194*
X00094*
X00084Y02191*
X00075Y02186*
X00074Y02185*
X00069Y02187*
Y02222*
X00074Y02224*
X00075Y02223*
X00084Y02218*
X00094Y02215*
X00105*
X00115Y02218*
X00124Y02223*
X00131Y0223*
X00136Y02239*
X00139Y02249*
Y0226*
X00136Y0227*
X00131Y02279*
X00124Y02286*
X00115Y02291*
X00105Y02294*
X00094*
X00084Y02291*
X00075Y02286*
X00074Y02285*
X00069Y02287*
Y02322*
X00074Y02324*
X00075Y02323*
X00084Y02318*
X00094Y02315*
X00105*
X00115Y02318*
X00124Y02323*
X00131Y0233*
X00136Y02339*
X00139Y02349*
Y0236*
X00136Y0237*
X00131Y02379*
X00124Y02386*
X00115Y02391*
X00105Y02394*
X00094*
X00084Y02391*
X00075Y02386*
X00074Y02385*
X00069Y02387*
Y02399*
X00085Y02415*
X00139*
Y02494*
X0006*
Y0244*
X00054Y02434*
X0005Y02436*
Y02705*
X0205*
Y00055*
G37*
G36*
X00783Y02608D02*
X00781Y02601D01*
X0078Y026*
X00694Y02514*
X00689Y02516*
Y02594*
X0061*
Y0254*
X0061Y02537*
Y02497*
X00363Y02251*
X00358Y02243*
X00357Y02235*
Y0114*
X00358Y01131*
X00363Y01123*
X00375Y01112*
Y01065*
X00454*
Y01144*
X00407*
X00402Y01149*
Y02225*
X00551Y02373*
X00555Y02371*
X00555Y02368*
Y01525*
X0047Y01441*
X00468Y01442*
X00459Y01444*
X0045*
X00441Y01442*
X00433Y01437*
X00426Y01431*
X00422Y01423*
X0042Y01414*
Y01405*
X00422Y01396*
X00426Y01388*
X00433Y01381*
X00441Y01376*
X0045Y01374*
X00459*
X00468Y01376*
X00476Y01381*
X00483Y01388*
X00487Y01396*
X0049Y01405*
Y0141*
X00576Y01497*
X00581Y01495*
X00581Y01493*
X00585Y01483*
X00592Y01475*
X006Y01468*
X0061Y01464*
X0062Y01463*
X00679*
X00689Y01464*
X00699Y01468*
X00707Y01475*
X00714Y01483*
X00718Y01493*
X00719Y01503*
X00718Y01513*
X00714Y01523*
X00707Y01531*
X00699Y01537*
X00689Y01541*
X00679Y01543*
X0062*
X0061Y01541*
X006Y01537*
X00595Y01534*
X0059Y01536*
Y01873*
X00595Y01875*
X006Y01872*
X0061Y01868*
X0062Y01866*
X00679*
X00689Y01868*
X00699Y01872*
X00707Y01878*
X00714Y01886*
X00718Y01896*
X00719Y01906*
X00718Y01916*
X00714Y01926*
X00707Y01934*
X00699Y01941*
X00689Y01945*
X00679Y01946*
X0062*
X0061Y01945*
X006Y01941*
X00595Y01937*
X0059Y01939*
Y01971*
X00595Y01974*
X006Y0197*
X0061Y01966*
X0062Y01965*
X00679*
X00689Y01966*
X00699Y0197*
X00707Y01976*
X00714Y01985*
X00718Y01994*
X00719Y02005*
X00718Y02015*
X00714Y02024*
X00707Y02033*
X00699Y02039*
X00689Y02043*
X00679Y02044*
X0062*
X0061Y02043*
X006Y02039*
X00595Y02035*
X0059Y02038*
Y0207*
X00595Y02072*
X006Y02068*
X0061Y02064*
X0062Y02063*
X00679*
X00689Y02064*
X00699Y02068*
X00707Y02075*
X00714Y02083*
X00718Y02093*
X00719Y02103*
X00718Y02112*
X00721Y02114*
X00722Y02115*
X0073Y02107*
Y01764*
X00726Y01762*
X00719Y01755*
X00715Y01747*
X00713Y01738*
Y01729*
X00715Y0172*
X00719Y01712*
X00726Y01705*
X00734Y01701*
X00743Y01699*
X00752*
X00761Y01701*
X00769Y01705*
X00776Y01712*
X0078Y0172*
X00783Y01729*
Y01738*
X0078Y01747*
X00776Y01755*
X00769Y01762*
X00765Y01764*
Y02115*
X00764Y02121*
X00761Y02126*
X00763Y0213*
X00764Y02131*
X00766*
X00775Y02133*
X00783Y02137*
X0079Y02144*
X00792Y02148*
X00797Y02146*
Y0179*
X00798Y01782*
X00803Y01774*
X0085Y01727*
Y01661*
X00946*
X00949*
X00951Y01657*
Y01318*
X00946Y01317*
X00946Y01318*
X00939Y01329*
X0093Y01338*
X00919Y01345*
X00906Y01348*
X00893*
X0088Y01345*
X00869Y01338*
X0086Y01329*
X00853Y01318*
X0085Y01305*
Y01292*
X00853Y0128*
X0086Y01268*
X00869Y01259*
X0088Y01253*
X00893Y01249*
X00906*
X00919Y01253*
X0093Y01259*
X00939Y01268*
X00946Y0128*
X00946Y0128*
X00951Y01279*
Y01249*
X00751Y01049*
X0033*
X00237Y01142*
X00239Y01149*
Y0116*
X00236Y0117*
X00231Y01179*
X00224Y01186*
X00215Y01191*
X00205Y01194*
X00194*
X00184Y01191*
X00175Y01186*
X00174Y01185*
X00169Y01187*
Y01222*
X00174Y01224*
X00175Y01223*
X00184Y01218*
X00194Y01215*
X00205*
X00215Y01218*
X00224Y01223*
X00231Y0123*
X00236Y01239*
X00239Y01249*
Y0126*
X00237Y01267*
X00332Y01362*
X00336Y01368*
X00337Y01375*
Y02242*
X00527Y02432*
X0053Y02437*
X00532Y02444*
Y02568*
X00573Y02609*
X00782*
X00783Y02608*
G37*
G36*
X03196Y0256D02*
X03195Y02559D01*
X03187Y02548*
X03182Y02535*
X0318Y02521*
Y02508*
X03182Y02494*
X03187Y02481*
X03195Y0247*
X03205Y0246*
X03216Y02452*
X03229Y02447*
X03243Y02445*
X03256*
X0327Y02447*
X03283Y02452*
X03294Y0246*
X03304Y0247*
X03312Y02481*
X03315Y02489*
X0332Y02488*
Y02243*
X03315Y02242*
X03314Y02243*
X03309Y02252*
X03302Y0226*
X03293Y02265*
X03283Y02268*
X03272*
X03262Y02265*
X03253Y0226*
X03246Y02252*
X03241Y02243*
X03238Y02233*
Y02223*
X03241Y02213*
X03246Y02204*
X03253Y02196*
X03262Y02191*
X03272Y02189*
X03283*
X03293Y02191*
X03302Y02196*
X03309Y02204*
X03314Y02213*
X03315Y02214*
X0332Y02213*
Y02066*
X03315Y02065*
X03314Y02066*
X03309Y02075*
X03302Y02083*
X03293Y02088*
X03283Y0209*
X03272*
X03262Y02088*
X03253Y02083*
X03246Y02075*
X03241Y02066*
X03238Y02056*
Y02046*
X03241Y02036*
X03246Y02027*
X03253Y02019*
X03262Y02014*
X03272Y02011*
X03283*
X03293Y02014*
X03302Y02019*
X03309Y02027*
X03314Y02036*
X03315Y02037*
X0332Y02036*
Y01743*
X03315Y01742*
X03314Y01743*
X03309Y01752*
X03302Y0176*
X03293Y01765*
X03283Y01768*
X03272*
X03262Y01765*
X03253Y0176*
X03246Y01752*
X03241Y01743*
X03238Y01733*
Y01723*
X03241Y01713*
X03246Y01704*
X03253Y01696*
X03262Y01691*
X03272Y01689*
X03283*
X03293Y01691*
X03302Y01696*
X03309Y01704*
X03314Y01713*
X03315Y01714*
X0332Y01713*
Y01566*
X03315Y01565*
X03314Y01566*
X03309Y01575*
X03302Y01583*
X03293Y01588*
X03283Y0159*
X03272*
X03262Y01588*
X03253Y01583*
X03246Y01575*
X03241Y01566*
X03238Y01556*
Y01546*
X03241Y01536*
X03246Y01527*
X03253Y01519*
X03262Y01514*
X03272Y01511*
X03283*
X03293Y01514*
X03302Y01519*
X03309Y01527*
X03314Y01536*
X03315Y01537*
X0332Y01536*
Y01243*
X03315Y01242*
X03314Y01243*
X03309Y01252*
X03302Y0126*
X03293Y01265*
X03283Y01268*
X03272*
X03262Y01265*
X03253Y0126*
X03246Y01252*
X03241Y01243*
X03238Y01233*
Y01223*
X03241Y01213*
X03246Y01204*
X03253Y01196*
X03262Y01191*
X03272Y01189*
X03283*
X03293Y01191*
X03302Y01196*
X03309Y01204*
X03314Y01213*
X03315Y01214*
X0332Y01213*
Y01066*
X03315Y01065*
X03314Y01066*
X03309Y01075*
X03302Y01083*
X03293Y01088*
X03283Y0109*
X03272*
X03262Y01088*
X03253Y01083*
X03246Y01075*
X03241Y01066*
X03238Y01056*
Y01046*
X03241Y01036*
X03246Y01027*
X03253Y01019*
X03262Y01014*
X03272Y01011*
X03283*
X03293Y01014*
X03302Y01019*
X03309Y01027*
X03314Y01036*
X03315Y01037*
X0332Y01036*
Y00743*
X03315Y00742*
X03314Y00743*
X03309Y00752*
X03302Y0076*
X03293Y00765*
X03283Y00768*
X03272*
X03262Y00765*
X03253Y0076*
X03246Y00752*
X03241Y00743*
X03238Y00733*
Y00723*
X03241Y00713*
X03246Y00704*
X03253Y00696*
X03262Y00691*
X03272Y00689*
X03283*
X03293Y00691*
X03302Y00696*
X03309Y00704*
X03314Y00713*
X03315Y00714*
X0332Y00713*
Y00566*
X03315Y00565*
X03314Y00566*
X03309Y00575*
X03302Y00583*
X03293Y00588*
X03283Y0059*
X03272*
X03262Y00588*
X03253Y00583*
X03246Y00575*
X03241Y00566*
X03238Y00556*
Y00546*
X03241Y00536*
X03246Y00527*
X03253Y00519*
X03262Y00514*
X03272Y00511*
X03283*
X03293Y00514*
X03302Y00519*
X03309Y00527*
X03314Y00536*
X03315Y00537*
X0332Y00536*
Y00291*
X03315Y00291*
X03312Y00298*
X03304Y00309*
X03294Y00319*
X03283Y00327*
X0327Y00332*
X03256Y00335*
X03243*
X03229Y00332*
X03216Y00327*
X03205Y00319*
X03195Y00309*
X03187Y00298*
X03182Y00285*
X0318Y00271*
Y00258*
X03182Y00244*
X03187Y00231*
X03195Y0022*
X03205Y0021*
X03216Y00202*
X03224Y002*
X03223Y00195*
X02276*
X02276Y002*
X02283Y00202*
X02294Y0021*
X02304Y0022*
X02312Y00231*
X02317Y00244*
X0232Y00258*
Y00271*
X02317Y00285*
X02312Y00298*
X02304Y00309*
X02294Y00319*
X02283Y00327*
X0227Y00332*
X02256Y00335*
X02243*
X02229Y00332*
X02216Y00327*
X02205Y00319*
X02195Y00309*
X02187Y00298*
X02185Y00291*
X0218Y00291*
Y02488*
X02185Y02489*
X02187Y02481*
X02195Y0247*
X02205Y0246*
X02216Y02452*
X02229Y02447*
X02243Y02445*
X02256*
X0227Y02447*
X02283Y02452*
X02294Y0246*
X02304Y0247*
X02312Y02481*
X02317Y02494*
X0232Y02508*
Y02521*
X02317Y02535*
X02312Y02548*
X02304Y02559*
X02303Y0256*
X02305Y02565*
X03194*
X03196Y0256*
G37*
G36*
X00302Y02131D02*
Y01952D01*
X00297Y0195*
X00232Y02015*
X00226Y02019*
X00225Y02024*
X00231Y0203*
X00236Y02039*
X00239Y02049*
Y0206*
X00237Y02067*
X00292Y02122*
X00296Y02128*
X00297Y02131*
X00302Y02131*
G37*
G36*
X00272Y01925D02*
Y01525D01*
X00269*
X0026Y01522*
X00252Y01518*
X00246Y01511*
X00241Y01503*
X00239Y01494*
Y01485*
X00241Y01476*
X00246Y01468*
X00252Y01462*
X0026Y01457*
X00269Y01455*
X00278*
X00287Y01457*
X00295Y01462*
X00297Y01464*
X00302Y01462*
Y01382*
X00212Y01292*
X00205Y01294*
X00194*
X00184Y01291*
X00175Y01286*
X00174Y01285*
X00169Y01287*
Y01322*
X00174Y01324*
X00175Y01323*
X00184Y01318*
X00194Y01315*
X00205*
X00215Y01318*
X00224Y01323*
X00231Y0133*
X00236Y01339*
X00239Y01349*
Y0136*
X00236Y0137*
X00231Y01379*
X00224Y01386*
X00215Y01391*
X00205Y01394*
X00194*
X00184Y01391*
X00175Y01386*
X00174Y01385*
X00169Y01387*
Y01422*
X00174Y01424*
X00175Y01423*
X00184Y01418*
X00194Y01415*
X00205*
X00215Y01418*
X00224Y01423*
X00231Y0143*
X00236Y01439*
X00239Y01449*
Y0146*
X00236Y0147*
X00231Y01479*
X00224Y01486*
X00215Y01491*
X00205Y01494*
X00194*
X00184Y01491*
X00175Y01486*
X00174Y01485*
X00169Y01487*
Y01522*
X00174Y01524*
X00175Y01523*
X00184Y01518*
X00194Y01515*
X00205*
X00215Y01518*
X00224Y01523*
X00231Y0153*
X00236Y01539*
X00239Y01549*
Y0156*
X00236Y0157*
X00231Y01579*
X00224Y01586*
X00215Y01591*
X00205Y01594*
X00194*
X00184Y01591*
X00175Y01586*
X00174Y01585*
X00169Y01587*
Y01622*
X00174Y01624*
X00175Y01623*
X00184Y01618*
X00194Y01615*
X00205*
X00215Y01618*
X00224Y01623*
X00231Y0163*
X00236Y01639*
X00239Y01649*
Y0166*
X00236Y0167*
X00231Y01679*
X00224Y01686*
X00215Y01691*
X00205Y01694*
X00194*
X00184Y01691*
X00175Y01686*
X00174Y01685*
X00169Y01687*
Y01722*
X00174Y01724*
X00175Y01723*
X00184Y01718*
X00194Y01715*
X00205*
X00215Y01718*
X00224Y01723*
X00231Y0173*
X00236Y01739*
X00239Y01749*
Y0176*
X00236Y0177*
X00231Y01779*
X00224Y01786*
X00215Y01791*
X00205Y01794*
X00194*
X00184Y01791*
X00175Y01786*
X00174Y01785*
X00169Y01787*
Y01822*
X00174Y01824*
X00175Y01823*
X00184Y01818*
X00194Y01815*
X00205*
X00215Y01818*
X00224Y01823*
X00231Y0183*
X00236Y01839*
X00239Y01849*
Y0186*
X00236Y0187*
X00231Y01879*
X00224Y01886*
X00215Y01891*
X00205Y01894*
X00194*
X00184Y01891*
X00175Y01886*
X00174Y01885*
X00169Y01887*
Y01899*
X00187Y01917*
X00194Y01915*
X00205*
X00215Y01918*
X00224Y01923*
X00231Y0193*
X00236Y01939*
X00239Y01949*
Y01951*
X00244Y01953*
X00272Y01925*
G37*
G36*
X00067Y0199D02*
X0007Y01988D01*
X00071Y01982*
X00068Y01979*
X00063Y0197*
X0006Y0196*
Y01949*
X00063Y01939*
X00068Y0193*
X00075Y01923*
X00084Y01918*
X00094Y01915*
X00105*
X00115Y01918*
X00124Y01923*
X00131Y0193*
X00136Y01939*
X00139Y01949*
Y0196*
X00136Y0197*
X00131Y01979*
X0013Y0198*
X00132Y01985*
X00167*
X00169Y0198*
X00168Y01979*
X00163Y0197*
X0016Y0196*
Y01949*
X00162Y01942*
X00139Y01919*
X00135Y01913*
X00134Y01907*
Y01883*
X00129Y01881*
X00124Y01886*
X00115Y01891*
X00105Y01894*
X00094*
X00084Y01891*
X00075Y01886*
X00068Y01879*
X00063Y0187*
X0006Y0186*
Y01849*
X00062Y01842*
X00054Y01834*
X0005Y01836*
Y02001*
X00054Y02003*
X00067Y0199*
G37*
G36*
X00063Y01739D02*
X00068Y0173D01*
X00075Y01723*
X00084Y01718*
X00094Y01715*
X00105*
X00115Y01718*
X00124Y01723*
X00129Y01728*
X00134Y01726*
Y01683*
X00129Y01681*
X00124Y01686*
X00115Y01691*
X00105Y01694*
X00094*
X00084Y01691*
X00075Y01686*
X00068Y01679*
X00063Y0167*
X00062Y01669*
X00057Y01669*
Y0174*
X00062Y0174*
X00063Y01739*
G37*
G36*
Y01639D02*
X00068Y0163D01*
X00075Y01623*
X00084Y01618*
X00094Y01615*
X00105*
X00115Y01618*
X00124Y01623*
X00129Y01628*
X00134Y01626*
Y01583*
X00129Y01581*
X00124Y01586*
X00115Y01591*
X00105Y01594*
X00094*
X00084Y01591*
X00075Y01586*
X00068Y01579*
X00063Y0157*
X00062Y01569*
X00057Y01569*
Y0164*
X00062Y0164*
X00063Y01639*
G37*
G36*
Y01539D02*
X00068Y0153D01*
X00075Y01523*
X00084Y01518*
X00094Y01515*
X00105*
X00115Y01518*
X00124Y01523*
X00129Y01528*
X00134Y01526*
Y01483*
X00129Y01481*
X00124Y01486*
X00115Y01491*
X00105Y01494*
X00094*
X00084Y01491*
X00075Y01486*
X00068Y01479*
X00063Y0147*
X00062Y01469*
X00057Y01469*
Y0154*
X00062Y0154*
X00063Y01539*
G37*
G36*
Y01439D02*
X00068Y0143D01*
X00075Y01423*
X00084Y01418*
X00094Y01415*
X00105*
X00115Y01418*
X00124Y01423*
X00129Y01428*
X00134Y01426*
Y01383*
X00129Y01381*
X00124Y01386*
X00115Y01391*
X00105Y01394*
X00094*
X00084Y01391*
X00075Y01386*
X00068Y01379*
X00063Y0137*
X00062Y01369*
X00057Y01369*
Y0144*
X00062Y0144*
X00063Y01439*
G37*
G36*
Y01339D02*
X00068Y0133D01*
X00075Y01323*
X00084Y01318*
X00094Y01315*
X00105*
X00115Y01318*
X00124Y01323*
X00129Y01328*
X00134Y01326*
Y01283*
X00129Y01281*
X00124Y01286*
X00115Y01291*
X00105Y01294*
X00094*
X00084Y01291*
X00075Y01286*
X00068Y01279*
X00063Y0127*
X00062Y01269*
X00057Y01269*
Y0134*
X00062Y0134*
X00063Y01339*
G37*
G36*
Y01239D02*
X00068Y0123D01*
X00075Y01223*
X00084Y01218*
X00094Y01215*
X00105*
X00115Y01218*
X00124Y01223*
X00129Y01228*
X00134Y01226*
Y01183*
X00129Y01181*
X00124Y01186*
X00115Y01191*
X00105Y01194*
X00094*
X00084Y01191*
X00075Y01186*
X00068Y01179*
X00063Y0117*
X00062Y01169*
X00057Y01169*
Y0124*
X00062Y0124*
X00063Y01239*
G37*
G36*
Y01139D02*
X00068Y0113D01*
X00075Y01123*
X00084Y01118*
X00094Y01115*
X00105*
X00115Y01118*
X00124Y01123*
X00129Y01128*
X00134Y01126*
Y01083*
X00129Y01081*
X00124Y01086*
X00115Y01091*
X00105Y01094*
X00094*
X00084Y01091*
X00075Y01086*
X00068Y01079*
X00063Y0107*
X00062Y01069*
X00057Y01069*
Y0114*
X00062Y0114*
X00063Y01139*
G37*
G36*
X00175Y01123D02*
X00184Y01118D01*
X00194Y01115*
X00205*
X00212Y01117*
X003Y01029*
X00298Y01024*
X00232*
X0023Y01029*
X00231Y0103*
X00236Y01039*
X00239Y01049*
Y0106*
X00236Y0107*
X00231Y01079*
X00224Y01086*
X00215Y01091*
X00205Y01094*
X00194*
X00184Y01091*
X00175Y01086*
X00174Y01085*
X00169Y01087*
Y01122*
X00174Y01124*
X00175Y01123*
G37*
%LNmergepcb-2*%
%LPC*%
G36*
X01989Y02594D02*
X0191D01*
Y02515*
X01989*
Y02594*
G37*
G36*
X01655D02*
X01644D01*
X01634Y02591*
X01625Y02586*
X01618Y02579*
X01613Y0257*
X0161Y0256*
Y02549*
X01613Y02539*
X01618Y0253*
X01625Y02523*
X01634Y02518*
X01644Y02515*
X01655*
X01665Y02518*
X01674Y02523*
X01681Y0253*
X01686Y02539*
X01689Y02549*
Y0256*
X01686Y0257*
X01681Y02579*
X01674Y02586*
X01665Y02591*
X01655Y02594*
G37*
G36*
X01555D02*
X01544D01*
X01534Y02591*
X01525Y02586*
X01518Y02579*
X01513Y0257*
X0151Y0256*
Y02549*
X01512Y02542*
X01355Y02385*
X01351Y02379*
X0135Y02373*
Y0219*
X01346Y02188*
X01339Y02181*
X01335Y02173*
X01333Y02164*
Y02155*
X01335Y02146*
X01339Y02138*
X01346Y02131*
X01354Y02127*
X01363Y02125*
X01372*
X01381Y02127*
X01389Y02131*
X01396Y02138*
X014Y02146*
X01403Y02155*
Y02164*
X014Y02173*
X01396Y02181*
X01389Y02188*
X01385Y0219*
Y02365*
X01537Y02517*
X01544Y02515*
X01555*
X01565Y02518*
X01574Y02523*
X01581Y0253*
X01586Y02539*
X01589Y02549*
Y0256*
X01586Y0257*
X01581Y02579*
X01574Y02586*
X01565Y02591*
X01555Y02594*
G37*
G36*
X01455D02*
X01444D01*
X01434Y02591*
X01425Y02586*
X01418Y02579*
X01413Y0257*
X0141Y0256*
Y02549*
X01412Y02542*
X01247Y02377*
X01243Y02371*
X01242Y02365*
Y02265*
X01238Y02263*
X01231Y02256*
X01227Y02248*
X01225Y02239*
Y0223*
X01227Y02221*
X01231Y02213*
X01238Y02206*
X01246Y02202*
X01255Y022*
X01264*
X01273Y02202*
X01281Y02206*
X01288Y02213*
X01292Y02221*
X01295Y0223*
Y02239*
X01292Y02248*
X01288Y02256*
X01281Y02263*
X01277Y02265*
Y02357*
X01437Y02517*
X01444Y02515*
X01455*
X01465Y02518*
X01474Y02523*
X01481Y0253*
X01486Y02539*
X01489Y02549*
Y0256*
X01486Y0257*
X01481Y02579*
X01474Y02586*
X01465Y02591*
X01455Y02594*
G37*
G36*
X01355D02*
X01344D01*
X01334Y02591*
X01325Y02586*
X01318Y02579*
X01313Y0257*
X0131Y0256*
Y02549*
X01313Y02539*
X01318Y0253*
X01325Y02523*
X01334Y02518*
X01344Y02515*
X01355*
X01365Y02518*
X01374Y02523*
X01381Y0253*
X01386Y02539*
X01389Y02549*
Y0256*
X01386Y0257*
X01381Y02579*
X01374Y02586*
X01365Y02591*
X01355Y02594*
G37*
G36*
X00455D02*
X00444D01*
X00434Y02591*
X00425Y02586*
X00418Y02579*
X00413Y0257*
X0041Y0256*
Y02549*
X00413Y02539*
X00418Y0253*
X00425Y02523*
X00434Y02518*
X00444Y02515*
X00455*
X00465Y02518*
X00474Y02523*
X00481Y0253*
X00486Y02539*
X00489Y02549*
Y0256*
X00486Y0257*
X00481Y02579*
X00474Y02586*
X00465Y02591*
X00455Y02594*
G37*
G36*
X00205Y02494D02*
X00194D01*
X00184Y02491*
X00175Y02486*
X00168Y02479*
X00163Y0247*
X0016Y0246*
Y02449*
X00163Y02439*
X00168Y0243*
X00175Y02423*
X00182Y02419*
Y0239*
X00175Y02386*
X00168Y02379*
X00163Y0237*
X0016Y0236*
Y02349*
X00163Y02339*
X00168Y0233*
X00175Y02323*
X00184Y02318*
X00194Y02315*
X00205*
X00215Y02318*
X00224Y02323*
X00231Y0233*
X00236Y02339*
X00239Y02349*
Y0236*
X00236Y0237*
X00231Y02379*
X00224Y02386*
X00217Y0239*
Y02419*
X00224Y02423*
X00231Y0243*
X00236Y02439*
X00239Y02449*
Y0246*
X00236Y0247*
X00231Y02479*
X00224Y02486*
X00215Y02491*
X00205Y02494*
G37*
G36*
Y02294D02*
X00194D01*
X00184Y02291*
X00175Y02286*
X00168Y02279*
X00163Y0227*
X0016Y0226*
Y02249*
X00163Y02239*
X00168Y0223*
X00175Y02223*
X00184Y02218*
X00194Y02215*
X00205*
X00215Y02218*
X00224Y02223*
X00231Y0223*
X00236Y02239*
X00239Y02249*
Y0226*
X00236Y0227*
X00231Y02279*
X00224Y02286*
X00215Y02291*
X00205Y02294*
G37*
G36*
X01056Y02302D02*
X01043D01*
X01031Y02299*
X0102Y02293*
X01011Y02284*
X01004Y02273*
X01001Y0226*
Y02248*
X01004Y02235*
X01011Y02224*
X0102Y02215*
X01031Y02209*
X01043Y02206*
X01056*
X01068Y02209*
X01079Y02215*
X01088Y02224*
X01095Y02235*
X01098Y02248*
Y0226*
X01095Y02273*
X01088Y02284*
X01079Y02293*
X01068Y02299*
X01056Y02302*
G37*
G36*
X01905Y02244D02*
X01894D01*
X01884Y02241*
X01875Y02236*
X01868Y02229*
X01863Y0222*
X0186Y0221*
Y02199*
X01863Y02189*
X01868Y0218*
X01875Y02173*
X01884Y02168*
X01894Y02165*
X01905*
X01915Y02168*
X01924Y02173*
X01931Y0218*
X01936Y02189*
X01939Y02199*
Y0221*
X01936Y0222*
X01931Y02229*
X01924Y02236*
X01915Y02241*
X01905Y02244*
G37*
G36*
X00205Y02194D02*
X00194D01*
X00184Y02191*
X00175Y02186*
X00168Y02179*
X00163Y0217*
X0016Y0216*
Y02149*
X00163Y02139*
X00168Y0213*
X00175Y02123*
X00184Y02118*
X00194Y02115*
X00205*
X00215Y02118*
X00224Y02123*
X00231Y0213*
X00236Y02139*
X00239Y02149*
Y0216*
X00236Y0217*
X00231Y02179*
X00224Y02186*
X00215Y02191*
X00205Y02194*
G37*
G36*
X01939Y02044D02*
X0186D01*
Y01965*
X01939*
Y02044*
G37*
G36*
X01556Y02003D02*
X01543D01*
X01531Y02*
X0152Y01994*
X01511Y01985*
X01504Y01974*
X01501Y01961*
Y01949*
X01504Y01936*
X01511Y01925*
X0152Y01916*
X01531Y0191*
X01543Y01907*
X01556*
X01568Y0191*
X01579Y01916*
X01588Y01925*
X01595Y01936*
X01598Y01949*
Y01961*
X01595Y01974*
X01588Y01985*
X01579Y01994*
X01568Y02*
X01556Y02003*
G37*
G36*
X01098D02*
X01001D01*
Y01907*
X01098*
Y02003*
G37*
G36*
X00906Y01948D02*
X00893D01*
X0088Y01945*
X00869Y01938*
X0086Y01929*
X00853Y01918*
X0085Y01905*
Y01892*
X00853Y0188*
X0086Y01868*
X00869Y01859*
X0088Y01853*
X00893Y01849*
X00906*
X00919Y01853*
X0093Y01859*
X00939Y01868*
X00946Y0188*
X00949Y01892*
Y01905*
X00946Y01918*
X00939Y01929*
X0093Y01938*
X00919Y01945*
X00906Y01948*
G37*
G36*
X01656Y01702D02*
X01643D01*
X01631Y01699*
X0162Y01693*
X01611Y01684*
X01604Y01673*
X01601Y0166*
Y01648*
X01604Y01635*
X01611Y01624*
X0162Y01615*
X01631Y01609*
X01643Y01606*
X01656*
X01668Y01609*
X01679Y01615*
X01688Y01624*
X01695Y01635*
X01698Y01648*
Y0166*
X01695Y01673*
X01688Y01684*
X01679Y01693*
X01668Y01699*
X01656Y01702*
G37*
G36*
X01905Y01644D02*
X01894D01*
X01884Y01641*
X01875Y01636*
X01868Y01629*
X01863Y0162*
X0186Y0161*
Y01599*
X01863Y01589*
X01868Y0158*
X01875Y01573*
X01884Y01568*
X01894Y01565*
X01905*
X01915Y01568*
X01924Y01573*
X01931Y0158*
X01936Y01589*
X01939Y01599*
Y0161*
X01936Y0162*
X01931Y01629*
X01924Y01636*
X01915Y01641*
X01905Y01644*
G37*
G36*
X01939Y01444D02*
X0186D01*
Y01365*
X01939*
Y01444*
G37*
G36*
X01556Y01403D02*
X01543D01*
X01531Y014*
X0152Y01394*
X01511Y01385*
X01504Y01374*
X01501Y01361*
Y01349*
X01504Y01336*
X01511Y01325*
X0152Y01316*
X01531Y0131*
X01543Y01307*
X01556*
X01568Y0131*
X01579Y01316*
X01588Y01325*
X01595Y01336*
X01598Y01349*
Y01361*
X01595Y01374*
X01588Y01385*
X01579Y01394*
X01568Y014*
X01556Y01403*
G37*
G36*
X01098D02*
X01001D01*
Y01307*
X01098*
Y01403*
G37*
G36*
X00205Y00894D02*
X00194D01*
X00184Y00891*
X00175Y00886*
X00168Y00879*
X00163Y0087*
X0016Y0086*
Y00849*
X00163Y00839*
X00168Y0083*
X00175Y00823*
X00184Y00818*
X00194Y00815*
X00205*
X00215Y00818*
X00224Y00823*
X00231Y0083*
X00236Y00839*
X00239Y00849*
Y0086*
X00236Y0087*
X00231Y00879*
X00224Y00886*
X00215Y00891*
X00205Y00894*
G37*
G36*
Y00794D02*
X00194D01*
X00184Y00791*
X00175Y00786*
X00168Y00779*
X00163Y0077*
X0016Y0076*
Y00749*
X00163Y00739*
X00168Y0073*
X00175Y00723*
X00184Y00718*
X00194Y00715*
X00205*
X00215Y00718*
X00224Y00723*
X00231Y0073*
X00236Y00739*
X00239Y00749*
Y0076*
X00236Y0077*
X00231Y00779*
X00224Y00786*
X00215Y00791*
X00205Y00794*
G37*
G36*
Y00694D02*
X00194D01*
X00184Y00691*
X00175Y00686*
X00168Y00679*
X00163Y0067*
X0016Y0066*
Y00649*
X00163Y00639*
X00168Y0063*
X00175Y00623*
X00184Y00618*
X00194Y00615*
X00205*
X00215Y00618*
X00224Y00623*
X00231Y0063*
X00236Y00639*
X00239Y00649*
Y0066*
X00236Y0067*
X00231Y00679*
X00224Y00686*
X00215Y00691*
X00205Y00694*
G37*
G36*
Y00594D02*
X00194D01*
X00184Y00591*
X00175Y00586*
X00168Y00579*
X00163Y0057*
X0016Y0056*
Y00549*
X00163Y00539*
X00168Y0053*
X00175Y00523*
X00184Y00518*
X00194Y00515*
X00205*
X00215Y00518*
X00224Y00523*
X00231Y0053*
X00236Y00539*
X00239Y00549*
Y0056*
X00236Y0057*
X00231Y00579*
X00224Y00586*
X00215Y00591*
X00205Y00594*
G37*
G36*
X0199Y00444D02*
X01979D01*
X01969Y00441*
X0196Y00436*
X01953Y00429*
X01948Y0042*
X01945Y0041*
Y00399*
X01948Y00389*
X01953Y0038*
X0196Y00373*
X01969Y00368*
X01979Y00365*
X0199*
X02Y00368*
X02009Y00373*
X02016Y0038*
X02021Y00389*
X02024Y00399*
Y0041*
X02021Y0042*
X02016Y00429*
X02009Y00436*
X02Y00441*
X0199Y00444*
G37*
G36*
X0042D02*
X00409D01*
X00399Y00441*
X0039Y00436*
X00383Y00429*
X00378Y0042*
X00375Y0041*
Y00399*
X00378Y00389*
X00383Y0038*
X0039Y00373*
X00399Y00368*
X00409Y00365*
X0042*
X0043Y00368*
X00439Y00373*
X00446Y0038*
X00451Y00389*
X00454Y00399*
Y0041*
X00451Y0042*
X00446Y00429*
X00439Y00436*
X0043Y00441*
X0042Y00444*
G37*
G36*
X01955Y00194D02*
X01944D01*
X01934Y00191*
X01925Y00186*
X01918Y00179*
X01913Y0017*
X0191Y0016*
Y00149*
X01913Y00139*
X01918Y0013*
X01925Y00123*
X01934Y00118*
X01944Y00115*
X01955*
X01965Y00118*
X01974Y00123*
X01981Y0013*
X01986Y00139*
X01989Y00149*
Y0016*
X01986Y0017*
X01981Y00179*
X01974Y00186*
X01965Y00191*
X01955Y00194*
G37*
G36*
X01855D02*
X01844D01*
X01834Y00191*
X01825Y00186*
X01818Y00179*
X01813Y0017*
X0181Y0016*
Y00149*
X01813Y00139*
X01818Y0013*
X01825Y00123*
X01834Y00118*
X01844Y00115*
X01855*
X01865Y00118*
X01874Y00123*
X01881Y0013*
X01886Y00139*
X01889Y00149*
Y0016*
X01886Y0017*
X01881Y00179*
X01874Y00186*
X01865Y00191*
X01855Y00194*
G37*
G36*
X01305D02*
X01294D01*
X01284Y00191*
X01275Y00186*
X01268Y00179*
X01263Y0017*
X0126Y0016*
Y00149*
X01263Y00139*
X01268Y0013*
X01275Y00123*
X01284Y00118*
X01294Y00115*
X01305*
X01315Y00118*
X01324Y00123*
X01331Y0013*
X01336Y00139*
X01339Y00149*
Y0016*
X01336Y0017*
X01331Y00179*
X01324Y00186*
X01315Y00191*
X01305Y00194*
G37*
G36*
X01139D02*
X0106D01*
Y00115*
X01139*
Y00194*
G37*
G36*
X00655D02*
X00644D01*
X00634Y00191*
X00625Y00186*
X00618Y00179*
X00613Y0017*
X0061Y0016*
Y00149*
X00613Y00139*
X00618Y0013*
X00625Y00123*
X00634Y00118*
X00644Y00115*
X00655*
X00665Y00118*
X00674Y00123*
X00681Y0013*
X00686Y00139*
X00689Y00149*
Y0016*
X00686Y0017*
X00681Y00179*
X00674Y00186*
X00665Y00191*
X00655Y00194*
G37*
G36*
X00454Y02192D02*
X00445D01*
X00435Y0219*
X00426Y02185*
X00419Y02178*
X00415Y02169*
X00412Y02159*
Y0215*
X00415Y0214*
X00419Y02131*
X00426Y02124*
X00435Y0212*
X00445Y02117*
X00454*
X00464Y0212*
X00473Y02124*
X0048Y02131*
X00485Y0214*
X00487Y0215*
Y02159*
X00485Y02169*
X0048Y02178*
X00473Y02185*
X00464Y0219*
X00454Y02192*
G37*
G36*
Y01892D02*
X00445D01*
X00435Y0189*
X00426Y01885*
X00419Y01878*
X00415Y01869*
X00412Y01859*
Y0185*
X00415Y0184*
X00419Y01831*
X00426Y01824*
X00435Y0182*
X00445Y01817*
X00454*
X00464Y0182*
X00473Y01824*
X0048Y01831*
X00485Y0184*
X00487Y0185*
Y01859*
X00485Y01869*
X0048Y01878*
X00473Y01885*
X00464Y0189*
X00454Y01892*
G37*
G36*
Y01592D02*
X00445D01*
X00435Y0159*
X00426Y01585*
X00419Y01578*
X00415Y01569*
X00412Y01559*
Y0155*
X00415Y0154*
X00419Y01531*
X00426Y01524*
X00435Y0152*
X00445Y01517*
X00454*
X00464Y0152*
X00473Y01524*
X0048Y01531*
X00485Y0154*
X00487Y0155*
Y01559*
X00485Y01569*
X0048Y01578*
X00473Y01585*
X00464Y0159*
X00454Y01592*
G37*
G36*
X00679Y01444D02*
X0062D01*
X0061Y01443*
X006Y01439*
X00592Y01433*
X00585Y01424*
X00581Y01415*
X0058Y01405*
X00581Y01394*
X00585Y01385*
X00592Y01376*
X006Y0137*
X0061Y01366*
X0062Y01365*
X00679*
X00689Y01366*
X00699Y0137*
X00707Y01376*
X00714Y01385*
X00718Y01394*
X00719Y01405*
X00718Y01415*
X00714Y01424*
X00707Y01433*
X00699Y01439*
X00689Y01443*
X00679Y01444*
G37*
G36*
Y01346D02*
X0062D01*
X0061Y01345*
X006Y01341*
X00592Y01334*
X00585Y01326*
X00581Y01316*
X0058Y01306*
X00581Y01296*
X00585Y01286*
X00592Y01278*
X006Y01272*
X0061Y01268*
X0062Y01266*
X00679*
X00689Y01268*
X00699Y01272*
X00707Y01278*
X00714Y01286*
X00718Y01296*
X00719Y01306*
X00718Y01316*
X00714Y01326*
X00707Y01334*
X00699Y01341*
X00689Y01345*
X00679Y01346*
G37*
G36*
X00454Y01292D02*
X00445D01*
X00435Y0129*
X00426Y01285*
X00419Y01278*
X00415Y01269*
X00412Y01259*
Y0125*
X00415Y0124*
X00419Y01231*
X00426Y01224*
X00435Y0122*
X00445Y01217*
X00454*
X00464Y0122*
X00473Y01224*
X0048Y01231*
X00485Y0124*
X00487Y0125*
Y01259*
X00485Y01269*
X0048Y01278*
X00473Y01285*
X00464Y0129*
X00454Y01292*
G37*
G36*
X02704Y02375D02*
X02695D01*
X02686Y02373*
X02678Y02368*
X02671Y02361*
X02666Y02353*
X02664Y02344*
Y02335*
X02666Y02326*
X02671Y02318*
X02678Y02311*
X02686Y02306*
X02695Y02304*
X02704*
X02713Y02306*
X02721Y02311*
X02728Y02318*
X02733Y02326*
X02735Y02335*
Y02344*
X02733Y02353*
X02728Y02361*
X02721Y02368*
X02713Y02373*
X02704Y02375*
G37*
G36*
X02454D02*
X02445D01*
X02436Y02373*
X02428Y02368*
X02421Y02361*
X02416Y02353*
X02414Y02344*
Y02335*
X02416Y02326*
X02421Y02318*
X02428Y02311*
X02436Y02306*
X02445Y02304*
X02454*
X02463Y02306*
X02471Y02311*
X02478Y02318*
X02483Y02326*
X02485Y02335*
Y02344*
X02483Y02353*
X02478Y02361*
X02471Y02368*
X02463Y02373*
X02454Y02375*
G37*
G36*
X03061Y02268D02*
X02982D01*
Y02189*
X03061*
Y02268*
G37*
G36*
X03027Y0209D02*
X03016D01*
X03006Y02088*
X02997Y02083*
X0299Y02075*
X02985Y02066*
X02982Y02056*
Y02046*
X02985Y02036*
X0299Y02027*
X02997Y02019*
X03006Y02014*
X03016Y02011*
X03027*
X03037Y02014*
X03046Y02019*
X03053Y02027*
X03058Y02036*
X03061Y02046*
Y02056*
X03058Y02066*
X03053Y02075*
X03046Y02083*
X03037Y02088*
X03027Y0209*
G37*
G36*
X02664Y01979D02*
X02585D01*
Y019*
X02664*
Y01979*
G37*
G36*
X02305Y01929D02*
X02294D01*
X02284Y01926*
X02275Y01921*
X02268Y01914*
X02263Y01905*
X0226Y01895*
Y01884*
X02263Y01874*
X02268Y01865*
X02275Y01858*
X02284Y01853*
X02294Y0185*
X02305*
X02315Y01853*
X02324Y01858*
X02331Y01865*
X02336Y01874*
X02339Y01884*
Y01895*
X02336Y01905*
X02331Y01914*
X02324Y01921*
X02315Y01926*
X02305Y01929*
G37*
G36*
X0263Y01879D02*
X02619D01*
X02609Y01876*
X026Y01871*
X02593Y01864*
X02588Y01855*
X02585Y01845*
Y01834*
X02588Y01824*
X02593Y01815*
X026Y01808*
X02609Y01803*
X02619Y018*
X0263*
X0264Y01803*
X02649Y01808*
X02656Y01815*
X02661Y01824*
X02664Y01834*
Y01845*
X02661Y01855*
X02656Y01864*
X02649Y01871*
X0264Y01876*
X0263Y01879*
G37*
G36*
X02305Y01829D02*
X02294D01*
X02284Y01826*
X02275Y01821*
X02268Y01814*
X02263Y01805*
X0226Y01795*
Y01784*
X02263Y01774*
X02268Y01765*
X02275Y01758*
X02284Y01753*
X02294Y0175*
X02305*
X02315Y01753*
X02324Y01758*
X02331Y01765*
X02336Y01774*
X02339Y01784*
Y01795*
X02336Y01805*
X02331Y01814*
X02324Y01821*
X02315Y01826*
X02305Y01829*
G37*
G36*
X03061Y01768D02*
X02982D01*
Y01689*
X03061*
Y01768*
G37*
G36*
X02784Y01732D02*
X02775D01*
X02765Y0173*
X02756Y01725*
X02749Y01718*
X02745Y01709*
X02742Y01699*
Y0169*
X02745Y0168*
X02749Y01671*
X02756Y01664*
X02765Y0166*
X02775Y01657*
X02784*
X02794Y0166*
X02803Y01664*
X0281Y01671*
X02815Y0168*
X02817Y0169*
Y01699*
X02815Y01709*
X0281Y01718*
X02803Y01725*
X02794Y0173*
X02784Y01732*
G37*
G36*
X02484D02*
X02475D01*
X02465Y0173*
X02456Y01725*
X02449Y01718*
X02445Y01709*
X02442Y01699*
Y0169*
X02445Y0168*
X02449Y01671*
X02456Y01664*
X02465Y0166*
X02475Y01657*
X02484*
X02494Y0166*
X02503Y01664*
X0251Y01671*
X02515Y0168*
X02517Y0169*
Y01699*
X02515Y01709*
X0251Y01718*
X02503Y01725*
X02494Y0173*
X02484Y01732*
G37*
G36*
X02305Y01729D02*
X02294D01*
X02284Y01726*
X02275Y01721*
X02268Y01714*
X02263Y01705*
X0226Y01695*
Y01684*
X02263Y01674*
X02268Y01665*
X02275Y01658*
X02284Y01653*
X02294Y0165*
X02305*
X02315Y01653*
X02324Y01658*
X02331Y01665*
X02336Y01674*
X02339Y01684*
Y01695*
X02336Y01705*
X02331Y01714*
X02324Y01721*
X02315Y01726*
X02305Y01729*
G37*
G36*
Y01629D02*
X02294D01*
X02284Y01626*
X02275Y01621*
X02268Y01614*
X02263Y01605*
X0226Y01595*
Y01584*
X02263Y01574*
X02268Y01565*
X02275Y01558*
X02284Y01553*
X02294Y0155*
X02305*
X02315Y01553*
X02324Y01558*
X02331Y01565*
X02336Y01574*
X02339Y01584*
Y01595*
X02336Y01605*
X02331Y01614*
X02324Y01621*
X02315Y01626*
X02305Y01629*
G37*
G36*
X03027Y0159D02*
X03016D01*
X03006Y01588*
X02997Y01583*
X0299Y01575*
X02985Y01566*
X02982Y01556*
Y01546*
X02985Y01536*
X0299Y01527*
X02997Y01519*
X03006Y01514*
X03016Y01511*
X03027*
X03037Y01514*
X03046Y01519*
X03053Y01527*
X03058Y01536*
X03061Y01546*
Y01556*
X03058Y01566*
X03053Y01575*
X03046Y01583*
X03037Y01588*
X03027Y0159*
G37*
G36*
X02305Y01529D02*
X02294D01*
X02284Y01526*
X02275Y01521*
X02268Y01514*
X02263Y01505*
X0226Y01495*
Y01484*
X02263Y01474*
X02268Y01465*
X02275Y01458*
X02284Y01453*
X02294Y0145*
X02305*
X02315Y01453*
X02324Y01458*
X02331Y01465*
X02336Y01474*
X02339Y01484*
Y01495*
X02336Y01505*
X02331Y01514*
X02324Y01521*
X02315Y01526*
X02305Y01529*
G37*
G36*
Y01429D02*
X02294D01*
X02284Y01426*
X02275Y01421*
X02268Y01414*
X02263Y01405*
X0226Y01395*
Y01384*
X02263Y01374*
X02268Y01365*
X02275Y01358*
X02284Y01353*
X02294Y0135*
X02305*
X02315Y01353*
X02324Y01358*
X02331Y01365*
X02336Y01374*
X02339Y01384*
Y01395*
X02336Y01405*
X02331Y01414*
X02324Y01421*
X02315Y01426*
X02305Y01429*
G37*
G36*
X02479Y01377D02*
X0247D01*
X0246Y01375*
X02451Y0137*
X02444Y01363*
X0244Y01354*
X02437Y01344*
Y01335*
X0244Y01325*
X02444Y01316*
X02451Y01309*
X0246Y01305*
X0247Y01302*
X02479*
X02489Y01305*
X02498Y01309*
X02505Y01316*
X0251Y01325*
X02512Y01335*
Y01344*
X0251Y01354*
X02505Y01363*
X02498Y0137*
X02489Y01375*
X02479Y01377*
G37*
G36*
X02305Y01329D02*
X02294D01*
X02284Y01326*
X02275Y01321*
X02268Y01314*
X02263Y01305*
X0226Y01295*
Y01284*
X02263Y01274*
X02268Y01265*
X02275Y01258*
X02284Y01253*
X02294Y0125*
X02305*
X02315Y01253*
X02324Y01258*
X02331Y01265*
X02336Y01274*
X02339Y01284*
Y01295*
X02336Y01305*
X02331Y01314*
X02324Y01321*
X02315Y01326*
X02305Y01329*
G37*
G36*
X03061Y01268D02*
X02982D01*
Y01189*
X03061*
Y01268*
G37*
G36*
X02305Y01229D02*
X02294D01*
X02284Y01226*
X02275Y01221*
X02268Y01214*
X02263Y01205*
X0226Y01195*
Y01184*
X02263Y01174*
X02268Y01165*
X02275Y01158*
X02284Y01153*
X02294Y0115*
X02305*
X02315Y01153*
X02324Y01158*
X02331Y01165*
X02336Y01174*
X02339Y01184*
Y01195*
X02336Y01205*
X02331Y01214*
X02324Y01221*
X02315Y01226*
X02305Y01229*
G37*
G36*
Y01129D02*
X02294D01*
X02284Y01126*
X02275Y01121*
X02268Y01114*
X02263Y01105*
X0226Y01095*
Y01084*
X02263Y01074*
X02268Y01065*
X02275Y01058*
X02284Y01053*
X02294Y0105*
X02305*
X02315Y01053*
X02324Y01058*
X02331Y01065*
X02336Y01074*
X02339Y01084*
Y01095*
X02336Y01105*
X02331Y01114*
X02324Y01121*
X02315Y01126*
X02305Y01129*
G37*
G36*
X02628Y01244D02*
X02621D01*
X02614Y01242*
X02608Y01239*
X02602Y01233*
X02599Y01227*
X02597Y0122*
Y01213*
X02599Y01206*
X02602Y012*
X02608Y01195*
X02609Y01194*
Y01189*
X02608Y01188*
X02602Y01182*
X02599Y01176*
X02597Y01169*
Y01162*
X02599Y01155*
X02602Y01149*
X02608Y01144*
X02609Y01143*
Y01138*
X02608Y01137*
X02602Y01131*
X02599Y01125*
X02597Y01118*
Y01111*
X02599Y01104*
X02602Y01098*
X02608Y01093*
X02609Y01092*
Y01087*
X02608Y01086*
X02602Y0108*
X02599Y01074*
X02597Y01067*
Y0106*
X02599Y01053*
X02602Y01047*
X02608Y01042*
X02614Y01038*
X02621Y01036*
X02628*
X02635Y01038*
X02641Y01042*
X02647Y01047*
X0265Y01053*
X02652Y0106*
Y01067*
X0265Y01074*
X02647Y0108*
X02641Y01086*
X0264Y01087*
Y01092*
X02641Y01093*
X02647Y01098*
X0265Y01104*
X02652Y01111*
Y01118*
X0265Y01125*
X02647Y01131*
X02641Y01137*
X0264Y01138*
Y01143*
X02641Y01144*
X02647Y01149*
X0265Y01155*
X02652Y01162*
Y01169*
X0265Y01176*
X02647Y01182*
X02641Y01188*
X0264Y01189*
Y01194*
X02641Y01195*
X02647Y012*
X0265Y01206*
X02652Y01213*
Y0122*
X0265Y01227*
X02647Y01233*
X02641Y01239*
X02635Y01242*
X02628Y01244*
G37*
G36*
X03027Y0109D02*
X03016D01*
X03006Y01088*
X02997Y01083*
X0299Y01075*
X02985Y01066*
X02982Y01056*
Y01046*
X02985Y01036*
X0299Y01027*
X02997Y01019*
X03006Y01014*
X03016Y01011*
X03027*
X03037Y01014*
X03046Y01019*
X03053Y01027*
X03058Y01036*
X03061Y01046*
Y01056*
X03058Y01066*
X03053Y01075*
X03046Y01083*
X03037Y01088*
X03027Y0109*
G37*
G36*
X02479Y01077D02*
X0247D01*
X0246Y01075*
X02451Y0107*
X02444Y01063*
X0244Y01054*
X02437Y01044*
Y01035*
X0244Y01025*
X02444Y01016*
X02451Y01009*
X0246Y01005*
X0247Y01002*
X02479*
X02489Y01005*
X02498Y01009*
X02505Y01016*
X0251Y01025*
X02512Y01035*
Y01044*
X0251Y01054*
X02505Y01063*
X02498Y0107*
X02489Y01075*
X02479Y01077*
G37*
G36*
X02305Y01029D02*
X02294D01*
X02284Y01026*
X02275Y01021*
X02268Y01014*
X02263Y01005*
X0226Y00995*
Y00984*
X02263Y00974*
X02268Y00965*
X02275Y00958*
X02284Y00953*
X02294Y0095*
X02305*
X02315Y00953*
X02324Y00958*
X02331Y00965*
X02336Y00974*
X02339Y00984*
Y00995*
X02336Y01005*
X02331Y01014*
X02324Y01021*
X02315Y01026*
X02305Y01029*
G37*
G36*
X02779Y00977D02*
X0277D01*
X0276Y00975*
X02751Y0097*
X02744Y00963*
X0274Y00954*
X02737Y00944*
Y00935*
X0274Y00925*
X02744Y00916*
X02751Y00909*
X0276Y00905*
X0277Y00902*
X02779*
X02789Y00905*
X02798Y00909*
X02805Y00916*
X0281Y00925*
X02812Y00935*
Y00944*
X0281Y00954*
X02805Y00963*
X02798Y0097*
X02789Y00975*
X02779Y00977*
G37*
G36*
X02479D02*
X0247D01*
X0246Y00975*
X02451Y0097*
X02444Y00963*
X0244Y00954*
X02437Y00944*
Y00935*
X0244Y00925*
X02444Y00916*
X02451Y00909*
X0246Y00905*
X0247Y00902*
X02479*
X02489Y00905*
X02498Y00909*
X02505Y00916*
X0251Y00925*
X02512Y00935*
Y00944*
X0251Y00954*
X02505Y00963*
X02498Y0097*
X02489Y00975*
X02479Y00977*
G37*
G36*
X02339Y00929D02*
X0226D01*
Y0085*
X02339*
Y00929*
G37*
G36*
X02779Y00877D02*
X0277D01*
X0276Y00875*
X02751Y0087*
X02744Y00863*
X0274Y00854*
X02737Y00844*
Y00835*
X0274Y00825*
X02744Y00816*
X02751Y00809*
X0276Y00805*
X0277Y00802*
X02779*
X02789Y00805*
X02798Y00809*
X02805Y00816*
X0281Y00825*
X02812Y00835*
Y00844*
X0281Y00854*
X02805Y00863*
X02798Y0087*
X02789Y00875*
X02779Y00877*
G37*
G36*
X02479D02*
X0247D01*
X0246Y00875*
X02451Y0087*
X02444Y00863*
X0244Y00854*
X02437Y00844*
Y00835*
X0244Y00825*
X02444Y00816*
X02451Y00809*
X0246Y00805*
X0247Y00802*
X02479*
X02489Y00805*
X02498Y00809*
X02505Y00816*
X0251Y00825*
X02512Y00835*
Y00844*
X0251Y00854*
X02505Y00863*
X02498Y0087*
X02489Y00875*
X02479Y00877*
G37*
G36*
X02229Y00827D02*
X0222D01*
X0221Y00825*
X02201Y0082*
X02194Y00813*
X0219Y00804*
X02187Y00794*
Y00785*
X0219Y00775*
X02194Y00766*
X02201Y00759*
X0221Y00755*
X0222Y00752*
X02229*
X02239Y00755*
X02248Y00759*
X02255Y00766*
X0226Y00775*
X02262Y00785*
Y00794*
X0226Y00804*
X02255Y00813*
X02248Y0082*
X02239Y00825*
X02229Y00827*
G37*
G36*
X02604Y00773D02*
X02595D01*
X02587Y00771*
X02579Y00766*
X02573Y0076*
X02568Y00752*
X02566Y00744*
Y00735*
X02568Y00727*
X02573Y00719*
X02579Y00713*
X02587Y00708*
X02595Y00706*
X02604*
X02612Y00708*
X0262Y00713*
X02626Y00719*
X02631Y00727*
X02633Y00735*
Y00744*
X02631Y00752*
X02626Y0076*
X0262Y00766*
X02612Y00771*
X02604Y00773*
G37*
G36*
X03061Y00768D02*
X02982D01*
Y00689*
X03061*
Y00768*
G37*
G36*
X02404Y0075D02*
X02395D01*
X02386Y00748*
X02378Y00743*
X02371Y00736*
X02366Y00728*
X02364Y00719*
Y0071*
X02366Y00701*
X02371Y00693*
X02378Y00686*
X02386Y00681*
X02395Y00679*
X02404*
X02413Y00681*
X02421Y00686*
X02428Y00693*
X02433Y00701*
X02435Y0071*
Y00719*
X02433Y00728*
X02428Y00736*
X02421Y00743*
X02413Y00748*
X02404Y0075*
G37*
G36*
Y0065D02*
X02395D01*
X02386Y00648*
X02378Y00643*
X02371Y00636*
X02366Y00628*
X02364Y00619*
Y0061*
X02366Y00601*
X02371Y00593*
X02378Y00586*
X02386Y00581*
X02395Y00579*
X02404*
X02413Y00581*
X02421Y00586*
X02428Y00593*
X02433Y00601*
X02435Y0061*
Y00619*
X02433Y00628*
X02428Y00636*
X02421Y00643*
X02413Y00648*
X02404Y0065*
G37*
G36*
X03027Y0059D02*
X03016D01*
X03006Y00588*
X02997Y00583*
X0299Y00575*
X02985Y00566*
X02982Y00556*
Y00546*
X02985Y00536*
X0299Y00527*
X02997Y00519*
X03006Y00514*
X03016Y00511*
X03027*
X03037Y00514*
X03046Y00519*
X03053Y00527*
X03058Y00536*
X03061Y00546*
Y00556*
X03058Y00566*
X03053Y00575*
X03046Y00583*
X03037Y00588*
X03027Y0059*
G37*
G36*
X02604Y00573D02*
X02595D01*
X02587Y00571*
X02579Y00566*
X02573Y0056*
X02568Y00552*
X02566Y00544*
Y00535*
X02568Y00527*
X02573Y00519*
X02579Y00513*
X02587Y00508*
X02595Y00506*
X02604*
X02612Y00508*
X0262Y00513*
X02626Y00519*
X02631Y00527*
X02633Y00535*
Y00544*
X02631Y00552*
X02626Y0056*
X0262Y00566*
X02612Y00571*
X02604Y00573*
G37*
G36*
X02229Y00527D02*
X0222D01*
X0221Y00525*
X02201Y0052*
X02194Y00513*
X0219Y00504*
X02187Y00494*
Y00485*
X0219Y00475*
X02194Y00466*
X02201Y00459*
X0221Y00455*
X0222Y00452*
X02229*
X02239Y00455*
X02248Y00459*
X02255Y00466*
X0226Y00475*
X02262Y00485*
Y00494*
X0226Y00504*
X02255Y00513*
X02248Y0052*
X02239Y00525*
X02229Y00527*
G37*
G36*
X02479Y00476D02*
X0247D01*
X02461Y00473*
X02452Y00468*
X02446Y00462*
X02441Y00453*
X02439Y00444*
Y00435*
X02441Y00426*
X02446Y00417*
X02452Y00411*
X02461Y00406*
X0247Y00404*
X02479*
X02488Y00406*
X02497Y00411*
X02503Y00417*
X02508Y00426*
X02511Y00435*
Y00444*
X02508Y00453*
X02503Y00462*
X02497Y00468*
X02488Y00473*
X02479Y00476*
G37*
G36*
X02379D02*
X0237D01*
X02361Y00473*
X02352Y00468*
X02346Y00462*
X02341Y00453*
X02339Y00444*
Y00435*
X02341Y00426*
X02346Y00417*
X02352Y00411*
X02361Y00406*
X0237Y00404*
X02379*
X02388Y00406*
X02397Y00411*
X02403Y00417*
X02408Y00426*
X02411Y00435*
Y00444*
X02408Y00453*
X02403Y00462*
X02397Y00468*
X02388Y00473*
X02379Y00476*
G37*
%LNmergepcb-3*%
%LPD*%
G54D37*
X00762Y02166D02*
Y02344D01*
X00851Y02433*
X01128*
X0125Y02555*
X00052Y02407D02*
X001Y02455D01*
X002Y01155D02*
X00323Y01032D01*
X00759*
X00969Y01242*
Y01674*
X0185Y02555*
X01002Y02602D02*
X0105Y02555D01*
X00917Y02602D02*
X01002D01*
X00903Y02588D02*
X00917Y02602D01*
X00719Y02144D02*
X00748Y02115D01*
Y01734D02*
Y02115D01*
X0055Y00155D02*
Y00937D01*
X0048Y01007D02*
X0055Y00937D01*
X00719Y02447D02*
X0076Y02488D01*
X01677Y02627D02*
X0175Y02555D01*
X00514Y02575D02*
X00566Y02627D01*
X01083Y02488D02*
X0115Y02555D01*
X00719Y02144D02*
Y02447D01*
X0076Y02488D02*
X01083D01*
X00566Y02627D02*
X01677D01*
X00514Y02444D02*
Y02575D01*
X00455Y01409D02*
X00464D01*
X00573Y01518*
X01193Y00148D02*
X012Y00155D01*
X00426Y00082D02*
X01157D01*
X01193Y00118*
Y00148*
X00152Y01035D02*
X0018Y01007D01*
X0008Y02003D02*
X0022D01*
X00052Y02031D02*
Y02407D01*
X0018Y01007D02*
X0048D01*
X00052Y02031D02*
X0008Y02003D01*
X00152Y01035D02*
Y01907D01*
X002Y01955*
Y02055D02*
X0028Y02135D01*
X002Y02355D02*
Y02455D01*
X0004Y01795D02*
X001Y01855D01*
X0004Y00469D02*
Y01795D01*
Y00469D02*
X00426Y00082D01*
X002Y01255D02*
X0032Y01375D01*
Y0225D02*
X00514Y02444D01*
X0032Y01375D02*
Y0225D01*
X0022Y02003D02*
X0029Y01933D01*
Y01515D02*
Y01933D01*
X00274Y0149D02*
Y01499D01*
X0029Y01515*
X0126Y02235D02*
Y02365D01*
X0145Y02555*
X00573Y01518D02*
Y02368D01*
X00793Y02588D02*
X00903D01*
X00573Y02368D02*
X00793Y02588D01*
X0028Y02295D02*
X0045Y02465D01*
X0028Y02135D02*
Y02295D01*
X01368Y0216D02*
Y02373D01*
X0155Y02555*
G54D38*
X0082Y0223D02*
X009Y0231D01*
X0082Y0179D02*
X009Y0171D01*
X0082Y0179D02*
Y0223D01*
X0165Y02254D02*
X0176Y02144D01*
Y01295D02*
Y02144D01*
X01967Y01122D02*
X01985Y01105D01*
X0176Y01295D02*
X01932Y01122D01*
X01967*
X00632Y02537D02*
X0065Y02555D01*
X0038Y0114D02*
X00415Y01105D01*
X0122Y00875D02*
Y01484D01*
X0105Y01654D02*
X0122Y01484D01*
X0082Y00475D02*
X0122Y00875D01*
X0175Y00155D02*
Y0087D01*
X01985Y01105*
X0038Y0114D02*
Y02235D01*
X00632Y02487*
Y02537*
G54D39*
X02375Y0044D03*
X02475D03*
G54D40*
X02625Y0194D03*
G54D41*
X02625Y0184D03*
G54D42*
X02625Y01217D03*
Y01166D03*
Y01115D03*
Y01064D03*
G54D43*
X0245Y0234D03*
X027D03*
X024Y00615D03*
Y00715D03*
G54D44*
X023Y0099D03*
Y0109D03*
Y0119D03*
Y0129D03*
Y0139D03*
Y0149D03*
Y0159D03*
Y0169D03*
Y0179D03*
Y0189D03*
X0045Y02555D03*
X0195Y00155D03*
X0185D03*
X013D03*
X012D03*
X019Y02205D03*
X002Y00555D03*
Y00655D03*
Y00755D03*
Y00855D03*
Y00955D03*
Y01055D03*
Y01155D03*
Y01255D03*
Y01355D03*
Y01455D03*
Y01555D03*
Y01655D03*
Y01755D03*
Y01855D03*
Y01955D03*
Y02055D03*
Y02155D03*
Y02255D03*
Y02355D03*
Y02455D03*
X001Y02155D03*
Y01555D03*
Y01455D03*
Y01655D03*
Y01755D03*
Y01855D03*
Y01955D03*
Y02055D03*
Y02255D03*
Y02355D03*
Y00555D03*
Y00955D03*
Y00855D03*
Y00655D03*
Y00755D03*
Y01055D03*
Y01155D03*
Y01255D03*
Y01355D03*
X019Y01605D03*
X0185Y02555D03*
X0175D03*
X0165D03*
X0155D03*
X0145D03*
X0135D03*
X0125D03*
X0115D03*
X0105D03*
X0095D03*
X01985Y00405D03*
X00415D03*
X0055Y00155D03*
X0065D03*
G54D45*
X023Y0089D03*
X019Y02005D03*
X001Y02455D03*
X019Y01405D03*
G54D46*
X02225Y0049D03*
Y0079D03*
X0278Y01695D03*
X0248D03*
X02475Y0104D03*
Y0134D03*
X02775Y0094D03*
X02475D03*
X02775Y0084D03*
X02475D03*
X0045Y01255D03*
Y01555D03*
Y01855D03*
Y02155D03*
G54D47*
X03277Y00728D03*
Y00551D03*
X03022D03*
X03277Y01228D03*
Y01051D03*
X03022D03*
Y02051D03*
X03277D03*
Y02228D03*
Y01728D03*
Y01551D03*
X03022D03*
G54D48*
X03022Y00728D03*
Y01228D03*
Y02228D03*
Y01728D03*
G54D49*
X026Y0054D03*
Y0074D03*
G54D50*
X0225Y00265D03*
X0325D03*
Y02515D03*
X0225D03*
G54D51*
X009Y0171D03*
Y0231D03*
G54D52*
X009Y01299D03*
Y01899D03*
G54D53*
X0105Y01355D03*
Y01955D03*
G54D54*
X0155Y01355D03*
X0165Y01654D03*
X0105D03*
X0155Y01955D03*
X0165Y02254D03*
X0105D03*
G54D55*
X0065Y02555D03*
X0175Y00155D03*
X011D03*
X0195Y02555D03*
X00415Y01105D03*
X01985D03*
X0045Y00155D03*
G54D56*
X0065Y01503D03*
Y01306D03*
Y01405D03*
Y02103D03*
Y01906D03*
Y02005D03*
G54D57*
X00762Y02166D03*
X00748Y01734D03*
X01368Y0216D03*
X00455Y01409D03*
X0082Y00475D03*
X00274Y0149D03*
X0126Y02235D03*
X0045Y02465D03*
M02*