M48
;Layer_Color=9474304
;FILE_FORMAT=2:4
INCH,TZ
;TYPE=PLATED
T1F00S00C0.0250
T2F00S00C0.0276
T3F00S00C0.0280
T4F00S00C0.0315
T5F00S00C0.0320
T6F00S00C0.0335
T7F00S00C0.0354
T8F00S00C0.0390
T9F00S00C0.0394
T10F00S00C0.0472
T11F00S00C0.0512
T12F00S00C0.1181
%
T01
X26250Y10640
Y11150
Y11660
Y12170
T02
X24000Y6150
Y7150
X26000Y7400
Y5400
X24500Y23400
X27000
T03
X8200Y4750
X4550Y14096
X2742Y14904
X7480Y17340
X7620Y21660
X4500Y24650
X12600Y22350
X13680Y21600
T04
X6500Y13066
Y14050
Y15034
Y19066
Y20050
Y21034
T05
X23750Y4400
X24750
T06
X27750Y8400
Y9400
X24750
Y10400
Y8400
X22250Y7900
Y4900
X24750Y13400
X4500Y12550
Y15550
Y18550
Y21550
X24800Y16950
X27800
T07
X11000Y1550
X12000
X13000
X17500
X18500
X19500
X19850Y4050
Y11050
X23000Y10900
Y9900
Y8900
Y11900
Y12900
Y13900
X19000Y14050
X2000Y13550
Y12550
Y11550
Y10550
Y9550
Y8550
Y7550
Y6550
Y5550
X1000
Y6550
Y7550
Y8550
Y9550
Y10550
Y11550
Y12550
Y13550
X4150Y11050
Y4050
X4500Y1550
X5500
X6500
X2000Y14550
Y15550
Y16550
Y17550
Y18550
Y19550
Y20550
Y21550
Y22550
Y23550
Y24550
X1000
Y23550
Y22550
Y21550
Y20550
Y19550
Y18550
Y17550
Y16550
Y15550
Y14550
X4500Y25550
X6500
X9500
X10500
X11500
X12500
X13500
X14500
X15500
X16500
X17500
X18500
X19500
X19000Y22050
Y20050
Y16050
X23000Y15900
Y14900
Y16900
Y17900
Y18900
T08
X30220Y5514
Y7286
X32780
Y5514
Y10514
Y12286
X30220
Y10514
Y15514
Y17286
X32780
Y15514
Y20514
Y22286
X30220
Y20514
T09
X26250Y18400
Y19400
T10
X9000Y12991
Y17109
Y18991
Y23109
T11
X10500Y13554
X15500
X16500Y16546
X15500Y19554
X16500Y22546
X10500
Y19554
Y16546
T12
X32500Y2650
X22500
Y25150
X32500
M30
