G04*
G04 #@! TF.GenerationSoftware,Altium Limited,Altium Designer,21.1.1 (26)*
G04*
G04 Layer_Color=16711935*
%FSLAX25Y25*%
%MOIN*%
G70*
G04*
G04 #@! TF.SameCoordinates,57F2D21C-0FCB-4F51-B6BE-920437A83AD4*
G04*
G04*
G04 #@! TF.FilePolarity,Positive*
G04*
G01*
G75*
%ADD10C,0.01000*%
D10*
X330000Y16500D02*
X330976Y16596D01*
X331913Y16881D01*
X332778Y17343D01*
X333536Y17965D01*
X334157Y18722D01*
X334619Y19587D01*
X334904Y20525D01*
X335000Y21500D01*
Y256500D02*
X334904Y257475D01*
X334619Y258413D01*
X334157Y259278D01*
X333536Y260035D01*
X332778Y260657D01*
X331913Y261119D01*
X330976Y261404D01*
X330000Y261500D01*
X220000D02*
X219024Y261404D01*
X218087Y261119D01*
X217222Y260657D01*
X216464Y260035D01*
X215843Y259278D01*
X215381Y258413D01*
X215096Y257475D01*
X215000Y256500D01*
Y21500D02*
X215096Y20525D01*
X215381Y19587D01*
X215843Y18722D01*
X216464Y17965D01*
X217222Y17343D01*
X218087Y16881D01*
X219024Y16596D01*
X220000Y16500D01*
X0Y5500D02*
X96Y4524D01*
X381Y3587D01*
X843Y2722D01*
X1464Y1964D01*
X2222Y1343D01*
X3087Y881D01*
X4025Y596D01*
X5000Y500D01*
X205000D02*
X205976Y596D01*
X206913Y881D01*
X207778Y1343D01*
X208536Y1964D01*
X209157Y2722D01*
X209619Y3587D01*
X209904Y4524D01*
X210000Y5500D01*
X5000Y275500D02*
X4025Y275404D01*
X3087Y275119D01*
X2222Y274657D01*
X1464Y274036D01*
X843Y273278D01*
X381Y272413D01*
X96Y271476D01*
X0Y270500D01*
X210000D02*
X209904Y271476D01*
X209619Y272413D01*
X209157Y273278D01*
X208536Y274036D01*
X207778Y274657D01*
X206913Y275119D01*
X205976Y275404D01*
X205000Y275500D01*
X210000Y96500D02*
Y178000D01*
X215000D01*
Y96500D02*
Y178000D01*
X210000Y96500D02*
X215000D01*
Y194000D02*
Y256500D01*
X210000Y194000D02*
X215000D01*
X210000D02*
Y270500D01*
X215000Y21500D02*
Y81000D01*
X210000D02*
X215000D01*
X210000Y5500D02*
Y81000D01*
X220000Y16500D02*
X330000D01*
X335000Y21500D02*
Y256500D01*
X220000Y261500D02*
X330000D01*
X0Y5500D02*
Y270500D01*
X5000Y275500D02*
X205000D01*
X5000Y500D02*
X205000D01*
M02*
