G04*
G04 #@! TF.GenerationSoftware,Altium Limited,Altium Designer,21.1.1 (26)*
G04*
G04 Layer_Physical_Order=2*
G04 Layer_Color=16711680*
%FSLAX25Y25*%
%MOIN*%
G70*
G04*
G04 #@! TF.SameCoordinates,B973CD77-87AE-462C-B300-9D2DE2CD0363*
G04*
G04*
G04 #@! TF.FilePolarity,Positive*
G04*
G01*
G75*
%ADD37C,0.01500*%
%ADD38C,0.02500*%
%ADD39C,0.05200*%
%ADD40R,0.05937X0.05937*%
%ADD41C,0.05937*%
%ADD42C,0.03500*%
%ADD43C,0.05118*%
%ADD44C,0.05906*%
%ADD45R,0.05906X0.05906*%
%ADD46C,0.05512*%
%ADD47C,0.05898*%
%ADD48R,0.05898X0.05898*%
%ADD49C,0.04724*%
%ADD50C,0.12000*%
%ADD51R,0.07874X0.07874*%
%ADD52C,0.07874*%
%ADD53R,0.07677X0.07677*%
%ADD54C,0.07677*%
%ADD55R,0.05906X0.05906*%
%ADD56O,0.11811X0.05906*%
%ADD57C,0.05000*%
%ADD58C,0.01200*%
D37*
X262500Y99000D02*
Y106400D01*
Y99000D02*
X277500Y84000D01*
X262500Y111500D02*
X271500D01*
X277500Y105500D01*
Y94000D02*
Y105500D01*
X247500Y134000D02*
X248190Y133310D01*
X250890D01*
X262500Y121700D01*
Y184000D02*
X263000D01*
X277500Y169500D01*
X278000D01*
X222500Y49000D02*
X232500D01*
X237500Y44000D01*
X230000Y179000D02*
X238500D01*
X248000Y169500D01*
X302205Y205142D02*
X327795D01*
X290000Y192937D02*
X302205Y205142D01*
X290000Y169500D02*
Y192937D01*
X281000Y160500D02*
X290000Y169500D01*
X238500Y160500D02*
X281000D01*
X230000Y169000D02*
X238500Y160500D01*
X327737Y155200D02*
X327795Y155142D01*
X312000Y155200D02*
X327737D01*
X311942Y155142D02*
X312000Y155200D01*
X302205Y155142D02*
X311942D01*
X230000Y159000D02*
X233858Y155142D01*
X302205D01*
X230000Y149000D02*
X258347D01*
X302205Y105142D01*
X327795D01*
X230000Y139000D02*
X237000Y132000D01*
Y125500D02*
Y132000D01*
X235300Y123800D02*
X237000Y125500D01*
X234500Y54000D02*
X248000D01*
X255000Y47000D01*
X294063D01*
X302205Y55142D01*
X327795D01*
X222797Y211797D02*
X245000Y234000D01*
X222797Y136203D02*
Y211797D01*
Y136203D02*
X230000Y129000D01*
Y119000D02*
X248500D01*
X257000Y110500D01*
Y93500D02*
Y110500D01*
X247500Y84000D02*
X257000Y93500D01*
X230000Y109000D02*
X231081D01*
X233081Y111000D01*
X251061D01*
X253500Y108561D01*
Y100000D02*
Y108561D01*
X247500Y94000D02*
X253500Y100000D01*
X242500Y99000D02*
X247500Y104000D01*
X230000Y99000D02*
X242500D01*
X332750Y77813D02*
Y117903D01*
X327795Y122858D02*
X332750Y117903D01*
X327795Y72858D02*
X332750Y77813D01*
X327795Y172858D02*
X332750Y167903D01*
Y127813D02*
Y167903D01*
X327795Y122858D02*
X332750Y127813D01*
Y177813D02*
Y217903D01*
X327795Y172858D02*
X332750Y177813D01*
X327795Y222858D02*
X332750Y217903D01*
X220800Y123800D02*
X235300D01*
X217900Y70600D02*
X234500Y54000D01*
X217900Y120900D02*
X220800Y123800D01*
X217900Y70600D02*
Y120900D01*
X30000Y170500D02*
X45000Y155500D01*
X15000Y170500D02*
X30000D01*
X10000Y175500D02*
X15000Y170500D01*
X20000Y175500D02*
X61100Y216600D01*
X76200D01*
X55600Y200500D02*
X65000D01*
X15200Y140300D02*
X20000Y135500D01*
X158000Y262500D02*
X165000Y255500D01*
X13000Y262500D02*
X158000D01*
X45000Y189900D02*
X55600Y200500D01*
X45000Y185500D02*
Y189900D01*
X106000Y118500D02*
X136800Y149300D01*
Y216000D01*
X35000Y118500D02*
X106000D01*
X30000Y113500D02*
X35000Y118500D01*
X26000Y95500D02*
X30000Y99500D01*
Y113500D01*
X20000Y95500D02*
X26000D01*
X48700Y147300D02*
X74800Y173400D01*
X20000Y145500D02*
X21000D01*
X25000Y141500D01*
X123000Y243500D02*
X135000Y255500D01*
X25000Y141500D02*
X44961D01*
X45500Y140961D01*
X45000Y130500D02*
X55000Y140500D01*
X45000Y125500D02*
Y130500D01*
X55000Y140500D02*
X65000D01*
X38200Y147300D02*
X48700D01*
X20000Y165500D02*
X38200Y147300D01*
X14800Y153500D02*
Y160700D01*
X10000Y165500D02*
X14800Y160700D01*
X3000Y252500D02*
X13000Y262500D01*
X3000Y202500D02*
Y252500D01*
Y202500D02*
X5000Y200500D01*
X78376Y222850D02*
X82726Y218500D01*
X121000D02*
X126000Y223500D01*
X82726Y218500D02*
X121000D01*
X45000Y206500D02*
X61350Y222850D01*
X78376D01*
X20000Y215500D02*
X29000Y206500D01*
X45000D01*
X10000Y215500D02*
X15000Y220500D01*
X30000Y230500D02*
X45000Y215500D01*
X17000Y230500D02*
X30000D01*
X15000Y220500D02*
Y228500D01*
X17000Y230500D01*
X14800Y153500D02*
X17503Y150797D01*
X23703D01*
X24795Y149705D02*
X26746D01*
X27415Y149035D01*
X23703Y150797D02*
X24795Y149705D01*
X15000Y110500D02*
Y120500D01*
X10000Y125500D02*
X15000Y120500D01*
Y110500D02*
X20000Y105500D01*
X15000Y90500D02*
Y100500D01*
Y90500D02*
X20000Y85500D01*
X15000Y100500D02*
X20000Y105500D01*
X25000Y200500D02*
X28000Y197500D01*
Y193500D02*
Y197500D01*
X20000Y185500D02*
X28000Y193500D01*
X10000Y205500D02*
X10843Y204657D01*
X12843D01*
X17000Y200500D01*
X25000D01*
X13000D02*
X14800Y198700D01*
X5000Y200500D02*
X13000D01*
X14800Y182300D02*
Y198700D01*
X13000Y180500D02*
X14800Y182300D01*
X6200Y140300D02*
X15200D01*
X5879Y180500D02*
X13000D01*
X5000Y141500D02*
X6200Y140300D01*
X5000Y141500D02*
Y179621D01*
X5879Y180500D01*
X48629Y243500D02*
X123000D01*
X45629Y246500D02*
X48629Y243500D01*
X45000Y246500D02*
X45629D01*
D38*
X228232Y84732D02*
X228847Y85452D01*
X229342Y86260D01*
X229705Y87135D01*
X229926Y88056D01*
X230000Y89000D01*
X302205Y122858D02*
X327795D01*
X302205Y172858D02*
X327795D01*
X302205Y222858D02*
X327795D01*
X222500Y79000D02*
X228232Y84732D01*
X240000Y71500D02*
Y79000D01*
Y71500D02*
X256898D01*
X259398Y74000D01*
X260000D01*
X260426Y73574D01*
X301489D01*
X302205Y72858D01*
X327795D01*
X230000Y89000D02*
X240000Y79000D01*
X90000Y231091D02*
X99370D01*
X105000Y225461D01*
X11703Y247203D02*
Y251203D01*
X10000Y245500D02*
X11703Y247203D01*
Y251203D02*
X14000Y253500D01*
X155000Y195539D02*
X185039D01*
X190000Y200500D01*
X185039Y135539D02*
X190000Y140500D01*
X155000Y135539D02*
X185039D01*
X89626Y130283D02*
X90000Y129909D01*
X65374Y130283D02*
X89626D01*
X65000Y130657D02*
X65374Y130283D01*
X99370Y129909D02*
X105000Y135539D01*
X90000Y129909D02*
X99370D01*
X90000Y171091D02*
X95630Y165461D01*
X105000D01*
X45000Y255500D02*
X52000Y248500D01*
X88000D02*
X95000Y255500D01*
X52000Y248500D02*
X88000D01*
X89626Y190283D02*
X90000Y189909D01*
X65374Y190283D02*
X89626D01*
X65000Y190657D02*
X65374Y190283D01*
X99370Y189909D02*
X105000Y195539D01*
X90000Y189909D02*
X99370D01*
X41500Y110500D02*
X110039D01*
X165000Y165461D01*
X81522Y47022D02*
X82000Y47500D01*
X166000Y24500D02*
X175000Y15500D01*
X110000Y20500D02*
X114000Y24500D01*
X166000D01*
X110000Y15500D02*
Y20500D01*
X178000Y238500D02*
X195000Y255500D01*
X32000Y235500D02*
X36000Y231500D01*
X20000Y235500D02*
X32000D01*
X89591Y231500D02*
X90000Y231091D01*
X36000Y231500D02*
X89591D01*
X43000Y238500D02*
X178000D01*
X28000Y253500D02*
X43000Y238500D01*
X14000Y253500D02*
X28000D01*
X76522Y47022D02*
X81522D01*
X45000Y15500D02*
X76522Y47022D01*
D39*
X237500Y44000D02*
D03*
X247500D02*
D03*
D40*
X262500Y194000D02*
D03*
D41*
Y184000D02*
D03*
D42*
Y121700D02*
D03*
Y116600D02*
D03*
Y111500D02*
D03*
Y106400D02*
D03*
D43*
X245000Y234000D02*
D03*
X270000D02*
D03*
X240000Y61500D02*
D03*
Y71500D02*
D03*
D44*
X230000Y99000D02*
D03*
Y109000D02*
D03*
Y119000D02*
D03*
Y129000D02*
D03*
Y139000D02*
D03*
Y149000D02*
D03*
Y159000D02*
D03*
Y169000D02*
D03*
Y179000D02*
D03*
Y189000D02*
D03*
X45000Y255500D02*
D03*
X195000Y15500D02*
D03*
X185000D02*
D03*
X130000D02*
D03*
X120000D02*
D03*
X190000Y220500D02*
D03*
X20000Y55500D02*
D03*
Y65500D02*
D03*
Y75500D02*
D03*
Y85500D02*
D03*
Y95500D02*
D03*
Y105500D02*
D03*
Y115500D02*
D03*
Y125500D02*
D03*
Y135500D02*
D03*
Y145500D02*
D03*
Y155500D02*
D03*
Y165500D02*
D03*
Y175500D02*
D03*
Y185500D02*
D03*
Y195500D02*
D03*
Y205500D02*
D03*
Y215500D02*
D03*
Y225500D02*
D03*
Y235500D02*
D03*
Y245500D02*
D03*
X10000Y215500D02*
D03*
Y155500D02*
D03*
Y145500D02*
D03*
Y165500D02*
D03*
Y175500D02*
D03*
Y185500D02*
D03*
Y195500D02*
D03*
Y205500D02*
D03*
Y225500D02*
D03*
Y235500D02*
D03*
Y55500D02*
D03*
Y95500D02*
D03*
Y85500D02*
D03*
Y65500D02*
D03*
Y75500D02*
D03*
Y105500D02*
D03*
Y115500D02*
D03*
Y125500D02*
D03*
Y135500D02*
D03*
X190000Y160500D02*
D03*
X185000Y255500D02*
D03*
X175000D02*
D03*
X165000D02*
D03*
X155000D02*
D03*
X145000D02*
D03*
X135000D02*
D03*
X125000D02*
D03*
X115000D02*
D03*
X105000D02*
D03*
X95000D02*
D03*
X198500Y40500D02*
D03*
X41500D02*
D03*
X55000Y15500D02*
D03*
X65000D02*
D03*
D45*
X230000Y89000D02*
D03*
X190000Y200500D02*
D03*
X10000Y245500D02*
D03*
X190000Y140500D02*
D03*
D46*
X222500Y49000D02*
D03*
Y79000D02*
D03*
X278000Y169500D02*
D03*
X248000D02*
D03*
X247500Y104000D02*
D03*
Y134000D02*
D03*
X277500Y94000D02*
D03*
X247500D02*
D03*
X277500Y84000D02*
D03*
X247500D02*
D03*
X45000Y125500D02*
D03*
Y155500D02*
D03*
Y185500D02*
D03*
Y215500D02*
D03*
D47*
X327795Y72858D02*
D03*
Y55142D02*
D03*
X302205D02*
D03*
X327795Y122858D02*
D03*
Y105142D02*
D03*
X302205D02*
D03*
Y205142D02*
D03*
X327795D02*
D03*
Y222858D02*
D03*
Y172858D02*
D03*
Y155142D02*
D03*
X302205D02*
D03*
D48*
Y72858D02*
D03*
Y122858D02*
D03*
Y222858D02*
D03*
Y172858D02*
D03*
D49*
X260000Y54000D02*
D03*
Y74000D02*
D03*
D50*
X225000Y26500D02*
D03*
X325000D02*
D03*
Y251500D02*
D03*
X225000D02*
D03*
D51*
X90000Y171091D02*
D03*
Y231091D02*
D03*
D52*
Y129909D02*
D03*
Y189909D02*
D03*
D53*
X105000Y135539D02*
D03*
Y195539D02*
D03*
D54*
X155000Y135539D02*
D03*
X165000Y165461D02*
D03*
X105000D02*
D03*
X155000Y195539D02*
D03*
X165000Y225461D02*
D03*
X105000D02*
D03*
D55*
X65000Y255500D02*
D03*
X175000Y15500D02*
D03*
X110000D02*
D03*
X195000Y255500D02*
D03*
X41500Y110500D02*
D03*
X198500D02*
D03*
X45000Y15500D02*
D03*
D56*
X65000Y150343D02*
D03*
Y130657D02*
D03*
Y140500D02*
D03*
Y210343D02*
D03*
Y190657D02*
D03*
Y200500D02*
D03*
D57*
X76200Y216600D02*
D03*
X74800Y173400D02*
D03*
X136800Y216000D02*
D03*
X45500Y140961D02*
D03*
X82000Y47500D02*
D03*
X27415Y149035D02*
D03*
X126000Y223500D02*
D03*
X45000Y246500D02*
D03*
D58*
X32000Y7500D02*
X177000D01*
X185000Y15500D01*
X2100Y37400D02*
Y187600D01*
X10000Y195500D01*
X2100Y37400D02*
X32000Y7500D01*
M02*
