G04*
G04 #@! TF.GenerationSoftware,Altium Limited,Altium Designer,21.1.1 (26)*
G04*
G04 Layer_Physical_Order=1*
G04 Layer_Color=255*
%FSLAX25Y25*%
%MOIN*%
G70*
G04*
G04 #@! TF.SameCoordinates,B973CD77-87AE-462C-B300-9D2DE2CD0363*
G04*
G04*
G04 #@! TF.FilePolarity,Positive*
G04*
G01*
G75*
%ADD37C,0.01500*%
%ADD38C,0.02500*%
%ADD39C,0.05200*%
%ADD40R,0.05937X0.05937*%
%ADD41C,0.05937*%
%ADD42C,0.03500*%
%ADD43C,0.05118*%
%ADD44C,0.05906*%
%ADD45R,0.05906X0.05906*%
%ADD46C,0.05512*%
%ADD47C,0.05898*%
%ADD48R,0.05898X0.05898*%
%ADD49C,0.04724*%
%ADD50C,0.12000*%
%ADD51R,0.07874X0.07874*%
%ADD52C,0.07874*%
%ADD53R,0.07677X0.07677*%
%ADD54C,0.07677*%
%ADD55R,0.05906X0.05906*%
%ADD56O,0.11811X0.05906*%
%ADD57C,0.05000*%
G36*
X205000Y5500D02*
X5000D01*
Y42723D01*
X5462Y42915D01*
X41341Y7036D01*
X41341Y7035D01*
X41920Y6649D01*
X42603Y6513D01*
X115797D01*
X116480Y6649D01*
X117059Y7035D01*
X120583Y10559D01*
X120583Y10559D01*
X120970Y11138D01*
X121081Y11697D01*
X121526Y11817D01*
X122427Y12337D01*
X123163Y13073D01*
X123683Y13974D01*
X123953Y14980D01*
Y16020D01*
X123683Y17026D01*
X123163Y17927D01*
X122427Y18663D01*
X121526Y19183D01*
X120520Y19453D01*
X119480D01*
X118474Y19183D01*
X117573Y18663D01*
X116837Y17927D01*
X116317Y17026D01*
X116047Y16020D01*
Y14980D01*
X116317Y13974D01*
X116837Y13073D01*
X117443Y12467D01*
X115058Y10081D01*
X43342D01*
X42338Y11085D01*
X42529Y11547D01*
X48953D01*
Y19453D01*
X41047D01*
Y13029D01*
X40585Y12838D01*
X5784Y47639D01*
Y54029D01*
X6284Y54095D01*
X6317Y53974D01*
X6837Y53073D01*
X7573Y52337D01*
X8474Y51817D01*
X9480Y51547D01*
X10520D01*
X11526Y51817D01*
X12427Y52337D01*
X13163Y53073D01*
X13683Y53974D01*
X13953Y54980D01*
Y56020D01*
X13683Y57026D01*
X13163Y57927D01*
X12427Y58663D01*
X11526Y59183D01*
X10520Y59453D01*
X9480D01*
X8474Y59183D01*
X7573Y58663D01*
X6837Y57927D01*
X6317Y57026D01*
X6284Y56905D01*
X5784Y56971D01*
Y64029D01*
X6284Y64095D01*
X6317Y63974D01*
X6837Y63073D01*
X7573Y62337D01*
X8474Y61817D01*
X9480Y61547D01*
X10520D01*
X11526Y61817D01*
X12427Y62337D01*
X13163Y63073D01*
X13683Y63974D01*
X13953Y64980D01*
Y66020D01*
X13683Y67026D01*
X13163Y67927D01*
X12427Y68663D01*
X11526Y69183D01*
X10520Y69453D01*
X9480D01*
X8474Y69183D01*
X7573Y68663D01*
X6837Y67927D01*
X6317Y67026D01*
X6284Y66905D01*
X5784Y66971D01*
Y74029D01*
X6284Y74095D01*
X6317Y73974D01*
X6837Y73073D01*
X7573Y72337D01*
X8474Y71817D01*
X9480Y71547D01*
X10520D01*
X11526Y71817D01*
X12427Y72337D01*
X13163Y73073D01*
X13683Y73974D01*
X13953Y74980D01*
Y76020D01*
X13683Y77026D01*
X13163Y77927D01*
X12427Y78663D01*
X11526Y79183D01*
X10520Y79453D01*
X9480D01*
X8474Y79183D01*
X7573Y78663D01*
X6837Y77927D01*
X6317Y77026D01*
X6284Y76905D01*
X5784Y76971D01*
Y84029D01*
X6284Y84095D01*
X6317Y83974D01*
X6837Y83073D01*
X7573Y82337D01*
X8474Y81817D01*
X9480Y81547D01*
X10520D01*
X11526Y81817D01*
X12427Y82337D01*
X13163Y83073D01*
X13683Y83974D01*
X13953Y84980D01*
Y86020D01*
X13683Y87026D01*
X13163Y87927D01*
X12427Y88663D01*
X11526Y89183D01*
X10520Y89453D01*
X9480D01*
X8474Y89183D01*
X7573Y88663D01*
X6837Y87927D01*
X6317Y87026D01*
X6284Y86905D01*
X5784Y86971D01*
Y94029D01*
X6284Y94095D01*
X6317Y93974D01*
X6837Y93073D01*
X7573Y92337D01*
X8474Y91817D01*
X9480Y91547D01*
X10520D01*
X11526Y91817D01*
X12427Y92337D01*
X13163Y93073D01*
X13683Y93974D01*
X13953Y94980D01*
Y96020D01*
X13683Y97026D01*
X13163Y97927D01*
X12427Y98663D01*
X11526Y99183D01*
X10520Y99453D01*
X9480D01*
X8474Y99183D01*
X7573Y98663D01*
X6837Y97927D01*
X6317Y97026D01*
X6284Y96905D01*
X5784Y96971D01*
Y104029D01*
X6284Y104095D01*
X6317Y103974D01*
X6837Y103073D01*
X7573Y102337D01*
X8474Y101817D01*
X9480Y101547D01*
X10520D01*
X11526Y101817D01*
X12427Y102337D01*
X13019Y102929D01*
X13552Y102817D01*
X13938Y102238D01*
X16738Y99438D01*
X17317Y99051D01*
X17429Y98519D01*
X16837Y97927D01*
X16317Y97026D01*
X16047Y96020D01*
Y94980D01*
X16317Y93974D01*
X16837Y93073D01*
X17573Y92337D01*
X18474Y91817D01*
X19480Y91547D01*
X20520D01*
X21526Y91817D01*
X22427Y92337D01*
X23163Y93073D01*
X23683Y93974D01*
X23953Y94980D01*
Y96020D01*
X23683Y97026D01*
X23163Y97927D01*
X22674Y98416D01*
X22881Y98916D01*
X47261D01*
X53216Y92961D01*
Y19034D01*
X52573Y18663D01*
X51837Y17927D01*
X51317Y17026D01*
X51047Y16020D01*
Y14980D01*
X51317Y13974D01*
X51837Y13073D01*
X52573Y12337D01*
X53474Y11817D01*
X54480Y11547D01*
X55520D01*
X56526Y11817D01*
X57427Y12337D01*
X58163Y13073D01*
X58683Y13974D01*
X58953Y14980D01*
Y16020D01*
X58683Y17026D01*
X58163Y17927D01*
X57427Y18663D01*
X56784Y19034D01*
Y93700D01*
X56648Y94383D01*
X56262Y94962D01*
X56262Y94962D01*
X50270Y100954D01*
X50461Y101416D01*
X75900D01*
X76583Y101551D01*
X77162Y101938D01*
X98162Y122938D01*
X98162Y122938D01*
X98549Y123517D01*
X98684Y124200D01*
Y166661D01*
X100682Y168658D01*
X101082Y168351D01*
X100491Y167328D01*
X100161Y166098D01*
Y164824D01*
X100491Y163593D01*
X101128Y162490D01*
X102029Y161589D01*
X103132Y160952D01*
X104363Y160622D01*
X105637D01*
X106392Y160824D01*
X119706Y147510D01*
Y88450D01*
X82256Y51000D01*
X81539D01*
X80649Y50761D01*
X79851Y50301D01*
X79199Y49649D01*
X78738Y48851D01*
X78500Y47961D01*
Y47039D01*
X78738Y46149D01*
X79199Y45351D01*
X79851Y44699D01*
X80649Y44238D01*
X81539Y44000D01*
X82461D01*
X83351Y44238D01*
X84149Y44699D01*
X84801Y45351D01*
X85261Y46149D01*
X85500Y47039D01*
Y47756D01*
X123622Y85878D01*
X124119Y86622D01*
X124294Y87500D01*
Y148461D01*
X124119Y149338D01*
X123622Y150083D01*
X109636Y164069D01*
X109839Y164824D01*
Y166098D01*
X109509Y167328D01*
X108872Y168432D01*
X107971Y169332D01*
X106868Y169969D01*
X105637Y170299D01*
X104363D01*
X103132Y169969D01*
X102109Y169379D01*
X101802Y169779D01*
X160682Y228659D01*
X161082Y228351D01*
X160491Y227328D01*
X160161Y226098D01*
Y224824D01*
X160491Y223593D01*
X161128Y222490D01*
X162029Y221589D01*
X163132Y220952D01*
X164363Y220622D01*
X165637D01*
X166392Y220824D01*
X173706Y213510D01*
Y129500D01*
X173881Y128622D01*
X174378Y127878D01*
X191675Y110581D01*
X192419Y110083D01*
X193297Y109909D01*
X193957D01*
X194164Y109409D01*
X173378Y88622D01*
X172880Y87878D01*
X172706Y87000D01*
Y19453D01*
X171047D01*
Y11547D01*
X178953D01*
Y19453D01*
X177294D01*
Y86050D01*
X197792Y106547D01*
X202453D01*
Y114453D01*
X197019D01*
X196797Y114497D01*
X194247D01*
X178294Y130450D01*
Y214461D01*
X178120Y215338D01*
X177622Y216083D01*
X169636Y224069D01*
X169839Y224824D01*
Y226098D01*
X169509Y227328D01*
X168872Y228432D01*
X167971Y229332D01*
X166868Y229969D01*
X165637Y230299D01*
X164363D01*
X163132Y229969D01*
X162109Y229379D01*
X161802Y229779D01*
X183763Y251739D01*
X184480Y251547D01*
X185520D01*
X186526Y251817D01*
X187427Y252337D01*
X188163Y253073D01*
X188683Y253974D01*
X188953Y254980D01*
Y256020D01*
X188683Y257026D01*
X188163Y257927D01*
X187427Y258663D01*
X186526Y259183D01*
X185520Y259453D01*
X184480D01*
X183474Y259183D01*
X182573Y258663D01*
X181837Y257927D01*
X181317Y257026D01*
X181047Y256020D01*
Y254980D01*
X181239Y254263D01*
X95638Y168662D01*
X95437Y168360D01*
X94937Y168512D01*
Y176028D01*
X88307D01*
X84294Y180041D01*
Y222140D01*
X88307Y226154D01*
X94937D01*
Y236028D01*
X85063D01*
Y229398D01*
X80378Y224713D01*
X79881Y223969D01*
X79706Y223091D01*
Y218528D01*
X79206Y218394D01*
X79001Y218749D01*
X78349Y219401D01*
X77984Y219611D01*
Y233661D01*
X85839Y241516D01*
X112800D01*
X113483Y241652D01*
X114062Y242038D01*
X123763Y251739D01*
X124480Y251547D01*
X125520D01*
X126526Y251817D01*
X127427Y252337D01*
X128163Y253073D01*
X128683Y253974D01*
X128953Y254980D01*
Y256020D01*
X128683Y257026D01*
X128163Y257927D01*
X127427Y258663D01*
X126526Y259183D01*
X125520Y259453D01*
X124480D01*
X123474Y259183D01*
X122573Y258663D01*
X121837Y257927D01*
X121317Y257026D01*
X121047Y256020D01*
Y254980D01*
X121239Y254263D01*
X112061Y245084D01*
X85100D01*
X84417Y244949D01*
X83838Y244562D01*
X74938Y235662D01*
X74551Y235083D01*
X74416Y234400D01*
Y219899D01*
X74184Y219749D01*
X73684Y220020D01*
Y243961D01*
X76739Y247016D01*
X108300D01*
X108983Y247151D01*
X109562Y247538D01*
X113763Y251739D01*
X114480Y251547D01*
X115520D01*
X116526Y251817D01*
X117427Y252337D01*
X118163Y253073D01*
X118683Y253974D01*
X118953Y254980D01*
Y256020D01*
X118683Y257026D01*
X118163Y257927D01*
X117427Y258663D01*
X116526Y259183D01*
X115520Y259453D01*
X114480D01*
X113474Y259183D01*
X112573Y258663D01*
X111837Y257927D01*
X111317Y257026D01*
X111047Y256020D01*
Y254980D01*
X111239Y254263D01*
X107561Y250584D01*
X76000D01*
X76000Y250584D01*
X75317Y250448D01*
X74738Y250062D01*
X74738Y250062D01*
X70638Y245962D01*
X70252Y245383D01*
X70116Y244700D01*
Y214400D01*
X70146Y214249D01*
X69706Y213895D01*
X68985Y214194D01*
X67953Y214330D01*
X62047D01*
X61015Y214194D01*
X60054Y213795D01*
X59584Y213435D01*
X59084Y213682D01*
Y236061D01*
X80039Y257016D01*
X90300D01*
X90824Y257120D01*
X91175Y256834D01*
X91238Y256731D01*
X91047Y256020D01*
Y254980D01*
X91317Y253974D01*
X91837Y253073D01*
X92573Y252337D01*
X93474Y251817D01*
X94480Y251547D01*
X95520D01*
X96526Y251817D01*
X97427Y252337D01*
X98163Y253073D01*
X98683Y253974D01*
X98953Y254980D01*
Y256020D01*
X98683Y257026D01*
X98163Y257927D01*
X98133Y257957D01*
X98325Y258418D01*
X99558D01*
X101239Y256737D01*
X101047Y256020D01*
Y254980D01*
X101317Y253974D01*
X101837Y253073D01*
X102573Y252337D01*
X103474Y251817D01*
X104480Y251547D01*
X105520D01*
X106526Y251817D01*
X107427Y252337D01*
X108163Y253073D01*
X108683Y253974D01*
X108953Y254980D01*
Y256020D01*
X108683Y257026D01*
X108163Y257927D01*
X107427Y258663D01*
X106526Y259183D01*
X105520Y259453D01*
X104480D01*
X103763Y259261D01*
X102567Y260457D01*
X102758Y260918D01*
X167058D01*
X171239Y256737D01*
X171047Y256020D01*
Y254980D01*
X171317Y253974D01*
X171837Y253073D01*
X172573Y252337D01*
X173474Y251817D01*
X174480Y251547D01*
X175520D01*
X176526Y251817D01*
X177427Y252337D01*
X178163Y253073D01*
X178683Y253974D01*
X178953Y254980D01*
Y256020D01*
X178683Y257026D01*
X178163Y257927D01*
X177427Y258663D01*
X176526Y259183D01*
X175520Y259453D01*
X174480D01*
X173763Y259261D01*
X169059Y263965D01*
X168480Y264351D01*
X167797Y264487D01*
X56603D01*
X56603Y264487D01*
X55920Y264351D01*
X55341Y263965D01*
X50188Y258812D01*
X49801Y258233D01*
X49666Y257550D01*
Y245217D01*
X30738Y226290D01*
X30351Y225711D01*
X30284Y225373D01*
X29784Y225422D01*
Y228761D01*
X44132Y243109D01*
X44539Y243000D01*
X45461D01*
X46351Y243238D01*
X47149Y243699D01*
X47801Y244351D01*
X48261Y245149D01*
X48500Y246039D01*
Y246961D01*
X48261Y247851D01*
X47801Y248649D01*
X47149Y249301D01*
X46351Y249762D01*
X45461Y250000D01*
X44539D01*
X43649Y249762D01*
X42851Y249301D01*
X42199Y248649D01*
X41739Y247851D01*
X41500Y246961D01*
Y246039D01*
X41609Y245632D01*
X26738Y230762D01*
X26351Y230183D01*
X26216Y229500D01*
Y214239D01*
X21237Y209261D01*
X20520Y209453D01*
X19480D01*
X18474Y209183D01*
X17573Y208663D01*
X16837Y207927D01*
X16317Y207026D01*
X16047Y206020D01*
Y204980D01*
X16317Y203974D01*
X16837Y203073D01*
X17326Y202584D01*
X17119Y202084D01*
X12881D01*
X12674Y202584D01*
X13163Y203073D01*
X13683Y203974D01*
X13953Y204980D01*
Y206020D01*
X13683Y207026D01*
X13163Y207927D01*
X12427Y208663D01*
X11526Y209183D01*
X10520Y209453D01*
X9480D01*
X8474Y209183D01*
X7573Y208663D01*
X7446Y208536D01*
X6984Y208728D01*
Y212272D01*
X7446Y212464D01*
X7573Y212337D01*
X8474Y211817D01*
X9480Y211547D01*
X10520D01*
X11526Y211817D01*
X12427Y212337D01*
X13163Y213073D01*
X13683Y213974D01*
X13953Y214980D01*
Y216020D01*
X13683Y217026D01*
X13163Y217927D01*
X12427Y218663D01*
X11526Y219183D01*
X10520Y219453D01*
X9480D01*
X8474Y219183D01*
X7573Y218663D01*
X7446Y218536D01*
X6984Y218728D01*
Y222272D01*
X7446Y222464D01*
X7573Y222337D01*
X8474Y221817D01*
X9480Y221547D01*
X10520D01*
X11526Y221817D01*
X12427Y222337D01*
X13163Y223073D01*
X13683Y223974D01*
X13953Y224980D01*
Y226020D01*
X13683Y227026D01*
X13163Y227927D01*
X12427Y228663D01*
X11526Y229183D01*
X10520Y229453D01*
X9480D01*
X8474Y229183D01*
X7573Y228663D01*
X7446Y228536D01*
X6984Y228728D01*
Y232272D01*
X7446Y232464D01*
X7573Y232337D01*
X8474Y231817D01*
X9480Y231547D01*
X10520D01*
X11526Y231817D01*
X12427Y232337D01*
X13163Y233073D01*
X13683Y233974D01*
X13953Y234980D01*
Y236020D01*
X13683Y237026D01*
X13163Y237927D01*
X12427Y238663D01*
X11526Y239183D01*
X10520Y239453D01*
X9480D01*
X8474Y239183D01*
X7573Y238663D01*
X7446Y238536D01*
X6984Y238728D01*
Y239961D01*
X8571Y241547D01*
X13953D01*
Y249453D01*
X6047D01*
Y244071D01*
X5462Y243485D01*
X5000Y243677D01*
Y270500D01*
X205000D01*
Y5500D01*
D02*
G37*
G36*
X78303Y260836D02*
X78180Y260156D01*
X78038Y260062D01*
X69402Y251426D01*
X68953Y251683D01*
Y259453D01*
X61047D01*
Y254019D01*
X61003Y253797D01*
Y249747D01*
X36378Y225122D01*
X35881Y224378D01*
X35706Y223500D01*
Y114000D01*
X35881Y113122D01*
X36378Y112378D01*
X37547Y111208D01*
Y106547D01*
X45453D01*
Y114453D01*
X40792D01*
X40294Y114950D01*
Y222550D01*
X55120Y237376D01*
X55581Y237130D01*
X55516Y236800D01*
Y152578D01*
X47047Y144109D01*
X46851Y144222D01*
X45961Y144461D01*
X45039D01*
X44149Y144222D01*
X43351Y143762D01*
X42699Y143110D01*
X42239Y142312D01*
X42000Y141422D01*
Y140500D01*
X42239Y139610D01*
X42699Y138812D01*
X43351Y138160D01*
X44149Y137699D01*
X45039Y137461D01*
X45961D01*
X46851Y137699D01*
X47649Y138160D01*
X48301Y138812D01*
X48761Y139610D01*
X49000Y140500D01*
Y141016D01*
X57692Y149707D01*
X58165Y149547D01*
X58196Y149311D01*
X58595Y148349D01*
X59228Y147523D01*
X60054Y146890D01*
X61015Y146492D01*
X62047Y146356D01*
X67953D01*
X68985Y146492D01*
X69946Y146890D01*
X70772Y147523D01*
X71406Y148349D01*
X71804Y149311D01*
X71940Y150343D01*
X71804Y151374D01*
X71406Y152336D01*
X70772Y153162D01*
X69946Y153795D01*
X68985Y154194D01*
X67953Y154330D01*
X62047D01*
X61015Y154194D01*
X60054Y153795D01*
X59584Y153435D01*
X59084Y153682D01*
Y187318D01*
X59584Y187565D01*
X60054Y187205D01*
X61015Y186806D01*
X62047Y186670D01*
X67953D01*
X68985Y186806D01*
X69946Y187205D01*
X70772Y187838D01*
X71406Y188664D01*
X71804Y189626D01*
X71940Y190657D01*
X71804Y191689D01*
X71406Y192651D01*
X70772Y193476D01*
X69946Y194110D01*
X68985Y194508D01*
X67953Y194644D01*
X62047D01*
X61015Y194508D01*
X60054Y194110D01*
X59584Y193750D01*
X59084Y193996D01*
Y197161D01*
X59584Y197407D01*
X60054Y197047D01*
X61015Y196649D01*
X62047Y196513D01*
X67953D01*
X68985Y196649D01*
X69946Y197047D01*
X70772Y197681D01*
X71406Y198507D01*
X71804Y199468D01*
X71940Y200500D01*
X71804Y201532D01*
X71406Y202493D01*
X70772Y203319D01*
X69946Y203953D01*
X68985Y204351D01*
X67953Y204487D01*
X62047D01*
X61015Y204351D01*
X60054Y203953D01*
X59584Y203592D01*
X59084Y203839D01*
Y207004D01*
X59584Y207250D01*
X60054Y206890D01*
X61015Y206492D01*
X62047Y206356D01*
X67953D01*
X68985Y206492D01*
X69946Y206890D01*
X70772Y207523D01*
X71406Y208349D01*
X71804Y209311D01*
X71940Y210343D01*
X71820Y211249D01*
X72185Y211487D01*
X72266Y211511D01*
X73016Y210761D01*
Y176411D01*
X72651Y176201D01*
X71999Y175549D01*
X71539Y174751D01*
X71300Y173861D01*
Y172939D01*
X71539Y172049D01*
X71999Y171251D01*
X72651Y170599D01*
X73449Y170139D01*
X74339Y169900D01*
X75261D01*
X76151Y170139D01*
X76949Y170599D01*
X77601Y171251D01*
X78061Y172049D01*
X78300Y172939D01*
Y173861D01*
X78061Y174751D01*
X77601Y175549D01*
X76949Y176201D01*
X76584Y176411D01*
Y211500D01*
X76584Y211500D01*
X76449Y212183D01*
X76170Y212600D01*
X76363Y213045D01*
X76422Y213100D01*
X76661D01*
X77551Y213338D01*
X78349Y213799D01*
X79001Y214451D01*
X79206Y214806D01*
X79706Y214672D01*
Y179091D01*
X79881Y178213D01*
X80378Y177468D01*
X85063Y172783D01*
Y166154D01*
X94616D01*
X94937Y166154D01*
X95116Y165728D01*
Y131824D01*
X94616Y131758D01*
X94601Y131815D01*
X93951Y132941D01*
X93031Y133860D01*
X91906Y134510D01*
X90650Y134846D01*
X89350D01*
X88094Y134510D01*
X86969Y133860D01*
X86049Y132941D01*
X85399Y131815D01*
X85063Y130559D01*
Y129259D01*
X85399Y128004D01*
X86049Y126878D01*
X86969Y125959D01*
X88094Y125309D01*
X89350Y124972D01*
X90650D01*
X91906Y125309D01*
X93031Y125959D01*
X93951Y126878D01*
X94601Y128004D01*
X94616Y128060D01*
X95116Y127995D01*
Y124939D01*
X75161Y104984D01*
X33039D01*
X23761Y114263D01*
X23953Y114980D01*
Y116020D01*
X23683Y117026D01*
X23163Y117927D01*
X22427Y118663D01*
X21526Y119183D01*
X20520Y119453D01*
X19480D01*
X18474Y119183D01*
X17573Y118663D01*
X17446Y118536D01*
X16984Y118728D01*
Y122272D01*
X17446Y122464D01*
X17573Y122337D01*
X18474Y121817D01*
X19480Y121547D01*
X20520D01*
X21526Y121817D01*
X22427Y122337D01*
X23163Y123073D01*
X23683Y123974D01*
X23953Y124980D01*
Y126020D01*
X23761Y126737D01*
X33262Y136238D01*
X33262Y136238D01*
X33648Y136817D01*
X33784Y137500D01*
Y224289D01*
X52712Y243217D01*
X52712Y243217D01*
X53098Y243796D01*
X53234Y244478D01*
Y256811D01*
X57342Y260918D01*
X78245D01*
X78303Y260836D01*
D02*
G37*
G36*
X319639Y256038D02*
X319563Y255962D01*
X318797Y254816D01*
X318269Y253542D01*
X318000Y252189D01*
Y250811D01*
X318269Y249458D01*
X318797Y248184D01*
X319563Y247038D01*
X320538Y246063D01*
X321684Y245297D01*
X322958Y244769D01*
X324311Y244500D01*
X325689D01*
X327042Y244769D01*
X328316Y245297D01*
X329462Y246063D01*
X330437Y247038D01*
X331203Y248184D01*
X331500Y248901D01*
X332000Y248801D01*
Y224355D01*
X331500Y224289D01*
X331475Y224382D01*
X330955Y225283D01*
X330220Y226018D01*
X329319Y226538D01*
X328315Y226807D01*
X327275D01*
X326271Y226538D01*
X325371Y226018D01*
X324635Y225283D01*
X324115Y224382D01*
X323846Y223378D01*
Y222338D01*
X324115Y221334D01*
X324635Y220434D01*
X325371Y219698D01*
X326271Y219179D01*
X327275Y218909D01*
X328315D01*
X329319Y219179D01*
X330220Y219698D01*
X330955Y220434D01*
X331475Y221334D01*
X331500Y221428D01*
X332000Y221362D01*
Y206638D01*
X331500Y206572D01*
X331475Y206666D01*
X330955Y207566D01*
X330220Y208302D01*
X329319Y208822D01*
X328315Y209091D01*
X327275D01*
X326271Y208822D01*
X325371Y208302D01*
X324635Y207566D01*
X324115Y206666D01*
X323846Y205662D01*
Y204622D01*
X324115Y203618D01*
X324635Y202717D01*
X325371Y201982D01*
X326271Y201462D01*
X327275Y201193D01*
X328315D01*
X329319Y201462D01*
X330220Y201982D01*
X330955Y202717D01*
X331475Y203618D01*
X331500Y203711D01*
X332000Y203645D01*
Y174355D01*
X331500Y174289D01*
X331475Y174382D01*
X330955Y175283D01*
X330220Y176018D01*
X329319Y176538D01*
X328315Y176807D01*
X327275D01*
X326271Y176538D01*
X325371Y176018D01*
X324635Y175283D01*
X324115Y174382D01*
X323846Y173378D01*
Y172338D01*
X324115Y171334D01*
X324635Y170434D01*
X325371Y169698D01*
X326271Y169178D01*
X327275Y168909D01*
X328315D01*
X329319Y169178D01*
X330220Y169698D01*
X330955Y170434D01*
X331475Y171334D01*
X331500Y171428D01*
X332000Y171362D01*
Y156638D01*
X331500Y156572D01*
X331475Y156666D01*
X330955Y157566D01*
X330220Y158302D01*
X329319Y158821D01*
X328315Y159091D01*
X327275D01*
X326271Y158821D01*
X325371Y158302D01*
X324635Y157566D01*
X324115Y156666D01*
X323846Y155662D01*
Y154622D01*
X324115Y153618D01*
X324635Y152717D01*
X325371Y151982D01*
X326271Y151462D01*
X327275Y151193D01*
X328315D01*
X329319Y151462D01*
X330220Y151982D01*
X330955Y152717D01*
X331475Y153618D01*
X331500Y153711D01*
X332000Y153645D01*
Y124355D01*
X331500Y124289D01*
X331475Y124382D01*
X330955Y125283D01*
X330220Y126018D01*
X329319Y126538D01*
X328315Y126807D01*
X327275D01*
X326271Y126538D01*
X325371Y126018D01*
X324635Y125283D01*
X324115Y124382D01*
X323846Y123378D01*
Y122338D01*
X324115Y121334D01*
X324635Y120434D01*
X325371Y119698D01*
X326271Y119178D01*
X327275Y118909D01*
X328315D01*
X329319Y119178D01*
X330220Y119698D01*
X330955Y120434D01*
X331475Y121334D01*
X331500Y121428D01*
X332000Y121362D01*
Y106638D01*
X331500Y106572D01*
X331475Y106666D01*
X330955Y107566D01*
X330220Y108302D01*
X329319Y108821D01*
X328315Y109091D01*
X327275D01*
X326271Y108821D01*
X325371Y108302D01*
X324635Y107566D01*
X324115Y106666D01*
X323846Y105662D01*
Y104622D01*
X324115Y103618D01*
X324635Y102717D01*
X325371Y101982D01*
X326271Y101462D01*
X327275Y101193D01*
X328315D01*
X329319Y101462D01*
X330220Y101982D01*
X330955Y102717D01*
X331475Y103618D01*
X331500Y103711D01*
X332000Y103645D01*
Y74355D01*
X331500Y74289D01*
X331475Y74382D01*
X330955Y75283D01*
X330220Y76018D01*
X329319Y76538D01*
X328315Y76807D01*
X327275D01*
X326271Y76538D01*
X325371Y76018D01*
X324635Y75283D01*
X324115Y74382D01*
X323846Y73378D01*
Y72338D01*
X324115Y71334D01*
X324635Y70434D01*
X325371Y69698D01*
X326271Y69178D01*
X327275Y68909D01*
X328315D01*
X329319Y69178D01*
X330220Y69698D01*
X330955Y70434D01*
X331475Y71334D01*
X331500Y71428D01*
X332000Y71362D01*
Y56638D01*
X331500Y56572D01*
X331475Y56666D01*
X330955Y57566D01*
X330220Y58302D01*
X329319Y58821D01*
X328315Y59091D01*
X327275D01*
X326271Y58821D01*
X325371Y58302D01*
X324635Y57566D01*
X324115Y56666D01*
X323846Y55662D01*
Y54622D01*
X324115Y53618D01*
X324635Y52717D01*
X325371Y51982D01*
X326271Y51462D01*
X327275Y51193D01*
X328315D01*
X329319Y51462D01*
X330220Y51982D01*
X330955Y52717D01*
X331475Y53618D01*
X331500Y53711D01*
X332000Y53645D01*
Y29199D01*
X331500Y29100D01*
X331203Y29816D01*
X330437Y30962D01*
X329462Y31937D01*
X328316Y32703D01*
X327042Y33231D01*
X325689Y33500D01*
X324311D01*
X322958Y33231D01*
X321684Y32703D01*
X320538Y31937D01*
X319563Y30962D01*
X318797Y29816D01*
X318269Y28542D01*
X318000Y27189D01*
Y25811D01*
X318269Y24458D01*
X318797Y23184D01*
X319563Y22038D01*
X320538Y21063D01*
X321684Y20297D01*
X322400Y20000D01*
X322301Y19500D01*
X227699D01*
X227600Y20000D01*
X228316Y20297D01*
X229462Y21063D01*
X230437Y22038D01*
X231203Y23184D01*
X231731Y24458D01*
X232000Y25811D01*
Y27189D01*
X231731Y28542D01*
X231203Y29816D01*
X230437Y30962D01*
X229462Y31937D01*
X228316Y32703D01*
X227042Y33231D01*
X225689Y33500D01*
X224311D01*
X222958Y33231D01*
X221684Y32703D01*
X220538Y31937D01*
X219563Y30962D01*
X218797Y29816D01*
X218500Y29100D01*
X218000Y29199D01*
Y248801D01*
X218500Y248901D01*
X218797Y248184D01*
X219563Y247038D01*
X220538Y246063D01*
X221684Y245297D01*
X222958Y244769D01*
X224311Y244500D01*
X225689D01*
X227042Y244769D01*
X228316Y245297D01*
X229462Y246063D01*
X230437Y247038D01*
X231203Y248184D01*
X231731Y249458D01*
X232000Y250811D01*
Y252189D01*
X231731Y253542D01*
X231203Y254816D01*
X230437Y255962D01*
X230361Y256038D01*
X230553Y256500D01*
X319447D01*
X319639Y256038D01*
D02*
G37*
G36*
X30216Y213106D02*
Y195261D01*
X29754Y195070D01*
X23262Y201562D01*
X22683Y201948D01*
X22571Y202481D01*
X23163Y203073D01*
X23683Y203974D01*
X23953Y204980D01*
Y206020D01*
X23761Y206737D01*
X29262Y212238D01*
X29649Y212817D01*
X29716Y213155D01*
X30216Y213106D01*
D02*
G37*
G36*
X27216Y192561D02*
Y152535D01*
X26954D01*
X26064Y152297D01*
X25266Y151836D01*
X24614Y151184D01*
X24154Y150386D01*
X23915Y149496D01*
Y148574D01*
X24154Y147684D01*
X24614Y146886D01*
X25266Y146235D01*
X26064Y145774D01*
X26954Y145535D01*
X27876D01*
X28766Y145774D01*
X29564Y146235D01*
X29754Y146424D01*
X30216Y146233D01*
Y138239D01*
X21237Y129261D01*
X20520Y129453D01*
X19480D01*
X18474Y129183D01*
X17573Y128663D01*
X17446Y128536D01*
X16984Y128728D01*
Y132272D01*
X17446Y132464D01*
X17573Y132337D01*
X18474Y131817D01*
X19480Y131547D01*
X20520D01*
X21526Y131817D01*
X22427Y132337D01*
X23163Y133073D01*
X23683Y133974D01*
X23953Y134980D01*
Y136020D01*
X23683Y137026D01*
X23163Y137927D01*
X22427Y138663D01*
X21526Y139183D01*
X20520Y139453D01*
X19480D01*
X18474Y139183D01*
X17573Y138663D01*
X17446Y138536D01*
X16984Y138728D01*
Y142272D01*
X17446Y142464D01*
X17573Y142337D01*
X18474Y141817D01*
X19480Y141547D01*
X20520D01*
X21526Y141817D01*
X22427Y142337D01*
X23163Y143073D01*
X23683Y143974D01*
X23953Y144980D01*
Y146020D01*
X23683Y147026D01*
X23163Y147927D01*
X22427Y148663D01*
X21526Y149183D01*
X20520Y149453D01*
X19480D01*
X18474Y149183D01*
X17573Y148663D01*
X17446Y148536D01*
X16984Y148728D01*
Y152272D01*
X17446Y152464D01*
X17573Y152337D01*
X18474Y151817D01*
X19480Y151547D01*
X20520D01*
X21526Y151817D01*
X22427Y152337D01*
X23163Y153073D01*
X23683Y153974D01*
X23953Y154980D01*
Y156020D01*
X23683Y157026D01*
X23163Y157927D01*
X22427Y158663D01*
X21526Y159183D01*
X20520Y159453D01*
X19480D01*
X18474Y159183D01*
X17573Y158663D01*
X17446Y158536D01*
X16984Y158728D01*
Y162272D01*
X17446Y162464D01*
X17573Y162337D01*
X18474Y161817D01*
X19480Y161547D01*
X20520D01*
X21526Y161817D01*
X22427Y162337D01*
X23163Y163073D01*
X23683Y163974D01*
X23953Y164980D01*
Y166020D01*
X23683Y167026D01*
X23163Y167927D01*
X22427Y168663D01*
X21526Y169183D01*
X20520Y169453D01*
X19480D01*
X18474Y169183D01*
X17573Y168663D01*
X17446Y168536D01*
X16984Y168728D01*
Y172272D01*
X17446Y172464D01*
X17573Y172337D01*
X18474Y171817D01*
X19480Y171547D01*
X20520D01*
X21526Y171817D01*
X22427Y172337D01*
X23163Y173073D01*
X23683Y173974D01*
X23953Y174980D01*
Y176020D01*
X23683Y177026D01*
X23163Y177927D01*
X22427Y178663D01*
X21526Y179183D01*
X20520Y179453D01*
X19480D01*
X18474Y179183D01*
X17573Y178663D01*
X17446Y178536D01*
X16984Y178728D01*
Y182272D01*
X17446Y182464D01*
X17573Y182337D01*
X18474Y181817D01*
X19480Y181547D01*
X20520D01*
X21526Y181817D01*
X22427Y182337D01*
X23163Y183073D01*
X23683Y183974D01*
X23953Y184980D01*
Y186020D01*
X23683Y187026D01*
X23163Y187927D01*
X22427Y188663D01*
X21526Y189183D01*
X20520Y189453D01*
X19480D01*
X18474Y189183D01*
X17573Y188663D01*
X17446Y188536D01*
X16984Y188728D01*
Y189961D01*
X18763Y191739D01*
X19480Y191547D01*
X20520D01*
X21526Y191817D01*
X22427Y192337D01*
X23163Y193073D01*
X23683Y193974D01*
X23953Y194980D01*
Y195171D01*
X24415Y195362D01*
X27216Y192561D01*
D02*
G37*
G36*
X6738Y199038D02*
X7040Y198837D01*
X7128Y198218D01*
X6837Y197927D01*
X6317Y197026D01*
X6047Y196020D01*
Y194980D01*
X6317Y193974D01*
X6837Y193073D01*
X7573Y192337D01*
X8474Y191817D01*
X9480Y191547D01*
X10520D01*
X11526Y191817D01*
X12427Y192337D01*
X13163Y193073D01*
X13683Y193974D01*
X13953Y194980D01*
Y196020D01*
X13683Y197026D01*
X13163Y197927D01*
X13036Y198054D01*
X13228Y198516D01*
X16772D01*
X16964Y198054D01*
X16837Y197927D01*
X16317Y197026D01*
X16047Y196020D01*
Y194980D01*
X16239Y194263D01*
X13938Y191962D01*
X13552Y191383D01*
X13416Y190700D01*
Y188381D01*
X12916Y188174D01*
X12427Y188663D01*
X11526Y189183D01*
X10520Y189453D01*
X9480D01*
X8474Y189183D01*
X7573Y188663D01*
X6837Y187927D01*
X6317Y187026D01*
X6047Y186020D01*
Y184980D01*
X6239Y184263D01*
X5462Y183485D01*
X5000Y183677D01*
Y200123D01*
X5462Y200315D01*
X6738Y199038D01*
D02*
G37*
G36*
X6317Y173974D02*
X6837Y173073D01*
X7573Y172337D01*
X8474Y171817D01*
X9480Y171547D01*
X10520D01*
X11526Y171817D01*
X12427Y172337D01*
X12916Y172826D01*
X13416Y172619D01*
Y168381D01*
X12916Y168174D01*
X12427Y168663D01*
X11526Y169183D01*
X10520Y169453D01*
X9480D01*
X8474Y169183D01*
X7573Y168663D01*
X6837Y167927D01*
X6317Y167026D01*
X6284Y166905D01*
X5784Y166971D01*
Y174029D01*
X6284Y174095D01*
X6317Y173974D01*
D02*
G37*
G36*
Y163974D02*
X6837Y163073D01*
X7573Y162337D01*
X8474Y161817D01*
X9480Y161547D01*
X10520D01*
X11526Y161817D01*
X12427Y162337D01*
X12916Y162826D01*
X13416Y162619D01*
Y158381D01*
X12916Y158174D01*
X12427Y158663D01*
X11526Y159183D01*
X10520Y159453D01*
X9480D01*
X8474Y159183D01*
X7573Y158663D01*
X6837Y157927D01*
X6317Y157026D01*
X6284Y156905D01*
X5784Y156971D01*
Y164029D01*
X6284Y164095D01*
X6317Y163974D01*
D02*
G37*
G36*
Y153974D02*
X6837Y153073D01*
X7573Y152337D01*
X8474Y151817D01*
X9480Y151547D01*
X10520D01*
X11526Y151817D01*
X12427Y152337D01*
X12916Y152826D01*
X13416Y152619D01*
Y148381D01*
X12916Y148174D01*
X12427Y148663D01*
X11526Y149183D01*
X10520Y149453D01*
X9480D01*
X8474Y149183D01*
X7573Y148663D01*
X6837Y147927D01*
X6317Y147026D01*
X6284Y146905D01*
X5784Y146971D01*
Y154029D01*
X6284Y154095D01*
X6317Y153974D01*
D02*
G37*
G36*
Y143974D02*
X6837Y143073D01*
X7573Y142337D01*
X8474Y141817D01*
X9480Y141547D01*
X10520D01*
X11526Y141817D01*
X12427Y142337D01*
X12916Y142826D01*
X13416Y142619D01*
Y138381D01*
X12916Y138174D01*
X12427Y138663D01*
X11526Y139183D01*
X10520Y139453D01*
X9480D01*
X8474Y139183D01*
X7573Y138663D01*
X6837Y137927D01*
X6317Y137026D01*
X6284Y136905D01*
X5784Y136971D01*
Y144029D01*
X6284Y144095D01*
X6317Y143974D01*
D02*
G37*
G36*
Y133974D02*
X6837Y133073D01*
X7573Y132337D01*
X8474Y131817D01*
X9480Y131547D01*
X10520D01*
X11526Y131817D01*
X12427Y132337D01*
X12916Y132826D01*
X13416Y132619D01*
Y128381D01*
X12916Y128174D01*
X12427Y128663D01*
X11526Y129183D01*
X10520Y129453D01*
X9480D01*
X8474Y129183D01*
X7573Y128663D01*
X6837Y127927D01*
X6317Y127026D01*
X6284Y126905D01*
X5784Y126971D01*
Y134029D01*
X6284Y134095D01*
X6317Y133974D01*
D02*
G37*
G36*
Y123974D02*
X6837Y123073D01*
X7573Y122337D01*
X8474Y121817D01*
X9480Y121547D01*
X10520D01*
X11526Y121817D01*
X12427Y122337D01*
X12916Y122826D01*
X13416Y122619D01*
Y118381D01*
X12916Y118174D01*
X12427Y118663D01*
X11526Y119183D01*
X10520Y119453D01*
X9480D01*
X8474Y119183D01*
X7573Y118663D01*
X6837Y117927D01*
X6317Y117026D01*
X6284Y116905D01*
X5784Y116971D01*
Y124029D01*
X6284Y124095D01*
X6317Y123974D01*
D02*
G37*
G36*
Y113974D02*
X6837Y113073D01*
X7573Y112337D01*
X8474Y111817D01*
X9480Y111547D01*
X10520D01*
X11526Y111817D01*
X12427Y112337D01*
X12916Y112826D01*
X13416Y112619D01*
Y108381D01*
X12916Y108174D01*
X12427Y108663D01*
X11526Y109183D01*
X10520Y109453D01*
X9480D01*
X8474Y109183D01*
X7573Y108663D01*
X6837Y107927D01*
X6317Y107026D01*
X6284Y106905D01*
X5784Y106971D01*
Y114029D01*
X6284Y114095D01*
X6317Y113974D01*
D02*
G37*
G36*
X17573Y112337D02*
X18474Y111817D01*
X19480Y111547D01*
X20520D01*
X21237Y111739D01*
X30030Y102946D01*
X29839Y102484D01*
X23228D01*
X23036Y102946D01*
X23163Y103073D01*
X23683Y103974D01*
X23953Y104980D01*
Y106020D01*
X23683Y107026D01*
X23163Y107927D01*
X22427Y108663D01*
X21526Y109183D01*
X20520Y109453D01*
X19480D01*
X18474Y109183D01*
X17573Y108663D01*
X17446Y108536D01*
X16984Y108728D01*
Y112272D01*
X17446Y112464D01*
X17573Y112337D01*
D02*
G37*
%LPC*%
G36*
X198953Y259453D02*
X191047D01*
Y251547D01*
X198953D01*
Y259453D01*
D02*
G37*
G36*
X165520D02*
X164480D01*
X163474Y259183D01*
X162573Y258663D01*
X161837Y257927D01*
X161317Y257026D01*
X161047Y256020D01*
Y254980D01*
X161317Y253974D01*
X161837Y253073D01*
X162573Y252337D01*
X163474Y251817D01*
X164480Y251547D01*
X165520D01*
X166526Y251817D01*
X167427Y252337D01*
X168163Y253073D01*
X168683Y253974D01*
X168953Y254980D01*
Y256020D01*
X168683Y257026D01*
X168163Y257927D01*
X167427Y258663D01*
X166526Y259183D01*
X165520Y259453D01*
D02*
G37*
G36*
X155520D02*
X154480D01*
X153474Y259183D01*
X152573Y258663D01*
X151837Y257927D01*
X151317Y257026D01*
X151047Y256020D01*
Y254980D01*
X151239Y254263D01*
X135538Y238562D01*
X135152Y237983D01*
X135016Y237300D01*
Y219011D01*
X134651Y218801D01*
X133999Y218149D01*
X133538Y217351D01*
X133300Y216461D01*
Y215539D01*
X133538Y214649D01*
X133999Y213851D01*
X134651Y213199D01*
X135449Y212738D01*
X136339Y212500D01*
X137261D01*
X138151Y212738D01*
X138949Y213199D01*
X139601Y213851D01*
X140061Y214649D01*
X140300Y215539D01*
Y216461D01*
X140061Y217351D01*
X139601Y218149D01*
X138949Y218801D01*
X138584Y219011D01*
Y236561D01*
X153763Y251739D01*
X154480Y251547D01*
X155520D01*
X156526Y251817D01*
X157427Y252337D01*
X158163Y253073D01*
X158683Y253974D01*
X158953Y254980D01*
Y256020D01*
X158683Y257026D01*
X158163Y257927D01*
X157427Y258663D01*
X156526Y259183D01*
X155520Y259453D01*
D02*
G37*
G36*
X145520D02*
X144480D01*
X143474Y259183D01*
X142573Y258663D01*
X141837Y257927D01*
X141317Y257026D01*
X141047Y256020D01*
Y254980D01*
X141239Y254263D01*
X124738Y237762D01*
X124352Y237183D01*
X124216Y236500D01*
Y226511D01*
X123851Y226301D01*
X123199Y225649D01*
X122739Y224851D01*
X122500Y223961D01*
Y223039D01*
X122739Y222149D01*
X123199Y221351D01*
X123851Y220699D01*
X124649Y220238D01*
X125539Y220000D01*
X126461D01*
X127351Y220238D01*
X128149Y220699D01*
X128801Y221351D01*
X129262Y222149D01*
X129500Y223039D01*
Y223961D01*
X129262Y224851D01*
X128801Y225649D01*
X128149Y226301D01*
X127784Y226511D01*
Y235761D01*
X143763Y251739D01*
X144480Y251547D01*
X145520D01*
X146526Y251817D01*
X147427Y252337D01*
X148163Y253073D01*
X148683Y253974D01*
X148953Y254980D01*
Y256020D01*
X148683Y257026D01*
X148163Y257927D01*
X147427Y258663D01*
X146526Y259183D01*
X145520Y259453D01*
D02*
G37*
G36*
X135520D02*
X134480D01*
X133474Y259183D01*
X132573Y258663D01*
X131837Y257927D01*
X131317Y257026D01*
X131047Y256020D01*
Y254980D01*
X131317Y253974D01*
X131837Y253073D01*
X132573Y252337D01*
X133474Y251817D01*
X134480Y251547D01*
X135520D01*
X136526Y251817D01*
X137427Y252337D01*
X138163Y253073D01*
X138683Y253974D01*
X138953Y254980D01*
Y256020D01*
X138683Y257026D01*
X138163Y257927D01*
X137427Y258663D01*
X136526Y259183D01*
X135520Y259453D01*
D02*
G37*
G36*
X45520D02*
X44480D01*
X43474Y259183D01*
X42573Y258663D01*
X41837Y257927D01*
X41317Y257026D01*
X41047Y256020D01*
Y254980D01*
X41317Y253974D01*
X41837Y253073D01*
X42573Y252337D01*
X43474Y251817D01*
X44480Y251547D01*
X45520D01*
X46526Y251817D01*
X47427Y252337D01*
X48163Y253073D01*
X48683Y253974D01*
X48953Y254980D01*
Y256020D01*
X48683Y257026D01*
X48163Y257927D01*
X47427Y258663D01*
X46526Y259183D01*
X45520Y259453D01*
D02*
G37*
G36*
X20520Y249453D02*
X19480D01*
X18474Y249183D01*
X17573Y248663D01*
X16837Y247927D01*
X16317Y247026D01*
X16047Y246020D01*
Y244980D01*
X16317Y243974D01*
X16837Y243073D01*
X17573Y242337D01*
X18216Y241966D01*
Y239034D01*
X17573Y238663D01*
X16837Y237927D01*
X16317Y237026D01*
X16047Y236020D01*
Y234980D01*
X16317Y233974D01*
X16837Y233073D01*
X17573Y232337D01*
X18474Y231817D01*
X19480Y231547D01*
X20520D01*
X21526Y231817D01*
X22427Y232337D01*
X23163Y233073D01*
X23683Y233974D01*
X23953Y234980D01*
Y236020D01*
X23683Y237026D01*
X23163Y237927D01*
X22427Y238663D01*
X21784Y239034D01*
Y241966D01*
X22427Y242337D01*
X23163Y243073D01*
X23683Y243974D01*
X23953Y244980D01*
Y246020D01*
X23683Y247026D01*
X23163Y247927D01*
X22427Y248663D01*
X21526Y249183D01*
X20520Y249453D01*
D02*
G37*
G36*
Y229453D02*
X19480D01*
X18474Y229183D01*
X17573Y228663D01*
X16837Y227927D01*
X16317Y227026D01*
X16047Y226020D01*
Y224980D01*
X16317Y223974D01*
X16837Y223073D01*
X17573Y222337D01*
X18474Y221817D01*
X19480Y221547D01*
X20520D01*
X21526Y221817D01*
X22427Y222337D01*
X23163Y223073D01*
X23683Y223974D01*
X23953Y224980D01*
Y226020D01*
X23683Y227026D01*
X23163Y227927D01*
X22427Y228663D01*
X21526Y229183D01*
X20520Y229453D01*
D02*
G37*
G36*
X105637Y230299D02*
X104363D01*
X103132Y229969D01*
X102029Y229332D01*
X101128Y228432D01*
X100491Y227328D01*
X100161Y226098D01*
Y224824D01*
X100491Y223593D01*
X101128Y222490D01*
X102029Y221589D01*
X103132Y220952D01*
X104363Y220622D01*
X105637D01*
X106868Y220952D01*
X107971Y221589D01*
X108872Y222490D01*
X109509Y223593D01*
X109839Y224824D01*
Y226098D01*
X109509Y227328D01*
X108872Y228432D01*
X107971Y229332D01*
X106868Y229969D01*
X105637Y230299D01*
D02*
G37*
G36*
X190520Y224453D02*
X189480D01*
X188474Y224183D01*
X187573Y223663D01*
X186837Y222927D01*
X186317Y222026D01*
X186047Y221020D01*
Y219980D01*
X186317Y218974D01*
X186837Y218073D01*
X187573Y217337D01*
X188474Y216817D01*
X189480Y216547D01*
X190520D01*
X191526Y216817D01*
X192427Y217337D01*
X193163Y218073D01*
X193683Y218974D01*
X193953Y219980D01*
Y221020D01*
X193683Y222026D01*
X193163Y222927D01*
X192427Y223663D01*
X191526Y224183D01*
X190520Y224453D01*
D02*
G37*
G36*
X20520Y219453D02*
X19480D01*
X18474Y219183D01*
X17573Y218663D01*
X16837Y217927D01*
X16317Y217026D01*
X16047Y216020D01*
Y214980D01*
X16317Y213974D01*
X16837Y213073D01*
X17573Y212337D01*
X18474Y211817D01*
X19480Y211547D01*
X20520D01*
X21526Y211817D01*
X22427Y212337D01*
X23163Y213073D01*
X23683Y213974D01*
X23953Y214980D01*
Y216020D01*
X23683Y217026D01*
X23163Y217927D01*
X22427Y218663D01*
X21526Y219183D01*
X20520Y219453D01*
D02*
G37*
G36*
X193953Y204453D02*
X186047D01*
Y196547D01*
X193953D01*
Y204453D01*
D02*
G37*
G36*
X155637Y200378D02*
X154363D01*
X153132Y200048D01*
X152029Y199411D01*
X151128Y198510D01*
X150491Y197407D01*
X150161Y196176D01*
Y194902D01*
X150491Y193672D01*
X151128Y192568D01*
X152029Y191668D01*
X153132Y191031D01*
X154363Y190701D01*
X155637D01*
X156868Y191031D01*
X157971Y191668D01*
X158872Y192568D01*
X159509Y193672D01*
X159839Y194902D01*
Y196176D01*
X159509Y197407D01*
X158872Y198510D01*
X157971Y199411D01*
X156868Y200048D01*
X155637Y200378D01*
D02*
G37*
G36*
X109839D02*
X100161D01*
Y190701D01*
X109839D01*
Y200378D01*
D02*
G37*
G36*
X90650Y194846D02*
X89350D01*
X88094Y194510D01*
X86969Y193860D01*
X86049Y192941D01*
X85399Y191815D01*
X85063Y190559D01*
Y189259D01*
X85399Y188004D01*
X86049Y186878D01*
X86969Y185959D01*
X88094Y185309D01*
X89350Y184972D01*
X90650D01*
X91906Y185309D01*
X93031Y185959D01*
X93951Y186878D01*
X94601Y188004D01*
X94937Y189259D01*
Y190559D01*
X94601Y191815D01*
X93951Y192941D01*
X93031Y193860D01*
X91906Y194510D01*
X90650Y194846D01*
D02*
G37*
G36*
X165637Y170299D02*
X164363D01*
X163132Y169969D01*
X162029Y169332D01*
X161128Y168432D01*
X160491Y167328D01*
X160161Y166098D01*
Y164824D01*
X160491Y163593D01*
X161128Y162490D01*
X162029Y161589D01*
X163132Y160952D01*
X164363Y160622D01*
X165637D01*
X166868Y160952D01*
X167971Y161589D01*
X168872Y162490D01*
X169509Y163593D01*
X169839Y164824D01*
Y166098D01*
X169509Y167328D01*
X168872Y168432D01*
X167971Y169332D01*
X166868Y169969D01*
X165637Y170299D01*
D02*
G37*
G36*
X190520Y164453D02*
X189480D01*
X188474Y164183D01*
X187573Y163663D01*
X186837Y162927D01*
X186317Y162026D01*
X186047Y161020D01*
Y159980D01*
X186317Y158974D01*
X186837Y158073D01*
X187573Y157337D01*
X188474Y156817D01*
X189480Y156547D01*
X190520D01*
X191526Y156817D01*
X192427Y157337D01*
X193163Y158073D01*
X193683Y158974D01*
X193953Y159980D01*
Y161020D01*
X193683Y162026D01*
X193163Y162927D01*
X192427Y163663D01*
X191526Y164183D01*
X190520Y164453D01*
D02*
G37*
G36*
X193953Y144453D02*
X186047D01*
Y136547D01*
X193953D01*
Y144453D01*
D02*
G37*
G36*
X155637Y140378D02*
X154363D01*
X153132Y140048D01*
X152029Y139411D01*
X151128Y138510D01*
X150491Y137407D01*
X150161Y136176D01*
Y134902D01*
X150491Y133672D01*
X151128Y132568D01*
X152029Y131668D01*
X153132Y131031D01*
X154363Y130701D01*
X155637D01*
X156868Y131031D01*
X157971Y131668D01*
X158872Y132568D01*
X159509Y133672D01*
X159839Y134902D01*
Y136176D01*
X159509Y137407D01*
X158872Y138510D01*
X157971Y139411D01*
X156868Y140048D01*
X155637Y140378D01*
D02*
G37*
G36*
X109839D02*
X100161D01*
Y130701D01*
X109839D01*
Y140378D01*
D02*
G37*
G36*
X20520Y89453D02*
X19480D01*
X18474Y89183D01*
X17573Y88663D01*
X16837Y87927D01*
X16317Y87026D01*
X16047Y86020D01*
Y84980D01*
X16317Y83974D01*
X16837Y83073D01*
X17573Y82337D01*
X18474Y81817D01*
X19480Y81547D01*
X20520D01*
X21526Y81817D01*
X22427Y82337D01*
X23163Y83073D01*
X23683Y83974D01*
X23953Y84980D01*
Y86020D01*
X23683Y87026D01*
X23163Y87927D01*
X22427Y88663D01*
X21526Y89183D01*
X20520Y89453D01*
D02*
G37*
G36*
Y79453D02*
X19480D01*
X18474Y79183D01*
X17573Y78663D01*
X16837Y77927D01*
X16317Y77026D01*
X16047Y76020D01*
Y74980D01*
X16317Y73974D01*
X16837Y73073D01*
X17573Y72337D01*
X18474Y71817D01*
X19480Y71547D01*
X20520D01*
X21526Y71817D01*
X22427Y72337D01*
X23163Y73073D01*
X23683Y73974D01*
X23953Y74980D01*
Y76020D01*
X23683Y77026D01*
X23163Y77927D01*
X22427Y78663D01*
X21526Y79183D01*
X20520Y79453D01*
D02*
G37*
G36*
Y69453D02*
X19480D01*
X18474Y69183D01*
X17573Y68663D01*
X16837Y67927D01*
X16317Y67026D01*
X16047Y66020D01*
Y64980D01*
X16317Y63974D01*
X16837Y63073D01*
X17573Y62337D01*
X18474Y61817D01*
X19480Y61547D01*
X20520D01*
X21526Y61817D01*
X22427Y62337D01*
X23163Y63073D01*
X23683Y63974D01*
X23953Y64980D01*
Y66020D01*
X23683Y67026D01*
X23163Y67927D01*
X22427Y68663D01*
X21526Y69183D01*
X20520Y69453D01*
D02*
G37*
G36*
Y59453D02*
X19480D01*
X18474Y59183D01*
X17573Y58663D01*
X16837Y57927D01*
X16317Y57026D01*
X16047Y56020D01*
Y54980D01*
X16317Y53974D01*
X16837Y53073D01*
X17573Y52337D01*
X18474Y51817D01*
X19480Y51547D01*
X20520D01*
X21526Y51817D01*
X22427Y52337D01*
X23163Y53073D01*
X23683Y53974D01*
X23953Y54980D01*
Y56020D01*
X23683Y57026D01*
X23163Y57927D01*
X22427Y58663D01*
X21526Y59183D01*
X20520Y59453D01*
D02*
G37*
G36*
X199020Y44453D02*
X197980D01*
X196974Y44183D01*
X196073Y43663D01*
X195337Y42927D01*
X194817Y42026D01*
X194547Y41020D01*
Y39980D01*
X194817Y38974D01*
X195337Y38073D01*
X196073Y37337D01*
X196974Y36817D01*
X197980Y36547D01*
X199020D01*
X200026Y36817D01*
X200927Y37337D01*
X201663Y38073D01*
X202183Y38974D01*
X202453Y39980D01*
Y41020D01*
X202183Y42026D01*
X201663Y42927D01*
X200927Y43663D01*
X200026Y44183D01*
X199020Y44453D01*
D02*
G37*
G36*
X42020D02*
X40980D01*
X39974Y44183D01*
X39073Y43663D01*
X38337Y42927D01*
X37817Y42026D01*
X37547Y41020D01*
Y39980D01*
X37817Y38974D01*
X38337Y38073D01*
X39073Y37337D01*
X39974Y36817D01*
X40980Y36547D01*
X42020D01*
X43026Y36817D01*
X43927Y37337D01*
X44663Y38073D01*
X45183Y38974D01*
X45453Y39980D01*
Y41020D01*
X45183Y42026D01*
X44663Y42927D01*
X43927Y43663D01*
X43026Y44183D01*
X42020Y44453D01*
D02*
G37*
G36*
X195520Y19453D02*
X194480D01*
X193474Y19183D01*
X192573Y18663D01*
X191837Y17927D01*
X191317Y17026D01*
X191047Y16020D01*
Y14980D01*
X191317Y13974D01*
X191837Y13073D01*
X192573Y12337D01*
X193474Y11817D01*
X194480Y11547D01*
X195520D01*
X196526Y11817D01*
X197427Y12337D01*
X198163Y13073D01*
X198683Y13974D01*
X198953Y14980D01*
Y16020D01*
X198683Y17026D01*
X198163Y17927D01*
X197427Y18663D01*
X196526Y19183D01*
X195520Y19453D01*
D02*
G37*
G36*
X185520D02*
X184480D01*
X183474Y19183D01*
X182573Y18663D01*
X181837Y17927D01*
X181317Y17026D01*
X181047Y16020D01*
Y14980D01*
X181317Y13974D01*
X181837Y13073D01*
X182573Y12337D01*
X183474Y11817D01*
X184480Y11547D01*
X185520D01*
X186526Y11817D01*
X187427Y12337D01*
X188163Y13073D01*
X188683Y13974D01*
X188953Y14980D01*
Y16020D01*
X188683Y17026D01*
X188163Y17927D01*
X187427Y18663D01*
X186526Y19183D01*
X185520Y19453D01*
D02*
G37*
G36*
X130520D02*
X129480D01*
X128474Y19183D01*
X127573Y18663D01*
X126837Y17927D01*
X126317Y17026D01*
X126047Y16020D01*
Y14980D01*
X126317Y13974D01*
X126837Y13073D01*
X127573Y12337D01*
X128474Y11817D01*
X129480Y11547D01*
X130520D01*
X131526Y11817D01*
X132427Y12337D01*
X133163Y13073D01*
X133683Y13974D01*
X133953Y14980D01*
Y16020D01*
X133683Y17026D01*
X133163Y17927D01*
X132427Y18663D01*
X131526Y19183D01*
X130520Y19453D01*
D02*
G37*
G36*
X113953D02*
X106047D01*
Y11547D01*
X113953D01*
Y19453D01*
D02*
G37*
G36*
X65520D02*
X64480D01*
X63474Y19183D01*
X62573Y18663D01*
X61837Y17927D01*
X61317Y17026D01*
X61047Y16020D01*
Y14980D01*
X61317Y13974D01*
X61837Y13073D01*
X62573Y12337D01*
X63474Y11817D01*
X64480Y11547D01*
X65520D01*
X66526Y11817D01*
X67427Y12337D01*
X68163Y13073D01*
X68683Y13974D01*
X68953Y14980D01*
Y16020D01*
X68683Y17026D01*
X68163Y17927D01*
X67427Y18663D01*
X66526Y19183D01*
X65520Y19453D01*
D02*
G37*
G36*
X45494Y219256D02*
X44506D01*
X43550Y219000D01*
X42694Y218506D01*
X41995Y217806D01*
X41500Y216950D01*
X41244Y215995D01*
Y215005D01*
X41500Y214050D01*
X41995Y213194D01*
X42694Y212494D01*
X43550Y212000D01*
X44506Y211744D01*
X45494D01*
X46450Y212000D01*
X47306Y212494D01*
X48006Y213194D01*
X48500Y214050D01*
X48756Y215005D01*
Y215995D01*
X48500Y216950D01*
X48006Y217806D01*
X47306Y218506D01*
X46450Y219000D01*
X45494Y219256D01*
D02*
G37*
G36*
Y189256D02*
X44506D01*
X43550Y189000D01*
X42694Y188505D01*
X41995Y187806D01*
X41500Y186950D01*
X41244Y185995D01*
Y185005D01*
X41500Y184050D01*
X41995Y183194D01*
X42694Y182494D01*
X43550Y182000D01*
X44506Y181744D01*
X45494D01*
X46450Y182000D01*
X47306Y182494D01*
X48006Y183194D01*
X48500Y184050D01*
X48756Y185005D01*
Y185995D01*
X48500Y186950D01*
X48006Y187806D01*
X47306Y188505D01*
X46450Y189000D01*
X45494Y189256D01*
D02*
G37*
G36*
Y159256D02*
X44506D01*
X43550Y159000D01*
X42694Y158505D01*
X41995Y157806D01*
X41500Y156950D01*
X41244Y155994D01*
Y155006D01*
X41500Y154050D01*
X41995Y153194D01*
X42694Y152495D01*
X43550Y152000D01*
X44506Y151744D01*
X45494D01*
X46450Y152000D01*
X47306Y152495D01*
X48006Y153194D01*
X48500Y154050D01*
X48756Y155006D01*
Y155994D01*
X48500Y156950D01*
X48006Y157806D01*
X47306Y158505D01*
X46450Y159000D01*
X45494Y159256D01*
D02*
G37*
G36*
X67953Y144487D02*
X62047D01*
X61015Y144351D01*
X60054Y143953D01*
X59228Y143319D01*
X58595Y142493D01*
X58196Y141532D01*
X58060Y140500D01*
X58196Y139468D01*
X58595Y138507D01*
X59228Y137681D01*
X60054Y137047D01*
X61015Y136649D01*
X62047Y136513D01*
X67953D01*
X68985Y136649D01*
X69946Y137047D01*
X70772Y137681D01*
X71406Y138507D01*
X71804Y139468D01*
X71940Y140500D01*
X71804Y141532D01*
X71406Y142493D01*
X70772Y143319D01*
X69946Y143953D01*
X68985Y144351D01*
X67953Y144487D01*
D02*
G37*
G36*
Y134644D02*
X62047D01*
X61015Y134508D01*
X60054Y134110D01*
X59228Y133476D01*
X58595Y132651D01*
X58196Y131689D01*
X58060Y130657D01*
X58196Y129625D01*
X58595Y128664D01*
X59228Y127838D01*
X60054Y127205D01*
X61015Y126806D01*
X62047Y126671D01*
X67953D01*
X68985Y126806D01*
X69946Y127205D01*
X70772Y127838D01*
X71406Y128664D01*
X71804Y129625D01*
X71940Y130657D01*
X71804Y131689D01*
X71406Y132651D01*
X70772Y133476D01*
X69946Y134110D01*
X68985Y134508D01*
X67953Y134644D01*
D02*
G37*
G36*
X45494Y129256D02*
X44506D01*
X43550Y129000D01*
X42694Y128506D01*
X41995Y127806D01*
X41500Y126950D01*
X41244Y125995D01*
Y125005D01*
X41500Y124050D01*
X41995Y123194D01*
X42694Y122494D01*
X43550Y122000D01*
X44506Y121744D01*
X45494D01*
X46450Y122000D01*
X47306Y122494D01*
X48006Y123194D01*
X48500Y124050D01*
X48756Y125005D01*
Y125995D01*
X48500Y126950D01*
X48006Y127806D01*
X47306Y128506D01*
X46450Y129000D01*
X45494Y129256D01*
D02*
G37*
G36*
X270469Y237559D02*
X269531D01*
X268626Y237316D01*
X267815Y236848D01*
X267152Y236185D01*
X266684Y235374D01*
X266441Y234469D01*
Y233531D01*
X266684Y232626D01*
X267152Y231815D01*
X267815Y231152D01*
X268626Y230683D01*
X269531Y230441D01*
X270469D01*
X271374Y230683D01*
X272185Y231152D01*
X272848Y231815D01*
X273317Y232626D01*
X273559Y233531D01*
Y234469D01*
X273317Y235374D01*
X272848Y236185D01*
X272185Y236848D01*
X271374Y237316D01*
X270469Y237559D01*
D02*
G37*
G36*
X245469D02*
X244531D01*
X243626Y237316D01*
X242815Y236848D01*
X242152Y236185D01*
X241684Y235374D01*
X241441Y234469D01*
Y233531D01*
X241684Y232626D01*
X242152Y231815D01*
X242815Y231152D01*
X243626Y230683D01*
X244531Y230441D01*
X245469D01*
X246374Y230683D01*
X247185Y231152D01*
X247848Y231815D01*
X248317Y232626D01*
X248559Y233531D01*
Y234469D01*
X248317Y235374D01*
X247848Y236185D01*
X247185Y236848D01*
X246374Y237316D01*
X245469Y237559D01*
D02*
G37*
G36*
X306154Y226807D02*
X298256D01*
Y218909D01*
X306154D01*
Y226807D01*
D02*
G37*
G36*
X302725Y209091D02*
X301685D01*
X300681Y208822D01*
X299780Y208302D01*
X299045Y207566D01*
X298525Y206666D01*
X298256Y205662D01*
Y204622D01*
X298525Y203618D01*
X299045Y202717D01*
X299780Y201982D01*
X300681Y201462D01*
X301685Y201193D01*
X302725D01*
X303729Y201462D01*
X304629Y201982D01*
X305365Y202717D01*
X305885Y203618D01*
X306154Y204622D01*
Y205662D01*
X305885Y206666D01*
X305365Y207566D01*
X304629Y208302D01*
X303729Y208822D01*
X302725Y209091D01*
D02*
G37*
G36*
X266469Y197968D02*
X258531D01*
Y190032D01*
X266469D01*
Y197968D01*
D02*
G37*
G36*
X230520Y192953D02*
X229480D01*
X228474Y192683D01*
X227573Y192163D01*
X226837Y191427D01*
X226317Y190526D01*
X226047Y189520D01*
Y188480D01*
X226317Y187474D01*
X226837Y186573D01*
X227573Y185837D01*
X228474Y185317D01*
X229480Y185047D01*
X230520D01*
X231526Y185317D01*
X232427Y185837D01*
X233163Y186573D01*
X233683Y187474D01*
X233953Y188480D01*
Y189520D01*
X233683Y190526D01*
X233163Y191427D01*
X232427Y192163D01*
X231526Y192683D01*
X230520Y192953D01*
D02*
G37*
G36*
X263022Y187969D02*
X261978D01*
X260968Y187698D01*
X260063Y187176D01*
X259324Y186437D01*
X258802Y185532D01*
X258531Y184522D01*
Y183477D01*
X258802Y182468D01*
X259324Y181563D01*
X260063Y180824D01*
X260968Y180302D01*
X261978Y180032D01*
X263022D01*
X264032Y180302D01*
X264937Y180824D01*
X265676Y181563D01*
X266198Y182468D01*
X266469Y183477D01*
Y184522D01*
X266198Y185532D01*
X265676Y186437D01*
X264937Y187176D01*
X264032Y187698D01*
X263022Y187969D01*
D02*
G37*
G36*
X230520Y182953D02*
X229480D01*
X228474Y182683D01*
X227573Y182163D01*
X226837Y181427D01*
X226317Y180526D01*
X226047Y179520D01*
Y178480D01*
X226317Y177474D01*
X226837Y176573D01*
X227573Y175837D01*
X228474Y175317D01*
X229480Y175047D01*
X230520D01*
X231526Y175317D01*
X232427Y175837D01*
X233163Y176573D01*
X233683Y177474D01*
X233953Y178480D01*
Y179520D01*
X233683Y180526D01*
X233163Y181427D01*
X232427Y182163D01*
X231526Y182683D01*
X230520Y182953D01*
D02*
G37*
G36*
X306154Y176807D02*
X298256D01*
Y168909D01*
X306154D01*
Y176807D01*
D02*
G37*
G36*
X278495Y173256D02*
X277505D01*
X276550Y173000D01*
X275694Y172505D01*
X274994Y171806D01*
X274500Y170950D01*
X274244Y169994D01*
Y169006D01*
X274500Y168050D01*
X274994Y167194D01*
X275694Y166495D01*
X276550Y166000D01*
X277505Y165744D01*
X278495D01*
X279450Y166000D01*
X280306Y166495D01*
X281006Y167194D01*
X281500Y168050D01*
X281756Y169006D01*
Y169994D01*
X281500Y170950D01*
X281006Y171806D01*
X280306Y172505D01*
X279450Y173000D01*
X278495Y173256D01*
D02*
G37*
G36*
X248495D02*
X247505D01*
X246550Y173000D01*
X245694Y172505D01*
X244994Y171806D01*
X244500Y170950D01*
X244244Y169994D01*
Y169006D01*
X244500Y168050D01*
X244994Y167194D01*
X245694Y166495D01*
X246550Y166000D01*
X247505Y165744D01*
X248495D01*
X249450Y166000D01*
X250306Y166495D01*
X251006Y167194D01*
X251500Y168050D01*
X251756Y169006D01*
Y169994D01*
X251500Y170950D01*
X251006Y171806D01*
X250306Y172505D01*
X249450Y173000D01*
X248495Y173256D01*
D02*
G37*
G36*
X230520Y172953D02*
X229480D01*
X228474Y172683D01*
X227573Y172163D01*
X226837Y171427D01*
X226317Y170526D01*
X226047Y169520D01*
Y168480D01*
X226317Y167474D01*
X226837Y166573D01*
X227573Y165837D01*
X228474Y165317D01*
X229480Y165047D01*
X230520D01*
X231526Y165317D01*
X232427Y165837D01*
X233163Y166573D01*
X233683Y167474D01*
X233953Y168480D01*
Y169520D01*
X233683Y170526D01*
X233163Y171427D01*
X232427Y172163D01*
X231526Y172683D01*
X230520Y172953D01*
D02*
G37*
G36*
Y162953D02*
X229480D01*
X228474Y162683D01*
X227573Y162163D01*
X226837Y161427D01*
X226317Y160526D01*
X226047Y159520D01*
Y158480D01*
X226317Y157474D01*
X226837Y156573D01*
X227573Y155837D01*
X228474Y155317D01*
X229480Y155047D01*
X230520D01*
X231526Y155317D01*
X232427Y155837D01*
X233163Y156573D01*
X233683Y157474D01*
X233953Y158480D01*
Y159520D01*
X233683Y160526D01*
X233163Y161427D01*
X232427Y162163D01*
X231526Y162683D01*
X230520Y162953D01*
D02*
G37*
G36*
X302725Y159091D02*
X301685D01*
X300681Y158821D01*
X299780Y158302D01*
X299045Y157566D01*
X298525Y156666D01*
X298256Y155662D01*
Y154622D01*
X298525Y153618D01*
X299045Y152717D01*
X299780Y151982D01*
X300681Y151462D01*
X301685Y151193D01*
X302725D01*
X303729Y151462D01*
X304629Y151982D01*
X305365Y152717D01*
X305885Y153618D01*
X306154Y154622D01*
Y155662D01*
X305885Y156666D01*
X305365Y157566D01*
X304629Y158302D01*
X303729Y158821D01*
X302725Y159091D01*
D02*
G37*
G36*
X230520Y152953D02*
X229480D01*
X228474Y152683D01*
X227573Y152163D01*
X226837Y151427D01*
X226317Y150526D01*
X226047Y149520D01*
Y148480D01*
X226317Y147474D01*
X226837Y146573D01*
X227573Y145837D01*
X228474Y145317D01*
X229480Y145047D01*
X230520D01*
X231526Y145317D01*
X232427Y145837D01*
X233163Y146573D01*
X233683Y147474D01*
X233953Y148480D01*
Y149520D01*
X233683Y150526D01*
X233163Y151427D01*
X232427Y152163D01*
X231526Y152683D01*
X230520Y152953D01*
D02*
G37*
G36*
Y142953D02*
X229480D01*
X228474Y142683D01*
X227573Y142163D01*
X226837Y141427D01*
X226317Y140526D01*
X226047Y139520D01*
Y138480D01*
X226317Y137474D01*
X226837Y136573D01*
X227573Y135837D01*
X228474Y135317D01*
X229480Y135047D01*
X230520D01*
X231526Y135317D01*
X232427Y135837D01*
X233163Y136573D01*
X233683Y137474D01*
X233953Y138480D01*
Y139520D01*
X233683Y140526D01*
X233163Y141427D01*
X232427Y142163D01*
X231526Y142683D01*
X230520Y142953D01*
D02*
G37*
G36*
X247994Y137756D02*
X247006D01*
X246050Y137500D01*
X245194Y137005D01*
X244495Y136306D01*
X244000Y135450D01*
X243744Y134494D01*
Y133505D01*
X244000Y132550D01*
X244495Y131694D01*
X245194Y130994D01*
X246050Y130500D01*
X247006Y130244D01*
X247994D01*
X248950Y130500D01*
X249806Y130994D01*
X250505Y131694D01*
X251000Y132550D01*
X251256Y133505D01*
Y134494D01*
X251000Y135450D01*
X250505Y136306D01*
X249806Y137005D01*
X248950Y137500D01*
X247994Y137756D01*
D02*
G37*
G36*
X230520Y132953D02*
X229480D01*
X228474Y132683D01*
X227573Y132163D01*
X226837Y131427D01*
X226317Y130526D01*
X226047Y129520D01*
Y128480D01*
X226317Y127474D01*
X226837Y126573D01*
X227573Y125837D01*
X228474Y125317D01*
X229480Y125047D01*
X230520D01*
X231526Y125317D01*
X232427Y125837D01*
X233163Y126573D01*
X233683Y127474D01*
X233953Y128480D01*
Y129520D01*
X233683Y130526D01*
X233163Y131427D01*
X232427Y132163D01*
X231526Y132683D01*
X230520Y132953D01*
D02*
G37*
G36*
X306154Y126807D02*
X298256D01*
Y118909D01*
X306154D01*
Y126807D01*
D02*
G37*
G36*
X230520Y122953D02*
X229480D01*
X228474Y122683D01*
X227573Y122163D01*
X226837Y121427D01*
X226317Y120526D01*
X226047Y119520D01*
Y118480D01*
X226317Y117474D01*
X226837Y116573D01*
X227573Y115837D01*
X228474Y115317D01*
X229480Y115047D01*
X230520D01*
X231526Y115317D01*
X232427Y115837D01*
X233163Y116573D01*
X233683Y117474D01*
X233953Y118480D01*
Y119520D01*
X233683Y120526D01*
X233163Y121427D01*
X232427Y122163D01*
X231526Y122683D01*
X230520Y122953D01*
D02*
G37*
G36*
Y112953D02*
X229480D01*
X228474Y112683D01*
X227573Y112163D01*
X226837Y111427D01*
X226317Y110526D01*
X226047Y109520D01*
Y108480D01*
X226317Y107474D01*
X226837Y106573D01*
X227573Y105837D01*
X228474Y105317D01*
X229480Y105047D01*
X230520D01*
X231526Y105317D01*
X232427Y105837D01*
X233163Y106573D01*
X233683Y107474D01*
X233953Y108480D01*
Y109520D01*
X233683Y110526D01*
X233163Y111427D01*
X232427Y112163D01*
X231526Y112683D01*
X230520Y112953D01*
D02*
G37*
G36*
X262862Y124450D02*
X262138D01*
X261438Y124263D01*
X260811Y123900D01*
X260299Y123389D01*
X259937Y122761D01*
X259750Y122062D01*
Y121338D01*
X259937Y120639D01*
X260299Y120011D01*
X260811Y119500D01*
X260984Y119400D01*
Y118900D01*
X260811Y118800D01*
X260299Y118289D01*
X259937Y117661D01*
X259750Y116962D01*
Y116238D01*
X259937Y115539D01*
X260299Y114911D01*
X260811Y114400D01*
X260984Y114300D01*
Y113800D01*
X260811Y113700D01*
X260299Y113189D01*
X259937Y112562D01*
X259750Y111862D01*
Y111138D01*
X259937Y110439D01*
X260299Y109811D01*
X260811Y109300D01*
X260984Y109200D01*
Y108700D01*
X260811Y108600D01*
X260299Y108089D01*
X259937Y107462D01*
X259750Y106762D01*
Y106038D01*
X259937Y105339D01*
X260299Y104711D01*
X260811Y104200D01*
X261438Y103837D01*
X262138Y103650D01*
X262862D01*
X263562Y103837D01*
X264189Y104200D01*
X264701Y104711D01*
X265063Y105339D01*
X265250Y106038D01*
Y106762D01*
X265063Y107462D01*
X264701Y108089D01*
X264189Y108600D01*
X264016Y108700D01*
Y109200D01*
X264189Y109300D01*
X264701Y109811D01*
X265063Y110439D01*
X265250Y111138D01*
Y111862D01*
X265063Y112562D01*
X264701Y113189D01*
X264189Y113700D01*
X264016Y113800D01*
Y114300D01*
X264189Y114400D01*
X264701Y114911D01*
X265063Y115539D01*
X265250Y116238D01*
Y116962D01*
X265063Y117661D01*
X264701Y118289D01*
X264189Y118800D01*
X264016Y118900D01*
Y119400D01*
X264189Y119500D01*
X264701Y120011D01*
X265063Y120639D01*
X265250Y121338D01*
Y122062D01*
X265063Y122761D01*
X264701Y123389D01*
X264189Y123900D01*
X263562Y124263D01*
X262862Y124450D01*
D02*
G37*
G36*
X302725Y109091D02*
X301685D01*
X300681Y108821D01*
X299780Y108302D01*
X299045Y107566D01*
X298525Y106666D01*
X298256Y105662D01*
Y104622D01*
X298525Y103618D01*
X299045Y102717D01*
X299780Y101982D01*
X300681Y101462D01*
X301685Y101193D01*
X302725D01*
X303729Y101462D01*
X304629Y101982D01*
X305365Y102717D01*
X305885Y103618D01*
X306154Y104622D01*
Y105662D01*
X305885Y106666D01*
X305365Y107566D01*
X304629Y108302D01*
X303729Y108821D01*
X302725Y109091D01*
D02*
G37*
G36*
X247994Y107756D02*
X247006D01*
X246050Y107500D01*
X245194Y107006D01*
X244495Y106306D01*
X244000Y105450D01*
X243744Y104495D01*
Y103506D01*
X244000Y102550D01*
X244495Y101694D01*
X245194Y100995D01*
X246050Y100500D01*
X247006Y100244D01*
X247994D01*
X248950Y100500D01*
X249806Y100995D01*
X250505Y101694D01*
X251000Y102550D01*
X251256Y103506D01*
Y104495D01*
X251000Y105450D01*
X250505Y106306D01*
X249806Y107006D01*
X248950Y107500D01*
X247994Y107756D01*
D02*
G37*
G36*
X230520Y102953D02*
X229480D01*
X228474Y102683D01*
X227573Y102163D01*
X226837Y101427D01*
X226317Y100526D01*
X226047Y99520D01*
Y98480D01*
X226317Y97474D01*
X226837Y96573D01*
X227573Y95837D01*
X228474Y95317D01*
X229480Y95047D01*
X230520D01*
X231526Y95317D01*
X232427Y95837D01*
X233163Y96573D01*
X233683Y97474D01*
X233953Y98480D01*
Y99520D01*
X233683Y100526D01*
X233163Y101427D01*
X232427Y102163D01*
X231526Y102683D01*
X230520Y102953D01*
D02*
G37*
G36*
X277994Y97756D02*
X277006D01*
X276050Y97500D01*
X275194Y97005D01*
X274495Y96306D01*
X274000Y95450D01*
X273744Y94494D01*
Y93506D01*
X274000Y92550D01*
X274495Y91694D01*
X275194Y90995D01*
X276050Y90500D01*
X277006Y90244D01*
X277994D01*
X278950Y90500D01*
X279806Y90995D01*
X280505Y91694D01*
X281000Y92550D01*
X281256Y93506D01*
Y94494D01*
X281000Y95450D01*
X280505Y96306D01*
X279806Y97005D01*
X278950Y97500D01*
X277994Y97756D01*
D02*
G37*
G36*
X247994D02*
X247006D01*
X246050Y97500D01*
X245194Y97005D01*
X244495Y96306D01*
X244000Y95450D01*
X243744Y94494D01*
Y93506D01*
X244000Y92550D01*
X244495Y91694D01*
X245194Y90995D01*
X246050Y90500D01*
X247006Y90244D01*
X247994D01*
X248950Y90500D01*
X249806Y90995D01*
X250505Y91694D01*
X251000Y92550D01*
X251256Y93506D01*
Y94494D01*
X251000Y95450D01*
X250505Y96306D01*
X249806Y97005D01*
X248950Y97500D01*
X247994Y97756D01*
D02*
G37*
G36*
X233953Y92953D02*
X226047D01*
Y85047D01*
X233953D01*
Y92953D01*
D02*
G37*
G36*
X277994Y87756D02*
X277006D01*
X276050Y87500D01*
X275194Y87006D01*
X274495Y86306D01*
X274000Y85450D01*
X273744Y84495D01*
Y83505D01*
X274000Y82550D01*
X274495Y81694D01*
X275194Y80994D01*
X276050Y80500D01*
X277006Y80244D01*
X277994D01*
X278950Y80500D01*
X279806Y80994D01*
X280505Y81694D01*
X281000Y82550D01*
X281256Y83505D01*
Y84495D01*
X281000Y85450D01*
X280505Y86306D01*
X279806Y87006D01*
X278950Y87500D01*
X277994Y87756D01*
D02*
G37*
G36*
X247994D02*
X247006D01*
X246050Y87500D01*
X245194Y87006D01*
X244495Y86306D01*
X244000Y85450D01*
X243744Y84495D01*
Y83505D01*
X244000Y82550D01*
X244495Y81694D01*
X245194Y80994D01*
X246050Y80500D01*
X247006Y80244D01*
X247994D01*
X248950Y80500D01*
X249806Y80994D01*
X250505Y81694D01*
X251000Y82550D01*
X251256Y83505D01*
Y84495D01*
X251000Y85450D01*
X250505Y86306D01*
X249806Y87006D01*
X248950Y87500D01*
X247994Y87756D01*
D02*
G37*
G36*
X222994Y82756D02*
X222006D01*
X221050Y82500D01*
X220194Y82006D01*
X219495Y81306D01*
X219000Y80450D01*
X218744Y79495D01*
Y78505D01*
X219000Y77550D01*
X219495Y76694D01*
X220194Y75994D01*
X221050Y75500D01*
X222006Y75244D01*
X222994D01*
X223950Y75500D01*
X224806Y75994D01*
X225505Y76694D01*
X226000Y77550D01*
X226256Y78505D01*
Y79495D01*
X226000Y80450D01*
X225505Y81306D01*
X224806Y82006D01*
X223950Y82500D01*
X222994Y82756D01*
D02*
G37*
G36*
X260443Y77362D02*
X259557D01*
X258702Y77133D01*
X257936Y76690D01*
X257310Y76064D01*
X256867Y75298D01*
X256638Y74443D01*
Y73557D01*
X256867Y72702D01*
X257310Y71936D01*
X257936Y71310D01*
X258702Y70867D01*
X259557Y70638D01*
X260443D01*
X261298Y70867D01*
X262064Y71310D01*
X262690Y71936D01*
X263133Y72702D01*
X263362Y73557D01*
Y74443D01*
X263133Y75298D01*
X262690Y76064D01*
X262064Y76690D01*
X261298Y77133D01*
X260443Y77362D01*
D02*
G37*
G36*
X306154Y76807D02*
X298256D01*
Y68909D01*
X306154D01*
Y76807D01*
D02*
G37*
G36*
X240469Y75059D02*
X239531D01*
X238626Y74817D01*
X237815Y74348D01*
X237152Y73685D01*
X236684Y72874D01*
X236441Y71969D01*
Y71031D01*
X236684Y70126D01*
X237152Y69315D01*
X237815Y68652D01*
X238626Y68183D01*
X239531Y67941D01*
X240469D01*
X241374Y68183D01*
X242185Y68652D01*
X242848Y69315D01*
X243317Y70126D01*
X243559Y71031D01*
Y71969D01*
X243317Y72874D01*
X242848Y73685D01*
X242185Y74348D01*
X241374Y74817D01*
X240469Y75059D01*
D02*
G37*
G36*
Y65059D02*
X239531D01*
X238626Y64816D01*
X237815Y64348D01*
X237152Y63685D01*
X236684Y62874D01*
X236441Y61969D01*
Y61031D01*
X236684Y60126D01*
X237152Y59315D01*
X237815Y58652D01*
X238626Y58183D01*
X239531Y57941D01*
X240469D01*
X241374Y58183D01*
X242185Y58652D01*
X242848Y59315D01*
X243317Y60126D01*
X243559Y61031D01*
Y61969D01*
X243317Y62874D01*
X242848Y63685D01*
X242185Y64348D01*
X241374Y64816D01*
X240469Y65059D01*
D02*
G37*
G36*
X302725Y59091D02*
X301685D01*
X300681Y58821D01*
X299780Y58302D01*
X299045Y57566D01*
X298525Y56666D01*
X298256Y55662D01*
Y54622D01*
X298525Y53618D01*
X299045Y52717D01*
X299780Y51982D01*
X300681Y51462D01*
X301685Y51193D01*
X302725D01*
X303729Y51462D01*
X304629Y51982D01*
X305365Y52717D01*
X305885Y53618D01*
X306154Y54622D01*
Y55662D01*
X305885Y56666D01*
X305365Y57566D01*
X304629Y58302D01*
X303729Y58821D01*
X302725Y59091D01*
D02*
G37*
G36*
X260443Y57362D02*
X259557D01*
X258702Y57133D01*
X257936Y56690D01*
X257310Y56064D01*
X256867Y55298D01*
X256638Y54443D01*
Y53557D01*
X256867Y52702D01*
X257310Y51936D01*
X257936Y51310D01*
X258702Y50867D01*
X259557Y50638D01*
X260443D01*
X261298Y50867D01*
X262064Y51310D01*
X262690Y51936D01*
X263133Y52702D01*
X263362Y53557D01*
Y54443D01*
X263133Y55298D01*
X262690Y56064D01*
X262064Y56690D01*
X261298Y57133D01*
X260443Y57362D01*
D02*
G37*
G36*
X222994Y52756D02*
X222006D01*
X221050Y52500D01*
X220194Y52005D01*
X219495Y51306D01*
X219000Y50450D01*
X218744Y49494D01*
Y48505D01*
X219000Y47550D01*
X219495Y46694D01*
X220194Y45994D01*
X221050Y45500D01*
X222006Y45244D01*
X222994D01*
X223950Y45500D01*
X224806Y45994D01*
X225505Y46694D01*
X226000Y47550D01*
X226256Y48505D01*
Y49494D01*
X226000Y50450D01*
X225505Y51306D01*
X224806Y52005D01*
X223950Y52500D01*
X222994Y52756D01*
D02*
G37*
G36*
X247974Y47600D02*
X247026D01*
X246110Y47355D01*
X245290Y46881D01*
X244619Y46210D01*
X244145Y45390D01*
X243900Y44474D01*
Y43526D01*
X244145Y42610D01*
X244619Y41790D01*
X245290Y41119D01*
X246110Y40645D01*
X247026Y40400D01*
X247974D01*
X248890Y40645D01*
X249710Y41119D01*
X250381Y41790D01*
X250855Y42610D01*
X251100Y43526D01*
Y44474D01*
X250855Y45390D01*
X250381Y46210D01*
X249710Y46881D01*
X248890Y47355D01*
X247974Y47600D01*
D02*
G37*
G36*
X237974D02*
X237026D01*
X236110Y47355D01*
X235290Y46881D01*
X234619Y46210D01*
X234145Y45390D01*
X233900Y44474D01*
Y43526D01*
X234145Y42610D01*
X234619Y41790D01*
X235290Y41119D01*
X236110Y40645D01*
X237026Y40400D01*
X237974D01*
X238890Y40645D01*
X239710Y41119D01*
X240381Y41790D01*
X240855Y42610D01*
X241100Y43526D01*
Y44474D01*
X240855Y45390D01*
X240381Y46210D01*
X239710Y46881D01*
X238890Y47355D01*
X237974Y47600D01*
D02*
G37*
%LPD*%
D37*
X76200Y216600D02*
Y234400D01*
X85100Y243300D01*
X112800D01*
X125000Y255500D01*
X5200Y240700D02*
X10000Y245500D01*
X20000Y115500D02*
X32300Y103200D01*
X75900D01*
X96900Y124200D01*
Y167400D01*
X185000Y255500D01*
X100297Y260203D02*
X105000Y255500D01*
X91703Y260203D02*
X100297D01*
X90300Y258800D02*
X91703Y260203D01*
X71900Y214400D02*
X74800Y211500D01*
Y173400D02*
Y211500D01*
X55000Y15500D02*
Y93700D01*
X48000Y100700D02*
X55000Y93700D01*
X71900Y244700D02*
X76000Y248800D01*
X167797Y262703D02*
X175000Y255500D01*
X51450Y257550D02*
X56603Y262703D01*
X108300Y248800D02*
X115000Y255500D01*
X71900Y214400D02*
Y244700D01*
X76000Y248800D02*
X108300D01*
X56603Y262703D02*
X167797D01*
X51450Y244478D02*
Y257550D01*
X45500Y140961D02*
X46422D01*
X57300Y151839D01*
X119321Y14821D02*
X120000Y15500D01*
X42603Y8297D02*
X115797D01*
X119321Y11821D01*
Y14821D01*
X15200Y103500D02*
X18000Y100700D01*
X8000Y200300D02*
X22000D01*
X5200Y203100D02*
Y240700D01*
X18000Y100700D02*
X48000D01*
X5200Y203100D02*
X8000Y200300D01*
X15200Y103500D02*
Y190700D01*
X20000Y195500D01*
Y205500D02*
X28000Y213500D01*
X20000Y235500D02*
Y245500D01*
X4000Y179500D02*
X10000Y185500D01*
X4000Y46900D02*
Y179500D01*
Y46900D02*
X42603Y8297D01*
X20000Y125500D02*
X32000Y137500D01*
Y225028D02*
X51450Y244478D01*
X32000Y137500D02*
Y225028D01*
X22000Y200300D02*
X29000Y193300D01*
Y151567D02*
Y193300D01*
X27415Y149035D02*
Y149982D01*
X29000Y151567D01*
X126000Y223500D02*
Y236500D01*
X145000Y255500D01*
X57300Y151839D02*
Y236800D01*
X79300Y258800D02*
X90300D01*
X57300Y236800D02*
X79300Y258800D01*
X28000Y229500D02*
X45000Y246500D01*
X28000Y213500D02*
Y229500D01*
X136800Y216000D02*
Y237300D01*
X155000Y255500D01*
D38*
X82000Y223091D02*
X90000Y231091D01*
X82000Y179091D02*
X90000Y171091D01*
X82000Y179091D02*
Y223091D01*
X165000Y225461D02*
X176000Y214461D01*
Y129500D02*
Y214461D01*
X196797Y112203D02*
X198500Y110500D01*
X176000Y129500D02*
X193297Y112203D01*
X196797D01*
X63297Y253797D02*
X65000Y255500D01*
X38000Y114000D02*
X41500Y110500D01*
X122000Y87500D02*
Y148461D01*
X105000Y165461D02*
X122000Y148461D01*
X82000Y47500D02*
X122000Y87500D01*
X175000Y15500D02*
Y87000D01*
X198500Y110500D01*
X38000Y114000D02*
Y223500D01*
X63297Y248797D01*
Y253797D01*
D39*
X237500Y44000D02*
D03*
X247500D02*
D03*
D40*
X262500Y194000D02*
D03*
D41*
Y184000D02*
D03*
D42*
Y121700D02*
D03*
Y116600D02*
D03*
Y111500D02*
D03*
Y106400D02*
D03*
D43*
X245000Y234000D02*
D03*
X270000D02*
D03*
X240000Y61500D02*
D03*
Y71500D02*
D03*
D44*
X230000Y99000D02*
D03*
Y109000D02*
D03*
Y119000D02*
D03*
Y129000D02*
D03*
Y139000D02*
D03*
Y149000D02*
D03*
Y159000D02*
D03*
Y169000D02*
D03*
Y179000D02*
D03*
Y189000D02*
D03*
X45000Y255500D02*
D03*
X195000Y15500D02*
D03*
X185000D02*
D03*
X130000D02*
D03*
X120000D02*
D03*
X190000Y220500D02*
D03*
X20000Y55500D02*
D03*
Y65500D02*
D03*
Y75500D02*
D03*
Y85500D02*
D03*
Y95500D02*
D03*
Y105500D02*
D03*
Y115500D02*
D03*
Y125500D02*
D03*
Y135500D02*
D03*
Y145500D02*
D03*
Y155500D02*
D03*
Y165500D02*
D03*
Y175500D02*
D03*
Y185500D02*
D03*
Y195500D02*
D03*
Y205500D02*
D03*
Y215500D02*
D03*
Y225500D02*
D03*
Y235500D02*
D03*
Y245500D02*
D03*
X10000Y215500D02*
D03*
Y155500D02*
D03*
Y145500D02*
D03*
Y165500D02*
D03*
Y175500D02*
D03*
Y185500D02*
D03*
Y195500D02*
D03*
Y205500D02*
D03*
Y225500D02*
D03*
Y235500D02*
D03*
Y55500D02*
D03*
Y95500D02*
D03*
Y85500D02*
D03*
Y65500D02*
D03*
Y75500D02*
D03*
Y105500D02*
D03*
Y115500D02*
D03*
Y125500D02*
D03*
Y135500D02*
D03*
X190000Y160500D02*
D03*
X185000Y255500D02*
D03*
X175000D02*
D03*
X165000D02*
D03*
X155000D02*
D03*
X145000D02*
D03*
X135000D02*
D03*
X125000D02*
D03*
X115000D02*
D03*
X105000D02*
D03*
X95000D02*
D03*
X198500Y40500D02*
D03*
X41500D02*
D03*
X55000Y15500D02*
D03*
X65000D02*
D03*
D45*
X230000Y89000D02*
D03*
X190000Y200500D02*
D03*
X10000Y245500D02*
D03*
X190000Y140500D02*
D03*
D46*
X222500Y49000D02*
D03*
Y79000D02*
D03*
X278000Y169500D02*
D03*
X248000D02*
D03*
X247500Y104000D02*
D03*
Y134000D02*
D03*
X277500Y94000D02*
D03*
X247500D02*
D03*
X277500Y84000D02*
D03*
X247500D02*
D03*
X45000Y125500D02*
D03*
Y155500D02*
D03*
Y185500D02*
D03*
Y215500D02*
D03*
D47*
X327795Y72858D02*
D03*
Y55142D02*
D03*
X302205D02*
D03*
X327795Y122858D02*
D03*
Y105142D02*
D03*
X302205D02*
D03*
Y205142D02*
D03*
X327795D02*
D03*
Y222858D02*
D03*
Y172858D02*
D03*
Y155142D02*
D03*
X302205D02*
D03*
D48*
Y72858D02*
D03*
Y122858D02*
D03*
Y222858D02*
D03*
Y172858D02*
D03*
D49*
X260000Y54000D02*
D03*
Y74000D02*
D03*
D50*
X225000Y26500D02*
D03*
X325000D02*
D03*
Y251500D02*
D03*
X225000D02*
D03*
D51*
X90000Y171091D02*
D03*
Y231091D02*
D03*
D52*
Y129909D02*
D03*
Y189909D02*
D03*
D53*
X105000Y135539D02*
D03*
Y195539D02*
D03*
D54*
X155000Y135539D02*
D03*
X165000Y165461D02*
D03*
X105000D02*
D03*
X155000Y195539D02*
D03*
X165000Y225461D02*
D03*
X105000D02*
D03*
D55*
X65000Y255500D02*
D03*
X175000Y15500D02*
D03*
X110000D02*
D03*
X195000Y255500D02*
D03*
X41500Y110500D02*
D03*
X198500D02*
D03*
X45000Y15500D02*
D03*
D56*
X65000Y150343D02*
D03*
Y130657D02*
D03*
Y140500D02*
D03*
Y210343D02*
D03*
Y190657D02*
D03*
Y200500D02*
D03*
D57*
X76200Y216600D02*
D03*
X74800Y173400D02*
D03*
X136800Y216000D02*
D03*
X45500Y140961D02*
D03*
X82000Y47500D02*
D03*
X27415Y149035D02*
D03*
X126000Y223500D02*
D03*
X45000Y246500D02*
D03*
M02*
